<?xml version="1.0" standalone="no"?>
<!DOCTYPE svg PUBLIC "-//W3C//DTD SVG 1.1//EN" "http://www.w3.org/Graphics/SVG/1.1/DTD/svg11.dtd" >
<svg xmlns="http://www.w3.org/2000/svg" xmlns:xlink="http://www.w3.org/1999/xlink" version="1.1">
<metadata>
Created by FontForge 20170910 at Wed Apr  5 16:24:49 2017
 By jimmywarting
Copyright (c) 2012 by QlikTech International. All rights reserved.
</metadata>
<defs>
<font id="LUIicons" horiz-adv-x="999" >
  <font-face 
    font-family="LUIicons"
    font-weight="400"
    font-stretch="normal"
    units-per-em="2048"
    panose-1="0 0 0 0 0 0 0 0 0 0"
    ascent="1664"
    descent="-384"
    x-height="1280"
    cap-height="1664"
    bbox="-6.39482 -512 3370 1730"
    underline-thickness="100"
    underline-position="-200"
    unicode-range="U+0002-1F6C8"
  />
<missing-glyph horiz-adv-x="500" 
 />
    <glyph glyph-name=".notdef" horiz-adv-x="500" 
 />
    <glyph glyph-name=".null" horiz-adv-x="0" 
 />
    <glyph glyph-name="nonmarkingreturn" unicode="&#xd;" horiz-adv-x="500" 
 />
    <glyph glyph-name="NULL" horiz-adv-x="0" 
 />
    <glyph glyph-name="uni0002" horiz-adv-x="500" 
 />
    <glyph glyph-name="uni0009" unicode="&#x9;" 
 />
    <glyph glyph-name="uni000A" unicode="&#xa;" horiz-adv-x="500" 
 />
    <glyph glyph-name="space" unicode=" " horiz-adv-x="500" 
 />
    <glyph glyph-name="exclam" unicode="!" horiz-adv-x="2047" 
d="M1941 1664q44 0 75.5 -31.5t31.5 -75.5v-1834q0 -44 -31.5 -75.5t-75.5 -31.5h-298q-44 0 -75.5 31.5t-31.5 75.5v1834q0 44 31.5 75.5t75.5 31.5h298zM1173 640q44 0 75.5 -31.5t31.5 -75.5v-810q0 -44 -31.5 -75.5t-75.5 -31.5h-298q-44 0 -75.5 31.5t-31.5 75.5v810
q0 44 31.5 75.5t75.5 31.5h298zM405 1152q44 0 75.5 -31.5t31.5 -75.5v-1322q0 -44 -31.5 -75.5t-75.5 -31.5h-298q-44 0 -75.5 31.5t-31.5 75.5v1322q0 44 31.5 75.5t75.5 31.5h298z" />
    <glyph glyph-name="quotedbl" unicode="&#x22;" horiz-adv-x="2047" 
d="M2048 1557v-298q0 -44 -31.5 -75.5t-75.5 -31.5h-1834q-44 0 -75.5 31.5t-31.5 75.5v298q0 44 31.5 75.5t75.5 31.5h1834q44 0 75.5 -31.5t31.5 -75.5zM1024 789v-298q0 -44 -31.5 -75.5t-75.5 -31.5h-810q-44 0 -75.5 31.5t-31.5 75.5v298q0 44 31.5 75.5t75.5 31.5h810
q44 0 75.5 -31.5t31.5 -75.5zM1536 21v-298q0 -44 -31.5 -75.5t-75.5 -31.5h-1322q-44 0 -75.5 31.5t-31.5 75.5v298q0 44 31.5 75.5t75.5 31.5h1322q44 0 75.5 -31.5t31.5 -75.5z" />
    <glyph glyph-name="numbersign" unicode="#" horiz-adv-x="2047" 
d="M617 1536q0 -23 -17 -40l-152 -152l152 -152q17 -17 17 -40t-17 -40l-48 -48q-17 -17 -40 -17t-40 17l-152 152l-152 -152q-17 -17 -40 -17t-40 17l-48 48q-17 17 -17 40t17 40l152 152l-152 152q-17 17 -17 40t17 40l48 48q17 17 40 17t40 -17l152 -152l152 152
q17 17 40 17t40 -17l48 -48q17 -17 17 -40zM2048 384h-1408v128h1408v-128zM1024 640h-256v512h256v-512zM1536 -128h-256v384h256v-384zM2048 -384h-256v640h256v-640z" />
    <glyph glyph-name="dollar" unicode="$" horiz-adv-x="2047" 
d="M617 1536q0 -23 -17 -40l-152 -152l152 -152q17 -17 17 -40t-17 -40l-48 -48q-17 -17 -40 -17t-40 17l-152 152l-152 -152q-17 -17 -40 -17t-40 17l-48 48q-17 17 -17 40t17 40l152 152l-152 152q-17 17 -17 40t17 40l48 48q17 17 40 17t40 -17l152 -152l152 152
q17 17 40 17t40 -17l48 -48q17 -17 17 -40zM1280 -384v1408h128v-1408h-128zM1536 640v256h512v-256h-512zM768 128v256h384v-256h-384zM512 -384v256h640v-256h-640z" />
    <glyph glyph-name="percent" unicode="%" horiz-adv-x="2047" 
d="M2048 -256v-128h-2048v2048h128v-1664l565 930l517 -298l485 840q26 45 95.5 58.5t105.5 -6.5q60 -34 81.5 -100.5t-4.5 -112.5l-643 -1122l-518 297l-428 -742h1664z" />
    <glyph glyph-name="ampersand" unicode="&#x26;" horiz-adv-x="2047" 
d="M2048 613q0 -157 -60 -320.5t-168 -296.5l-668 669v991q381 -48 638.5 -337.5t257.5 -705.5zM1045 -384q-301 0 -535 138t-372 372t-138 502t118.5 489.5t322.5 364t455 174.5v-1144l713 -713q-263 -183 -564 -183z" />
    <glyph glyph-name="quotesingle" unicode="'" horiz-adv-x="1664" 
d="M1536 1152h-640v-256h640v256zM1536 768h-640v-256h640v256zM1536 384h-640v-256h640v256zM1536 0h-640v-256h640v256zM768 1152h-640v-256h640v256zM768 768h-640v-256h640v256zM768 384h-640v-256h640v256zM768 0h-640v-256h640v256zM1536 1664q75 0 110 -64
q15 -28 18 -64l3 -1792q-6 -68 -44 -98t-84 -30h-1411q-70 6 -99 43.5t-29 84.5v1792q6 70 43.5 99t84.5 29h1408z" />
    <glyph glyph-name="parenleft" unicode="(" horiz-adv-x="2047" 
d="M1848 0q30 0 50 20t20 44t-20 44t-50 20h-184v184q0 30 -20 50t-44 20t-44 -20t-20 -50v-184h-184q-30 0 -50 -20t-20 -44t20 -44t50 -20h184v-184q0 -30 20 -50t44 -20t44 20t20 50v184h184zM2048 512v-896h-896v896h896zM768 1152h-640v-256h640v256zM768 768h-640
v-256h640v256zM768 384h-640v-256h640v256zM768 0h-640v-256h640v256zM896 896h640v256h-640v-256zM1024 -256v-128h-896q-70 6 -99 43.5t-29 84.5v1792q6 70 43.5 99t84.5 29h1408q75 0 110 -64q15 -28 18 -64l2 -896h-130v128h-640v-256h128v-128h-128v-256h128v-128h-128
v-256h128z" />
    <glyph glyph-name="parenright" unicode=")" horiz-adv-x="2047" 
d="M1280 504q0 -46 -20 -92t-55 -81t-81.5 -55t-99.5 -20t-99.5 20t-81.5 55t-55 81.5t-20 126t75 154.5t181 75q38 0 69 -10l443 266l-266 -443q10 -31 10 -77zM1024 1536q141 0 272 -36.5t303.5 -138t310.5 -336t138 -513.5q0 -339 -133.5 -518.5t-213.5 -249.5l-105 256
q76 84 136 214t60 292t-60 302t-166 246t-246 166t-296 60t-296 -60t-306 -226.5t-166 -487.5q0 -266 92 -379.5t104 -126.5l-105 -256q-248 217 -297.5 435t-49.5 346t36.5 259t103.5 244.5t160.5 207t207 160.5t244.5 103.5t272 36.5z" />
    <glyph glyph-name="asterisk" unicode="*" horiz-adv-x="2047" 
d="M1536 768v384h-384v-384h384zM1536 128v384h-384v-384h384zM512 128h384v384h-384v-384zM512 1152v-384h384v384h-384zM2048 1152h-256v-384h256v-256h-256v-384h256v-256h-256v-256h-256v256h-384v-256h-256v256h-384v-256h-256v256h-256v256h256v384h-256v256h256v384
h-256v256h256v256h256v-256h384v256h256v-256h384v256h256v-256h256v-256z" />
    <glyph glyph-name="plus" unicode="+" horiz-adv-x="2047" 
d="M704 256q66 0 124.5 -25t102 -68.5t68.5 -102t25 -124.5t-25 -124.5t-68.5 -102t-102 -68.5t-124.5 -25t-124.5 25t-102 68.5t-68.5 102t-25 124.5t25 124.5t68.5 102t102 68.5t124.5 25zM1600 1024q93 0 174.5 -35t142.5 -96t96 -142.5t35 -174.5t-35 -174.5t-96 -142.5
t-142.5 -96t-174.5 -35t-174.5 35t-142.5 96t-96 142.5t-35 174.5t35 174.5t96 142.5t142.5 96t174.5 35zM512 1664q105 0 198.5 -40.5t163 -110t110 -163t40.5 -198.5t-40.5 -198.5t-110 -163t-163 -110t-198.5 -40.5t-198.5 40.5t-163 110t-110 163t-40.5 198.5
t40.5 198.5t110 163t163 110t198.5 40.5z" />
    <glyph glyph-name="comma" unicode="," horiz-adv-x="2047" 
d="M1312 -163q2 0 2 7l-2 16q-3 16 12 20t26 16l26 13q16 5 16 23t17 24t35 24l23 23q7 3 18 44t37 61t46 22t20 18t8 29t8 22t13 9q16 4 16 30.5t18 47.5t31 26l-3 26q-4 24 -20 18.5t-19 -5.5h-10q-12 36 -39 36q-25 5 -35.5 15.5t-42.5 10.5l-7 -10l-6 -13q-7 10 -7 42
t-13 40q-10 14 -26 18t-26 7.5t-18 6.5t-9 12q-5 40 -81 40q-22 0 -34 11.5t-26 11.5t-32 -7t-18 -12q-6 -9 -19 -14l-33 -3q-13 0 -26 -13q34 -5 38.5 -16.5t4.5 -19.5v-9q-4 -13 -4 -35t-16 -34q-16 -5 -16 -17t6 -12v-10q-6 -6 -6 -24t13 -18h9q14 -69 59 -114l26 -81
q-12 -137 -30.5 -181.5t-18.5 -62.5l7 -42q3 0 3 -17v-6q0 -13 -6 -13q-4 -4 -4 -10v-20l-10 -39h10q0 -5 2 -9.5t2 -9.5q50 6 100 26q-2 27 -3.5 46.5t2.5 23.5t7 7.5t5 3.5zM1135 539q0 1 -2.5 1t-2.5 23.5t2 48.5v13q-6 0 -9 3v52l-4 6v7q0 5 -4 5t-9 -5h-3l-20 -13
q-2 -2 -5.5 -5t-3.5 -5q-8 0 -6 -8t-5 -11.5t-9 -3.5h-16q-7 0 -7 7l-9 3l-10 3q-8 10 -10 16t-8 12t2 34v20q0 2 5 22.5t11 23.5q7 3 13 9q4 10 8.5 6.5t23.5 -3.5q46 -9 46 1t20 6q16 -7 22 -7l10 -3l3 -23v-13q32 -20 36 -16q10 0 10 10l-3 19q-4 0 -4 22t3 28t10 24
q6 18 18 22t12 25q-5 12 8 23q14 11 14 28t7 17l16 6q8 0 13 13v7q2 2 12.5 2t10.5 -9q6 -6 10 -6h13l6 3q0 7 -10 17h-3v26l-6 6q5 2 13 -3l10 -17q0 -6 12 -6h17q5 0 7.5 2t10.5 7t11 14q5 2 3.5 5.5t-7.5 3.5t-8.5 2.5t-0.5 4.5q0 7 -11 7t-15 9v7q0 10 -13 10h-10
q0 -7 -10 -7q-12 -5 -12 7t26 19t47 7t34 13l16 22q2 5 2 12t-5 14h-30q-11 24 -26 39l-19 36q-5 23 -10 23h-26l-6 -20l-10 -3q-2 -2 -6.5 -1t-7 1t-2.5 8q0 35 -26 35h-4q-5 12 -16 12h-6q-20 0 -20 7t-6 7q-20 -6 -20 -26t-8 -20t-2 -13q0 -16 10 -16q20 0 12 -26
t-18 -32t-10 -28t-7 -22q-2 3 -6.5 4t-9.5 3q-10 10 -10 23q-6 21 -19 29h-7q-21 -6 -28.5 13t-36.5 19h-19q-3 0 -13 10q0 7 -13 20h-7l-13 6q0 4 3 7q13 -9 20 21t23 35t16 15q7 10 13 10h10q7 0 5 8t4 8l13 10q4 -7 4 -16l-4 -3v-17l10 -6h49q7 0 13 6q0 7 -3 7
q-10 0 -29 19h-7q-5 0 -7 4t0 6q4 0 14 10q12 0 12 10l10 19q0 2 4 6t8 4t8 3h1q4 0 4 3.5t-1 5.5t-17 1h-10q-4 15 0 19l13 10q16 0 26 -6l23 -10q5 0 11.5 -4t18.5 -8.5t2 -20.5v-3l-6 -23l-3 -16q-7 -10 -15 -10t-8 4h-3q-1 -1 -2 -1q-5 -5 -5 -7v-2q0 -3 16 -3t24 -10
t12.5 -15.5t12.5 -7.5t12.5 -8t7.5 -8q0 -7 5 -8t11 8q-1 13 19 13t20 16l-23 23h-3l-6 3l6 10q0 2 1.5 2t2.5 -2l22 -23l10 -3q0 5 13 26h3q13 13 13 16q0 10 -19 10h-7l-7 13q-42 0 -42 10q0 2 6 7.5t6 27.5t-15.5 26.5t-33.5 5.5t-54 30h-23q-22 0 -30.5 10.5t-8.5 -3.5
q-3 -3 -6 -3q-7 -4 -7 -10l-3 -13q0 -7 -10 -7h-3v16q0 10 -6 10t-7 6q0 6 -8 7q-8 0 -8 -9h-4l-3 -20v-3q0 -8 7 -13l3 -10l3 -6q2 1 5 1q11 0 11 -8q4 -3 10 -3q7 -8 7 -12q0 -12 -12 -11q-4 0 -1 -4t3 -6v-3h-13q-7 0 -17 10t-22 10t-13 6q-16 26 -16 33t-17 12q0 7 4 10
q0 7 9 7q8 6 17 6l9 7q0 7 -9 13h-4l-35 -10q-3 0 -6 -5.5t-1 -10.5v-30q0 -16 16 -39q4 -1 4 -5t-6 -9t-13 -5t-7 10v3q0 5 -2.5 6t-4.5 4h-3q0 2 -4 1t-9 -1l-3 -4q-3 -2 -1.5 -4.5t1.5 -4.5h6l3 -7q0 -3 -2 -3h-20q-13 0 -13 -5t-17 -5l-3 7l-3 6q2 0 -1.5 1.5t-11.5 1.5
h-4q0 -6 -16 -6h-13q-11 0 -16 -7q-4 0 -13 -9q0 -2 -3 -5t-7 5l-16 16h-7q0 -10 -32 -10h-7q3 2 5.5 6t6.5 6t4.5 3.5t6.5 4.5l13 3l10 -3q6 -8 10 -10h3v-3l13 3l10 10q0 9 16 9h20l29 -6q6 0 6 6q4 0 4 15t-13 27t-20 30q0 16 -6 16q-6 -1 -6 -7t-8.5 -6t-8.5 -6t-4 -10
q-9 0 -9 6q-8 14 -39 14h-52q0 9 3 12v7q-9 5 -10 7h-3l-82 -26q-3 0 -3 -7l7 -7l16 -9l16 -4q20 0 20 13v10l10 4q9 0 9 -7v-7l10 -9q0 -17 18 -15t20 -2t2 -10t-12 -6t-12 -13q-5 -13 -15.5 -13t-10.5 5t-11 5t-11 2t-23 8q-19 0 -21 3t-4 3l-18 4q0 3 -11 3t-11 -7
l-7 -10l-10 -3q0 -3 -8 -3t-11 3q0 7 -7 7q0 -10 -13.5 -15t-21.5 -5t-10 5t-20 5h-6q-151 -91 -254 -225q6 0 10 4q6 0 6 8t7 8q3 3 6 3h4l22 -19q13 1 13 5q0 9 -13 14q-8 20 6.5 34.5t19.5 14.5h75q27 0 50 -18t38 -18h16q10 0 10 -19t4 -10q10 18 21 -2t26 -37t23 -37
t21 -26t13 -22t16 -16h22q10 0 0 -24t-3 -85t20 -70l13 -10q104 -147 104 -169q3 -3 6 -3h2q2 0 2 3v29l-4 4v42q10 -16 13 -16q0 -3 9 -11t12 -11.5t5 -3.5q0 -7 27 -49v-3l3 -4l-3 -9q-4 0 -4 -9.5t10 -13.5l20 -16v-10q-13 -13 9 -13h33q17 0 29 -7l20 -16v-3
q18 -7 30.5 -7t17.5 -13v-22q0 -5 9 -11t11 -6v-3q15 -6 22 -6t10 3v2zM0 641q0 279 138.5 514t373.5 372t513 137t513 -137.5t372.5 -372.5t137.5 -513t-137 -513t-372 -373.5t-514 -138.5t-514 138t-373 373t-138 514z" />
    <glyph glyph-name="hyphen" unicode="-" horiz-adv-x="1793" 
d="M1664 1536h-1536v-256h1536v256zM1664 1152h-1536v-256h1536v256zM1664 768h-1536v-256h1536v256zM1664 384h-1536v-256h1536v256zM1664 0h-1536v-256h1536v256zM1664 1664q58 0 93 -35t35 -93v-1792q0 -60 -35 -94t-93 -34h-1536q-60 0 -94 34t-34 94v1792q0 58 34 93
t94 35h1536z" />
    <glyph glyph-name="period" unicode="." horiz-adv-x="2174" 
d="M2127 768q20 0 34.5 -14.5t14.5 -34.5l-384 -591v-384l-256 -128v512l-384 591q0 20 14.5 34.5t34.5 14.5h926zM128 -231q0 -25 25 -25h1127v-128h-1152q-72 0 -100 28t-28 100v1792q0 70 28 99t100 29h1536q71 0 99.5 -28.5t28.5 -99.5v-512h-128v487q0 10 -7.5 17.5
t-17.5 7.5h-1486q-11 0 -18 -7.5t-7 -17.5v-1742z" />
    <glyph glyph-name="slash" unicode="/" horiz-adv-x="2047" 
d="M1294 407l-264 753h-8l-272 -753h544zM1265 1664l783 -2048h-477l-160 455h-783l-163 -455h-465l796 2048h469z" />
    <glyph glyph-name="zero" unicode="0" horiz-adv-x="2302" 
d="M640 1088q0 -40 -15 -75t-41 -61t-61 -41t-75 -15t-75 15t-61 41t-41 61t-15 75t15 75t41 61t61 41t75 15t75 -15t61 -41t41 -61t15 -75zM2048 43q0 -17 -13 -30t-30 -13h-1749l640 640l239 -245l454 498l459 -509v-341zM2133 -128q43 0 43 66v1404q0 40 -16 53t-27 13
h-1939q-21 0 -43.5 -22.5t-22.5 -43.5v-1404q0 -35 27.5 -50.5t38.5 -15.5h1939zM2133 1536q78 0 124.5 -55t46.5 -139v-1404q0 -131 -65.5 -162.5t-105.5 -31.5h-1939q-80 0 -137 57t-57 137v1404q0 80 57 137t137 57h1939z" />
    <glyph glyph-name="one" unicode="1" horiz-adv-x="2050" 
d="M792 832h-288l-48 -384h288zM1280 1024v-192h-296l-48 -384h216v-192h-240l-48 -384h-192l48 384h-288l-48 -384h-192l48 384h-240v192h264l48 384h-184v192h208l48 384h192l-48 -384h288l48 384h192l-48 -384h272zM2048 1408v-1536h-256v1024h-256v256q215 0 235.5 98
t20.5 158h256z" />
    <glyph glyph-name="two" unicode="2" horiz-adv-x="2047" 
d="M1920 640l-384 256v-512zM1280 1152l-256 384l-256 -384h512zM1280 128h-512l256 -384zM512 896l-384 -256l384 -256v512zM1983 1024q27 0 46 -19t19 -46v-638q0 -27 -19 -46t-46 -19h-575v-575q0 -27 -19 -46t-46 -19h-638q-27 0 -46 19t-19 46v575h-575q-27 0 -46 19
t-19 46v638q0 27 19 46t46 19h575v575q0 27 19 46t46 19h638q27 0 46 -19t19 -46v-575h575z" />
    <glyph glyph-name="three" unicode="3" horiz-adv-x="2337" 
d="M1264 617q0 57 87.5 223t286.5 166q84 0 113 -22t43.5 -48.5t28.5 -66.5l58 -179q57 83 96 142.5t88 116.5t132 57q143 0 143 -147v-3q0 -121 -50 -151.5t-109.5 -30.5t-82.5 53q-10 21 -16 26.5t-18 5.5q-46 0 -92 -82t-51 -100q2 -15 15.5 -56t39.5 -131t36 -112.5
t34 -22.5q43 0 86 101q14 34 23 49.5t29 15.5q26 1 26 -37t-13 -81.5t-53 -124t-125 -159.5t-180 -79q-49 0 -82.5 32t-60.5 81q-35 92 -81 238q-35 -93 -94 -166.5t-98 -106.5q-80 -78 -172 -78q-146 0 -146 156q0 127 50.5 165.5t86.5 38.5q68 0 87 -45l23 -56
q2 -22 11 -30t37 -8q55 0 179 221q-64 274 -89.5 320.5t-44.5 46.5q-55 0 -83 -91q-9 -18 -22.5 -58t-44.5 -40t-31 57zM1280 924q0 -24 -12 -60t-30 -37h-188l-124 -475q-82 -323 -240 -503q-187 -228 -436 -228q-175 0 -212.5 80.5t-37.5 146.5t42.5 121t119.5 55
q129 0 144 -120q0 -48 -16.5 -91t-16.5 -52q1 -33 27 -33q46 0 113 199l97 367l153 533h-150q-17 0 -26 1.5t-9 15.5t14 50t19.5 44.5t27.5 8.5h160q64 226 153.5 383.5t157.5 211.5t162 90.5t170 36.5q133 0 203 -55t70 -157v-3q0 -111 -55 -137t-105 -26t-85.5 34
t-38.5 74t0.5 57t8 31t8.5 25.5t4 22.5q0 26 -23 26q-38 0 -88 -91t-74 -208l-88 -315h169q32 1 32 -23z" />
    <glyph glyph-name="four" unicode="4" horiz-adv-x="2304" 
d="M1619 1280q20 0 32.5 -14t12.5 -31v-806q0 -20 -12.5 -32.5t-32.5 -12.5h-166q-20 0 -32.5 12.5t-12.5 32.5v806q0 17 12.5 31t32.5 14h166zM1235 1024q20 0 32.5 -14t12.5 -31v-550q0 -20 -12.5 -32.5t-32.5 -12.5h-166q-20 0 -32.5 12.5t-12.5 32.5v550q0 17 12.5 31
t32.5 14h166zM851 768q20 0 32.5 -14t12.5 -31v-294q0 -20 -12.5 -32.5t-32.5 -12.5h-166q-20 0 -32.5 12.5t-12.5 32.5v294q0 17 12.5 31t32.5 14h166zM467 896q20 0 32.5 -14t12.5 -31v-422q0 -20 -12.5 -32.5t-32.5 -12.5h-166q-20 0 -32.5 12.5t-12.5 32.5v422
q0 17 12.5 31t32.5 14h166zM2176 1008q0 13 -3 16h-253v-768q0 -36 1 -59.5t-1 -38t-8.5 -21t-20.5 -8.5t-38 -1.5t-61 0.5h-1280v-256h1661l3 16v1120zM128 1389v-1133h1664v1152h-1661q-3 -7 -3 -19zM2304 1024v-1152q-4 -69 -42 -98.5t-86 -29.5h-1664q-80 0 -112 64
q-14 28 -16 64v256h-256q-69 4 -98.5 42t-29.5 86v1152q0 80 64 112q28 14 64 16h1664q80 0 112 -64q14 -28 16 -64v-256h256q69 -4 98.5 -42t29.5 -86z" />
    <glyph glyph-name="five" unicode="5" horiz-adv-x="2559" 
d="M2131 1152q20 0 32.5 -14t12.5 -31v-934q0 -20 -12.5 -32.5t-32.5 -12.5h-166q-20 0 -32.5 12.5t-12.5 32.5v934q0 17 12.5 31t32.5 14h166zM1619 1024q20 0 32.5 -14t12.5 -31v-806q0 -20 -12.5 -32.5t-32.5 -12.5h-166q-20 0 -32.5 12.5t-12.5 32.5v806q0 17 12.5 31
t32.5 14h166zM1107 768q20 0 32.5 -14t12.5 -31v-550q0 -20 -12.5 -32.5t-32.5 -12.5h-166q-20 0 -32.5 12.5t-12.5 32.5v550q0 17 12.5 31t32.5 14h166zM595 896q20 0 32.5 -14t12.5 -31v-678q0 -20 -12.5 -32.5t-32.5 -12.5h-166q-20 0 -32.5 12.5t-12.5 32.5v678
q0 17 12.5 31t32.5 14h166zM2432 -256h-2304q-69 4 -98.5 42t-29.5 86v1536q0 80 64 112q28 14 64 16h2304q80 0 112 -64q14 -28 16 -64v-1536q-4 -69 -42 -98.5t-86 -29.5zM128 1389v-1517h2304v1536h-2301q-3 -7 -3 -19z" />
    <glyph glyph-name="six" unicode="6" horiz-adv-x="2047" 
d="M1941 1664q44 0 75.5 -31.5t31.5 -75.5v-1834q0 -44 -31.5 -75.5t-75.5 -31.5h-298q-44 0 -75.5 31.5t-31.5 75.5v1834q0 44 31.5 75.5t75.5 31.5h298zM1173 640q44 0 75.5 -31.5t31.5 -75.5v-810q0 -44 -31.5 -75.5t-75.5 -31.5h-298q-44 0 -75.5 31.5t-31.5 75.5v810
q0 44 31.5 75.5t75.5 31.5h298zM405 1152q44 0 75.5 -31.5t31.5 -75.5v-1322q0 -44 -31.5 -75.5t-75.5 -31.5h-298q-44 0 -75.5 31.5t-31.5 75.5v1322q0 44 31.5 75.5t75.5 31.5h298z" />
    <glyph glyph-name="seven" unicode="7" horiz-adv-x="2047" 
d="M1792 768h-384v-384h384v384zM640 256h-384v-384h384v384zM256 1024h384v384h-384v-384zM1920 1024q80 0 112 -64q14 -28 16 -64v-640q-4 -69 -42 -98.5t-86 -29.5h-640q-68 4 -96.5 42t-28.5 86l-3 135l-256 -357v-290q0 -80 -64 -112q-28 -14 -64 -16h-640
q-69 4 -98.5 42t-29.5 86v640q4 69 42 98.5t86 29.5h256v256h-256q-80 0 -112 64q-14 28 -16 64v640q4 69 42 98.5t86 29.5h640q80 0 112 -64q14 -28 16 -64v-640q-4 -69 -42 -98.5t-86 -29.5h-256v-256h256q69 -4 98.5 -42t29.5 -86v-128l256 360v280q4 69 42 98.5t86 29.5
h640z" />
    <glyph glyph-name="eight" unicode="8" horiz-adv-x="2434" 
d="M2190 1280q0 115 19 178t34 106.5t64 99.5q-71 -9 -137 -127t-109 -248l-267 -1292q-54 -165 -91 -229t-79 -106t-76 -46q-51 55 -68 93q-25 37 -36 93q-14 37 -14 92v78q0 77 -17 101q-32 46 -111 55h-913l217 1161q76 222 172 329q37 41 75 46h1454q77 0 109 -190
q16 -93 16 -194h-242zM1280 0q0 -146 42 -227t94 -114q53 -38 132 -43h-1306q-89 0 -139 55t-71 120q-32 76 -32 209h1280z" />
    <glyph glyph-name="nine" unicode="9" horiz-adv-x="2047" 
d="M1024 896h896l-256 -256l384 -384l-384 -384l-384 384l-256 -256v896zM1920 1280v256h-256v128h384v-384h-128zM768 1532v132h512v-132h-512zM0 1280v384h384v-128h-256v-256h-128zM132 896v-512h-132v512h132zM128 5v-256h256v-133h-384v389h128zM640 -384v132h512v-132
h-512z" />
    <glyph glyph-name="colon" unicode=":" horiz-adv-x="2562" 
d="M2280 516q0 40 -29 69t-70 29t-71 -28l-189 -189l-186 189q-73 66 -121 18t-48 -88t29 -70l186 -189l-186 -189q-29 -29 -29 -83.5t39.5 -70t70 -15.5t59.5 29l186 189l189 -189q29 -29 83 -29t70.5 40.5t16.5 69.5t-30 59l-189 189l189 189q30 30 30 70zM2559 345.5
q0 -172.5 -31.5 -295.5t-140.5 -232q-203 -202 -466 -202t-454 187q-122 122 -154.5 246t-32.5 296.5t187 362.5q189 187 453.5 186.5t451.5 -188.5t187 -360.5zM0 1664h384v-128h-256v-256h-128v384zM640 -252h512v-132h-512v132zM1920 1536h-256v128h384v-384h-128v256z
M128 -251h256v-133h-384v389h128v-256zM1280 1532h-512v132h512v-132zM132 384h-132v512h132v-512z" />
    <glyph glyph-name="semicolon" unicode=";" horiz-adv-x="2562" 
d="M1920 896q88 0 170 -23t153 -64.5t129.5 -100t100 -129.5t64.5 -153t23 -170t-23 -170t-86 -190t-210.5 -194t-320.5 -86v128q212 0 362 150t150 362t-150 362t-362 150t-362 -150t-150 -362h256l-320 -384l-320 384h256q0 265 153 418t276 187.5t211 34.5zM0 1664h384
v-128h-256v-256h-128v384zM640 -252h512v-132h-512v132zM1920 1536h-256v128h384v-384h-128v256zM128 -251h256v-133h-384v389h128v-256zM1280 1532h-512v132h512v-132zM132 384h-132v512h132v-512z" />
    <glyph glyph-name="less" unicode="&#x3c;" horiz-adv-x="2562" 
d="M1180 -196q0 106 -97 279t-571 173v-211q0 -37 -18.5 -44t-43.5 18l-423 365q-27 23 -27 64t27 64l423 365q25 25 43.5 18t18.5 -44v-211q336 0 552 -171t216 -467q0 -191 -117 -386q17 82 17 188zM2560 1664v-384h-128v256h-256v128h384zM1408 -252h512v-132h-512v132z
M640 1280h-128v384h384v-128h-256v-256zM2432 5h128v-389h-384v133h256v256zM1792 1532h-512v132h512v-132zM2428 896h132v-512h-132v512z" />
    <glyph glyph-name="equal" unicode="=" horiz-adv-x="2562" 
d="M1280 -18q0 315 216 486.5t552 171.5v211q0 37 18.5 44t42.5 -18l424 -365q27 -25 27 -64t-27 -64l-424 -365q-24 -25 -42.5 -18t-18.5 44v211q-474 0 -571 -173t-97 -279t17 -188q-117 194 -117 366zM384 1664v-128h-256v-256h-128v384h384zM1152 -384h-512v132h512
v-132zM1920 1536h-256v128h384v-384h-128v256zM128 -251h256v-133h-384v389h128v-256zM768 1664h512v-132h-512v132zM132 384h-132v512h132v-512z" />
    <glyph glyph-name="greater" unicode="&#x3e;" horiz-adv-x="1281" 
d="M1024 1152h-768v-1101l384 205l384 -205v1101zM938 1664q124 0 233 -91t109 -210v-1747l-640 384l-640 -384v1747q0 123 85.5 212t205.5 89h647z" />
    <glyph glyph-name="question" unicode="?" horiz-adv-x="2047" 
d="M1026 -74q299 0 512 209q48 48 -202.5 168.5t-1038.5 338.5q0 -295 215 -505.5t514 -210.5zM750 1318q-20 0 -37.5 -16.5t-31 -45.5t-21 -67.5t-7.5 -105.5t28.5 -128.5t68.5 -61.5t69.5 62.5t29.5 128.5t-8 104.5t-21.5 67.5t-31.5 45.5t-38 16.5zM1300 1318
q-20 0 -37.5 -16.5t-31 -45.5t-21.5 -67.5t-8 -104.5t29 -128.5t69 -62.5q66 0 82 84.5t16 128.5t-7.5 82.5t-20.5 67.5t-31.5 45.5t-38.5 16.5zM2048 642q0 -208 -75.5 -394t-221.5 -332q-306 -300 -725 -300q-208 0 -394 77.5t-332 222.5q-145 146 -222.5 332t-77.5 394
q0 419 300 725q146 146 332 221.5t394 75.5q424 0 725 -297q297 -301 297 -725z" />
    <glyph glyph-name="at" unicode="@" horiz-adv-x="2047" 
d="M2048 -256v-128h-1408l256 128h1152zM644 -81q-5 35 -17 62t-28.5 70t-77 99.5t-90.5 66.5t-59 20t-63 10l-59 -61l-71 -186q12 -10 52 -33.5t68 -57.5q65 -63 95 -127l188 72zM1396 1341q27 0 179 -129.5t166 -313.5l-361 -361l-762 -755l-618 -166l172 612l762 755
l355 358h107zM1878 1035q-73 245 -185.5 323.5t-169 99t-88.5 30.5l160 159q47 5 101 -13t82 -34t40.5 -22.5t24.5 -15.5t26 -21t75.5 -73.5t86.5 -175.5q15 -44 10 -94z" />
    <glyph glyph-name="A" unicode="A" horiz-adv-x="2562" 
d="M1353 1152v-578h439v-190h-640v768h201zM1280 1664q279 0 513.5 -138t372.5 -372.5t138 -513.5t-138 -513.5t-372.5 -372.5t-513.5 -138v190q171 0 322.5 64t267.5 180t180 267.5t64 322.5t-64 322.5t-180 267.5t-267.5 180t-322.5 64t-322.5 -64t-267.5 -180
t-180 -267.5t-64 -322.5h264l-388 -512l-322 512h256q0 279 138 513.5t372.5 372.5t513.5 138z" />
    <glyph glyph-name="B" unicode="B" horiz-adv-x="1791" 
d="M1656 -33q0 101 -38.5 201.5t-138 213t-329 185.5t-510.5 73v-385q0 -105 -71 -34l-531 561q-38 36 -38 84t38 84l531 559q35 35 53 24.5t18 -58.5v-451q500 0 763 -146t327 -310.5t64 -272.5q0 -175 -42.5 -297.5t-122.5 -253.5q27 122 27 223z" />
    <glyph glyph-name="C" unicode="C" horiz-adv-x="1791" 
d="M1792 866q0 -48 -38 -84l-530 -561q-70 -70 -70 34v385q-429 0 -665 -136.5t-293 -286t-57 -249.5t10.5 -148.5t16.5 -75.5q-81 133 -122.5 255.5t-41.5 262.5t43 252t156 235t372 199t581 76v451q0 48 17.5 58.5t52.5 -24.5l530 -559q38 -36 38 -84z" />
    <glyph glyph-name="D" unicode="D" horiz-adv-x="2047" 
d="M1466 907q0 155 -117 253q-133 122 -324 122t-322 -118q-101 -86 -119 -239q-2 -9 -2 -27v-54q0 -55 49 -53t77 2t52 8t33 41l7 35q22 96 85 152q62 50 149 50q127 0 164 -63.5t37 -107.5t-26 -76t-128 -116q-101 -85 -138 -152q-33 -69 -33 -164q9 -21 116 -20.5
t116 48.5q14 75 42.5 101t48.5 42q149 125 191 193t42 143zM1152 191q0 27 -19 46t-46 19h-126q-27 0 -46 -19t-19 -46v-126q0 -27 19 -46t46 -19h126q27 0 46 19t19 46v126zM1024 1664q141 0 272 -36.5t244.5 -103.5t207 -160.5t160.5 -207t103.5 -244.5t36.5 -272
t-36.5 -272t-103.5 -244.5t-160.5 -207t-207 -160.5t-244.5 -103.5t-272 -36.5t-272 36.5t-244.5 103.5t-207 160.5t-160.5 207t-103.5 244.5t-36.5 272t36.5 272t103.5 244.5t160.5 207t207 160.5t244.5 103.5t272 36.5z" />
    <glyph glyph-name="E" unicode="E" horiz-adv-x="2047" 
d="M1461 1223q-60 0 -102 -43l-335 -332l-334 332q-42 44 -102 44t-104 -44t-44 -104t45 -101l331 -335l-331 -334q-44 -42 -44.5 -102t43.5 -104t104 -43.5t102 44.5l334 331l335 -331q41 -45 101 -45t104 44t43 104q0 60 -43 102l-332 334l332 335q43 41 43 101t-43 103.5
t-103 43.5zM1024 -384q-132 0 -260 34t-246 100t-218 166t-166 218t-100 246t-34 260t34 260t100 246t166 219t279.5 201.5t444.5 100.5t444.5 -100.5t280.5 -201.5t201.5 -280.5t100.5 -444.5t-100.5 -444.5t-201.5 -279.5t-219 -166t-246 -100t-260 -34z" />
    <glyph glyph-name="F" unicode="F" horiz-adv-x="2047" 
d="M1446 838.5q0 256.5 -182 438.5t-438 182t-438.5 -182t-182.5 -438.5t182.5 -438.5t438.5 -182t438 182t182 438.5zM0 839q0 223 111 413t301 301t413 111t413 -111t301 -301t111 -413q0 -270 -156 -481l91 -94l82 -13l341 -345q37 -36 22.5 -106t-55.5 -111t-113 -56
t-108 23l-341 341l-13 78l-94 95q-211 -156 -481 -156q-223 0 -413 111t-301 301t-111 413z" />
    <glyph glyph-name="G" unicode="G" horiz-adv-x="2047" 
d="M1920 1152h-1792v-1280q4 -69 42 -98.5t86 -29.5h1536q69 4 98.5 42t29.5 86v1280zM1792 1664q122 0 189 -67t67 -189v-1536q0 -122 -67 -189t-189 -67h-1536q-122 0 -189 67t-67 189v1536q0 122 67 189t189 67h128v-129q0 -53 27.5 -80.5t50.5 -37t63.5 -9.5t77.5 37
t37 90v129h768v-129q0 -53 27.5 -80.5t50.5 -37t63.5 -9.5t77.5 37t37 90v129h128zM1659 641q0 -155 -69 -210.5t-92 -71.5l-89 -59l-90 -65q-34 -26 -74 -80h417v-155h-648q0 137 80 239q21 20 53 50.5t144 106.5l61 43q32 15 63 45t47 58t16.5 81.5t-36.5 90.5
q-40 37 -88 37q-87 0 -119 -69q-12 -18 -21 -60t-9 -75h-173q0 165 80 253q76 104 224 104t214 -59t81 -92q28 -66 28 -112zM588 0v582h-226v139q118 0 170 37q33 16 59 57q24 28 35 84h144v-899h-182z" />
    <glyph glyph-name="H" unicode="H" horiz-adv-x="2047" 
d="M1031 1512q-451 0 -639.5 -77t-235.5 -124l53 -42q71 -40 195 -78q256 -78 664 -78t591 76t205 96t28 26q-18 24 -53 41q-35 23 -196 91.5t-612 68.5zM2048 1282v-256q0 -49 -22 -81t-32.5 -46.5t-56.5 -50.5t-141 -77t-215.5 -70t-261.5 -45t-369.5 -16t-477.5 60
t-373 162q-24 13 -39.5 32t-37.5 51t-22 81l44 387q118 133 412 192t502 59t338 -12.5t301.5 -46.5t308 -114t138.5 -173q4 12 4 -36zM1026 445q142 0 272.5 13.5t303 51.5t309.5 126.5t137 195.5v-319q0 -53 -22 -83t-33.5 -46.5t-28.5 -30.5l-11 -3q-194 -156 -483.5 -189
t-519 -33t-478.5 60t-373 162l-15 3q-84 84 -84 160v319q0 -107 175 -219.5t442 -140t409 -27.5zM1026 -68q142 0 272.5 13.5t302 51t309.5 127t138 195.5v-327q0 -102 -173.5 -211.5t-440.5 -137t-408 -27.5t-272.5 13.5t-305 51t-311 123.5t-137.5 188v327
q0 -106 176 -219t442 -140.5t408 -27.5z" />
    <glyph glyph-name="I" unicode="I" horiz-adv-x="2817" 
d="M2432 128v-128q0 -160 -128 -224q-56 -28 -128 -32h-1920q-160 0 -224 128q-28 56 -32 128v1280q11 197 109.5 226.5t146.5 29.5h1280v-128h-1280q-80 0 -112 -64q-14 -28 -16 -64v-1280q0 -80 64 -112q28 -14 64 -16h1920q80 0 112 64q14 28 16 64v128h128zM768 256
q63 365 307 574t496.5 265t476.5 57v512l768 -768l-768 -768v512q-750 -3 -1087 -193q-150 -84 -193 -191z" />
    <glyph glyph-name="J" unicode="J" horiz-adv-x="1536" 
d="M816 48q52 0 111 11q91 27 117.5 58.5t40.5 52.5q21 43 21 115q0 137 -75 197q-84 61 -207 61h-430v-495h422zM795 807q99 0 172 50q68 53 68 169t-83 161q-62 35 -112 37t-77 2h-369v-419h401zM845 1534q130 0 233 -21q217 -54 297 -211q39 -82 39 -180t-14 -155
t-46 -102q-61 -92 -179 -147q159 -47 242 -165t83 -269t-50 -257q-57 -101 -143 -161q-187 -122 -437 -122h-870v1790h845z" />
    <glyph glyph-name="K" unicode="K" horiz-adv-x="638" 
d="M640 1536l-384 -1792h-256l384 1792h256z" />
    <glyph glyph-name="L" unicode="L" horiz-adv-x="1409" 
d="M0 -128h1408v-128h-1408v128zM1408 1536v-896q0 -324 -177 -472q-182 -158 -525 -158q-252 0 -479 110.5t-227 519.5v896h342v-896q0 -241 132 -300q96 -42 226 -42q228 0 293 85q70 81 70 257v896h345z" />
    <glyph glyph-name="M" unicode="M" horiz-adv-x="1920" 
d="M0 -256v256h1280v-256h-1280zM0 256v256h1920v-256h-1920zM1664 1024v-256h-1664v256h1664zM0 1536h1920v-256h-1920v256z" />
    <glyph glyph-name="N" unicode="N" horiz-adv-x="1919" 
d="M1920 -256h-1280v256h1280v-256zM1920 256h-1920v256h1920v-256zM256 1024h1664v-256h-1664v256zM1920 1536v-256h-1920v256h1920z" />
    <glyph glyph-name="O" unicode="O" horiz-adv-x="1919" 
d="M1536 -256h-1152v256h1152v-256zM1920 256h-1920v256h1920v-256zM128 1024h1664v-256h-1664v256zM1920 1536v-256h-1920v256h1920z" />
    <glyph glyph-name="P" unicode="P" horiz-adv-x="2047" 
d="M1710 512q34 0 58 24t24 58v92q0 34 -24 58t-58 24h-558v558q0 34 -24 58t-58 24h-92q-34 0 -58 -24t-24 -58v-558h-558q-34 0 -58 -24t-24 -58v-92q0 -34 24 -58t58 -24h558v-558q0 -34 24 -58t58 -24h92q34 0 58 24t24 58v558h558zM1024 1664q141 0 272 -36.5
t244.5 -103.5t207 -160.5t160.5 -207t103.5 -244.5t36.5 -272t-36.5 -272t-103.5 -244.5t-160.5 -207t-207 -160.5t-244.5 -103.5t-272 -36.5t-272 36.5t-244.5 103.5t-207 160.5t-160.5 207t-103.5 244.5t-36.5 272t36.5 272t103.5 244.5t160.5 207t207 160.5t244.5 103.5
t272 36.5z" />
    <glyph glyph-name="Q" unicode="Q" horiz-adv-x="2047" 
d="M1710 512q34 0 58 24t24 58v92q0 34 -24 58t-58 24h-1372q-34 0 -58 -24t-24 -58v-92q0 -34 24 -58t58 -24h1372zM1024 1664q141 0 272 -36.5t244.5 -103.5t207 -160.5t160.5 -207t103.5 -244.5t36.5 -272t-36.5 -272t-103.5 -244.5t-160.5 -207t-207 -160.5
t-244.5 -103.5t-272 -36.5t-272 36.5t-244.5 103.5t-207 160.5t-160.5 207t-103.5 244.5t-36.5 272t36.5 272t103.5 244.5t160.5 207t207 160.5t244.5 103.5t272 36.5z" />
    <glyph glyph-name="R" unicode="R" horiz-adv-x="1536" 
d="M1536 128h-1536l768 1024z" />
    <glyph glyph-name="S" unicode="S" horiz-adv-x="1536" 
d="M0 1152h1536l-768 -1024z" />
    <glyph glyph-name="T" unicode="T" horiz-adv-x="1026" 
d="M1024 1408v-1536l-1024 768z" />
    <glyph glyph-name="U" unicode="U" horiz-adv-x="1026" 
d="M0 -128v1536l1024 -768z" />
    <glyph glyph-name="V" unicode="V" horiz-adv-x="2047" 
d="M1024 254q80 0 150.5 30t123 82.5t82.5 123t30 150.5t-30 150.5t-82.5 123t-123 82.5t-150.5 30t-150.5 -30t-123 -82.5t-82.5 -123t-30 -150.5t30 -150.5t82.5 -123t123 -82.5t150.5 -30zM1791 640q0 -50 -3 -75l260 -127l-75 -230l-286 48q-48 -77 -91 -123l137 -250
l-199 -144l-201 205q-77 -31 -146 -45l-40 -283h-246l-40 283q-69 14 -146 45l-201 -205l-199 144l137 250q-43 46 -91 123l-286 -48l-75 230l260 127q-3 26 -3 75.5t3 74.5l-260 127l75 230l286 -48q48 77 91 123l-137 250l199 144l201 -205q77 31 146 45l40 283h246
l40 -283q69 -14 146 -45l201 205l199 -144l-137 -250q43 -46 91 -123l286 48l75 -230l-260 -127q3 -25 3 -75z" />
    <glyph glyph-name="W" unicode="W" horiz-adv-x="2434" 
d="M1408 1280q0 159 149 271.5t363 112.5t363 -112.5t149 -271.5t-149 -271.5t-363 -112.5q-104 0 -197 29l-315 -157l96 288q-96 102 -96 224zM1536 -384h-1536v256q110 142 316.5 193t288.5 63v80q-137 95 -179 302q-39 16 -39 26q-3 66 -3 68v36q-4 225 106.5 368.5
t277 143.5t275 -143.5t108.5 -368.5v-22l-1 -42l-2 -40q0 -16 -39 -26q-41 -206 -179 -302v-80q237 -32 395 -113.5t211 -142.5v-256z" />
    <glyph glyph-name="X" unicode="X" horiz-adv-x="2687" 
d="M1920 432q-90 0 -198 147q-29 -1 -61.5 -1t-119.5 -3q50 81 39.5 169.5t-14.5 102.5t-5 20t-3 10.5t-2 6.5t-10 38t-11 99q0 120 65 217.5t171 142.5q28 16 44 19.5t21 5.5l22 1v-1q31 6 94 6t143 -41q47 -24 37 -68q13 3 26 3q68 0 110 -71t42 -185t-35 -207
q-26 -89 -5 -168t39 -107q-134 13 -179 13q-60 -73 -107 -111t-103 -38zM1971 -354h-3q-30 -2 -51 -2h-13q-52 0 -109 4q-10 1 -11.5 10.5t7.5 13.5v1h1q107 45 106 101.5t0 89.5v5l-1 5q0 110 -44.5 234t-87.5 196q81 -24 162 -24q174 0 289 89l9 -4l-1 -1q42 -25 104 -42
l146 -51q64 -21 104 -58q116 -153 134 -374q-1 -38 -9.5 -51.5t-12.5 -14.5q-260 -103 -706 -128l-2 -1q-6 2 -11 2zM923 -378h-3q-51 -3 -59 -3h-15q-13 1 -58 4t-283 26.5t-480 116.5q-5 2 -15 18t-10 36t2 39.5t12 80t53 183.5t100 160.5t89 47.5t122 37t174 72
q131 -94 325 -94t326 101l10 -4l-1 -1q40 -28 76 -36t47 -12l163 -58q77 -25 117 -65t93 -161.5t59 -225.5t-22 -117q-315 -123 -807 -146l-2 -2q-5 3 -13 3zM888 509q-120 0 -228.5 120.5t-132.5 275.5q-1 14 -15 26t-20 55q-23 87 -5 116q22 17 18 38q-33 198 -3 268
q32 100 121 170t117 74.5t37 6.5l3 2l27 1v-3l6 2q4 0 27 3t156 -36l64 -22q121 -36 183 -113q109 -125 46 -356q-4 -12 6 -28q22 -35 -4 -130q-6 -37 -19 -49t-15 -24q-25 -146 -137 -271.5t-232 -125.5z" />
    <glyph glyph-name="Y" unicode="Y" horiz-adv-x="2047" 
d="M896 896h256v-128h-256v-256h-128v256h-256v128h256v256l128 -1v-255zM1455 834q0 258 -183.5 441t-441.5 183t-441 -183t-183 -441t183 -441.5t441 -183.5t441.5 183.5t183.5 441.5zM831 3q-342 0 -542 199t-244.5 358t-44.5 273t30 220.5t112 246t272 252t416 112.5
t416 -111.5t302.5 -302t112.5 -437.5t-157 -464l92 -94l82 -14l343 -346q37 -35 20.5 -122.5t-91 -125.5t-120 -31t-64.5 27l-343 343l-14 79l-94 95q-216 -157 -484 -157z" />
    <glyph glyph-name="Z" unicode="Z" horiz-adv-x="2047" 
d="M512 768v128h640v-128h-640zM1455 834q0 258 -183.5 441t-441.5 183t-441 -183t-183 -441t183 -441.5t441 -183.5t441.5 183.5t183.5 441.5zM831 3q-342 0 -542 199t-244.5 358t-44.5 273t30 220.5t112 246t272 252t416 112.5t416 -111.5t302.5 -302t112.5 -437.5
t-157 -464l92 -94l82 -14l343 -346q37 -35 20.5 -122.5t-91 -125.5t-120 -31t-64.5 27l-343 343l-14 79l-94 95q-216 -157 -484 -157z" />
    <glyph glyph-name="bracketleft" unicode="[" horiz-adv-x="1536" 
d="M318 768h900v262q0 184 -130 314t-314 130h-12q-184 0 -314 -130t-130 -314v-262zM1536 629v-884q0 -54 -37.5 -91.5t-91.5 -37.5h-1278q-54 0 -91.5 37.5t-37.5 91.5v884q0 87 64 122q28 15 64 17v262q0 131 50 246.5t136 201.5t201.5 136t246.5 50h12q131 0 246.5 -50
t201.5 -136t136 -201.5t50 -246.5v-262q70 -4 99 -45.5t29 -93.5z" />
    <glyph glyph-name="backslash" unicode="\" horiz-adv-x="1536" 
d="M1536 629v-884q0 -54 -37.5 -91.5t-91.5 -37.5h-1278q-54 0 -91.5 37.5t-37.5 91.5v884q0 87 64 122q28 15 64 17v262q0 131 50 246.5t136 201.5t201.5 136t246.5 50h12q131 0 246.5 -51t201.5 -138t136 -203.5t50 -247.5h-190q0 190 -130 320t-314 130h-12
q-184 0 -314 -130t-130 -314v-262h1090q70 -4 99 -45.5t29 -93.5z" />
    <glyph glyph-name="bracketright" unicode="]" horiz-adv-x="2047" 
d="M1152 1216q0 26 -19 45t-45 19h-128q-26 0 -45 -19t-19 -45v-128q0 -26 19 -45t45 -19h128q26 0 45 19t19 45v128zM1152 704q0 26 -19 45t-45 19h-320v-128h128v-512h-128v-128h320q26 0 45 19t19 45v640zM2048 640q0 -278 -137.5 -513.5t-373 -373t-513.5 -137.5
t-513.5 137.5t-373 373t-137.5 513.5t137.5 513.5t373 373t513.5 137.5t513.5 -137.5t373 -373t137.5 -513.5z" />
    <glyph glyph-name="asciicircum" unicode="^" horiz-adv-x="2302" 
d="M2048 -128v640h-768v-640h768zM256 -128h768v640h-768v-640zM256 1408v-640h768v640h-768zM2048 1408h-768v-640h768v640zM2197 1664q45 0 76 -29t31 -74v-1838q0 -44 -31.5 -75.5t-75.5 -31.5h-2090q-44 0 -75.5 31.5t-31.5 75.5v1838q0 45 31 74t76 29h2090z" />
    <glyph glyph-name="underscore" unicode="_" horiz-adv-x="2174" 
d="M2048 1536h-384v-256h384v256zM2048 1152h-384v-256h384v256zM2048 768h-384v-256h384v256zM2048 384h-384v-256h384v256zM2048 0h-384v-256h384v256zM1536 1536h-384v-256h384v256zM1536 1152h-384v-256h384v256zM1536 768h-384v-256h384v256zM1536 384h-384v-256h384
v256zM1536 0h-384v-256h384v256zM1024 1536h-384v-256h384v256zM1024 1152h-384v-256h384v256zM1024 768h-384v-256h384v256zM1024 384h-384v-256h384v256zM1024 0h-384v-256h384v256zM512 1536h-384v-256h384v256zM512 1152h-384v-256h384v256zM512 768h-384v-256h384v256z
M512 384h-384v-256h384v256zM512 0h-384v-256h384v256zM2048 1664q45 0 86.5 -41.5t41.5 -86.5v-1792q0 -45 -41.5 -86.5t-86.5 -41.5h-1920q-80 0 -112 64q-14 28 -16 64v1792q0 45 41.5 86.5t86.5 41.5h1920z" />
    <glyph glyph-name="grave" unicode="`" 
d="M350 280h300q0 -62 -44 -106t-106 -44t-106 44t-44 106zM581 380q-13 0 -21.5 9t-8.5 21v20q0 12 8.5 21t21.5 9h19q13 0 21.5 -9t8.5 -21v-20q0 -12 -8.5 -21t-21.5 -9h-19zM401 380q-13 0 -21.5 9t-8.5 21v20q0 12 8.5 21t21.5 9h19q13 0 21.5 -9t8.5 -21v-20
q0 -12 -8.5 -21t-21.5 -9h-19zM710 540q0 12 -9 21t-21 9h-360q-13 0 -21.5 -9t-8.5 -21v-450q0 -13 8.5 -21.5t21.5 -8.5h360q12 0 21 8.5t9 21.5v450zM680 630q38 0 64 -26t26 -64v-450q0 -38 -26 -64t-64 -26h-360q-38 0 -64 26t-26 64v450q0 38 26 64t64 26h360z" />
    <glyph glyph-name="a" unicode="a" horiz-adv-x="2302" 
d="M1792 256v384h-256v-384h-256l384 -384l384 384h-256zM1664 896q88 0 170 -23t153 -64.5t129.5 -100t100 -129.5t64.5 -153t23 -170t-23 -170t-64.5 -153t-100 -129.5t-129.5 -100t-153 -64.5t-170 -23t-170 23t-153 64.5t-129.5 100t-100 129.5t-64.5 153t-23 170
t23 170t64.5 153t100 129.5t129.5 100t153 64.5t170 23zM1792 1536v-384h-128v384h-1536v-1792h896v-128l-896 -6q-80 0 -102 46t-24 67l-3 21v1792q16 127 129 127l1536 1q69 -4 98.5 -42t29.5 -86z" />
    <glyph glyph-name="b" unicode="b" horiz-adv-x="2562" 
d="M2106 640q0 168 -66 321q-131 308 -439 439q-153 66 -321 66t-321 -66q-307 -131 -440 -439q-65 -154 -65 -321t65 -321q133 -308 440 -439q153 -66 321 -66v-198q-208 0 -398 82q-380 163 -545 544q-81 190 -81 398t82 398q164 382 544 544q189 82 398 82t397 -82
q382 -163 545 -545q82 -188 82 -397h256l-384 -512l-384 512h314z" />
    <glyph glyph-name="c" unicode="c" horiz-adv-x="1794" 
d="M1408 640h-1024v128h1024v-128zM1664 1536h-1536v-1280h512v-512h1024v1792zM1664 1664q80 0 112 -64q14 -28 16 -64v-1792q-4 -69 -42 -98.5t-86 -29.5h-1536q-80 0 -112 64q-14 28 -16 64v1792q4 69 42 98.5t86 29.5h1536zM1408 1024h-1024v128h1024v-128z" />
    <glyph glyph-name="d" unicode="d" horiz-adv-x="2047" 
d="M896 -256l-896 896l896 896v-1792zM1152 1536l896 -896l-896 -896v1792z" />
    <glyph glyph-name="e" unicode="e" horiz-adv-x="1791" 
d="M0 768l896 896l896 -896h-1792zM1792 512l-896 -896l-896 896h1792z" />
    <glyph glyph-name="f" unicode="f" horiz-adv-x="1791" 
d="M896 -256q242 0 412 196q229 262 284 610t67 501q-509 124 -763 364q-169 -160 -488 -280q-131 -49 -275 -84q61 -779 363 -1125q158 -182 400 -182zM896 1664q0 -82 148.5 -210t382 -201.5t365.5 -100.5q-25 -556 -195 -977t-381 -490t-320 -69t-201 30t-262.5 149.5
t-312.5 588.5q-101 338 -120 768q384 78 595 204.5t256 196.5t45 111zM896 512h467q-62 -244 -203 -394q-168 -161 -264 -161v555zM896 512h-477q-9 29 -21 115.5t-19 123.5t-21 154q71 21 122 44t171.5 71t212.5 110l32 22v-640z" />
    <glyph glyph-name="g" unicode="g" horiz-adv-x="2047" 
d="M1856 512q80 0 136 -56t56 -136t-56 -136t-136 -56h-192v-471q0 -17 -12 -29t-29 -12h-599v192q0 80 -56 136t-136 56t-136 -56t-56 -136v-192h-599q-17 0 -29 12t-12 29v471h192q80 0 136 56t56 136t-56 136t-136 56h-192v727q0 17 12 29t29 12h599v192q0 80 56 136
t136 56t136 -56t56 -136v-192h599q17 0 29 -12t12 -29v-727h192z" />
    <glyph glyph-name="h" unicode="h" horiz-adv-x="2690" 
d="M1664 1280h-1408v-1280h1408v1280zM2688 1408v-1536q-4 -69 -42 -98.5t-86 -29.5h-2432q-69 4 -98.5 42t-29.5 86v1536q0 80 64 112q28 14 64 16h2432q69 -4 98.5 -42t29.5 -86z" />
    <glyph glyph-name="i" unicode="i" horiz-adv-x="2690" 
d="M1024 0h1408v1280h-1408v-1280zM0 -128v1536q4 69 42 98.5t86 29.5h2432q69 -4 98.5 -42t29.5 -86v-1536q0 -80 -64 -112q-28 -14 -64 -16h-2432q-69 4 -98.5 42t-29.5 86z" />
    <glyph glyph-name="j" unicode="j" horiz-adv-x="2690" 
d="M256 512h2176v768h-2176v-768zM0 -128v1536q4 69 42 98.5t86 29.5h2432q69 -4 98.5 -42t29.5 -86v-1536q0 -80 -64 -112q-28 -14 -64 -16h-2432q-69 4 -98.5 42t-29.5 86z" />
    <glyph glyph-name="k" unicode="k" horiz-adv-x="2690" 
d="M256 0h2176v768h-2176v-768zM0 -128v1536q4 69 42 98.5t86 29.5h2432q69 -4 98.5 -42t29.5 -86v-1536q0 -80 -64 -112q-28 -14 -64 -16h-2432q-69 4 -98.5 42t-29.5 86z" />
    <glyph glyph-name="l" unicode="l" horiz-adv-x="2945" 
d="M2432 1280h-242q0 115 19 178t34 106.5t64 99.5q-71 -9 -137 -127t-109 -248l-267 -1292q-54 -165 -91 -229t-79 -106t-76 -46q-51 55 -68 93q-25 37 -36 93q-14 37 -14 92v78q0 77 -17 101q-32 46 -111 55h-913l217 1161q76 222 172 329q37 41 75 46h1454q77 0 109 -190
q16 -93 16 -194zM2944 512l-640 -512v1024zM242 -384q-89 0 -139 55t-71 120q-32 76 -32 209h1280q0 -146 42 -227t94 -114q53 -38 132 -43h-1306z" />
    <glyph glyph-name="m" unicode="m" horiz-adv-x="2047" 
d="M2029 1152q0 -19 -14 -33l-1214 -1214q-14 -14 -33 -14t-33 14l-702 702q-14 14 -14 33t14 33l190 190q14 14 33 14t33 -14l479 -479l991 991q14 14 33 14t33 -14l190 -190q14 -14 14 -33z" />
    <glyph glyph-name="n" unicode="n" horiz-adv-x="2047" 
d="M1664 512h-512v-512h256l-384 -384l-384 384h256v512h-512v-256l-384 384l384 384v-256h512v512h-256l384 384l384 -384h-256v-512h512v256l384 -384l-384 -384v256z" />
    <glyph glyph-name="o" unicode="o" horiz-adv-x="1791" 
d="M0 0v256h1792v-256h-1792zM0 768h1792v-256h-1792v256zM0 1280h1792v-256h-1792v256z" />
    <glyph glyph-name="p" unicode="p" horiz-adv-x="1794" 
d="M1664 1024h-512v512h-1020q-4 0 -4 -4v-1784q0 -4 4 -4h1528q4 0 4 4v1276zM1792 -252q0 -54 -39 -93t-93 -39h-1528q-54 0 -93 39t-39 93v1784q0 54 39 93t93 39h1148l512 -512v-1404z" />
    <glyph glyph-name="q" unicode="q" horiz-adv-x="2047" 
 />
    <glyph glyph-name="r" unicode="r" horiz-adv-x="2302" 
d="M640 256v128h1025v-3l-1 -125h-1024zM640 128h1024v-128l-1024 -1v129zM1665 640v-128h-1025v128h1025zM1920 -256v1024h-1536v-1024h1536zM262 1276q52 0 89 37.5t37 92.5t-37 90t-89 35t-90.5 -35.5t-38.5 -75.5t10.5 -64t38.5 -52t80 -28zM516 1420q0 -41 9.5 -65
t27 -41.5t41 -27.5t64 -10t76.5 37.5t36 78.5t-9.5 64t-36.5 49t-80.5 26t-90.5 -35t-37 -76zM2304 1536v-640q0 -75 -41 -102.5t-87 -27.5h-128v-1022q0 -80 -64 -112q-28 -14 -64 -16h-1536q-79 0 -103.5 40t-24.5 88v1024l-128 -2q-41 0 -84.5 45t-43.5 85v640
q0 43 44.5 85.5t83.5 42.5h2048l3 -4q38 0 81.5 -41.5t43.5 -82.5z" />
    <glyph glyph-name="s" unicode="s" horiz-adv-x="2047" 
d="M0 -384v688q0 22 20.5 30.5t36.5 -7.5l199 -199l211 211q19 19 45 19t45 -19l166 -166q19 -19 19 -45t-19 -45l-211 -211l199 -199q16 -16 7.5 -36.5t-30.5 -20.5h-688zM1360 1664h688v-688q0 -22 -20.5 -30.5t-36.5 7.5l-199 199l-211 -211q-19 -19 -45 -19t-45 19
l-166 166q-19 19 -19 45t19 45l211 211l-199 199q-16 16 -7.5 36.5t30.5 20.5z" />
    <glyph glyph-name="t" unicode="t" horiz-adv-x="1791" 
d="M80 512h688v-688q0 -22 -21 -30t-36 7l-199 199l-211 -211q-19 -19 -45 -19t-45 19l-166 166q-19 19 -19 45t19 45l211 211l-199 199q-15 17 -7 37t30 20zM1024 768v688q0 22 21 30t36 -7l199 -199l211 211q19 19 45 19t45 -19l166 -166q19 -19 19 -45t-19 -45l-211 -211
l199 -199q16 -17 8 -37t-31 -20h-688z" />
    <glyph glyph-name="u" unicode="u" horiz-adv-x="2817" 
d="M768 768v-512h384v512h-384zM2560 384h256v-640h-256v384h-256v-384h-256v256h-1280v-256h-256v384h-256v-384h-256v640h256v256h256v640h256v256h256v-256h768v256h256v-256h256v-640h256v-256z" />
    <glyph glyph-name="v" unicode="v" horiz-adv-x="1919" 
d="M1655 -59q25 0 47.5 9.5t39 26t26 38.5t9.5 47t-9.5 47t-26 38.5t-39 26t-47.5 9.5t-47 -9.5t-38.5 -26t-26 -38.5t-9.5 -47t9.5 -47t26 -38.5t38.5 -26t47 -9.5zM1859 256q26 0 43.5 -17.5t17.5 -43.5v-269q0 -26 -17.5 -43.5t-43.5 -17.5h-1798q-26 0 -43.5 17.5
t-17.5 43.5v269q0 26 17.5 43.5t43.5 17.5h1798zM1655 520q25 0 47.5 9.5t39 26t26 38.5t9.5 47t-9.5 47.5t-26 39t-39 26t-47.5 9.5t-47 -9.5t-38.5 -26t-26 -39t-9.5 -47.5t9.5 -47t26 -38.5t38.5 -26t47 -9.5zM1859 836q26 0 43.5 -18t17.5 -43v-270q0 -25 -17.5 -43
t-43.5 -18h-1798q-26 0 -43.5 18t-17.5 43v270q0 25 17.5 43t43.5 18h1798zM1655 1094q25 0 47.5 9.5t39 26t26 38.5t9.5 47t-9.5 47t-26 38.5t-39 26t-47.5 9.5t-47 -9.5t-38.5 -26t-26 -38.5t-9.5 -47t9.5 -47t26 -38.5t38.5 -26t47 -9.5zM1859 1409q26 0 43.5 -17.5
t17.5 -43.5v-263q0 -26 -17.5 -43.5t-43.5 -17.5h-1798q-26 0 -43.5 17.5t-17.5 43.5v263q0 26 17.5 43.5t43.5 17.5h1798z" />
    <glyph glyph-name="w" unicode="w" horiz-adv-x="2047" 
d="M1920 640h-384v-256q-4 -69 -42 -98.5t-86 -29.5h-768v-384q0 -48 2 -74t14 -38t38 -14t74 -2h1024q48 0 74 2t38 14t14 38t2 74v768zM1408 512v768h-1280v-782q0 -43 2 -66t15.5 -35t110.5 -12l1024 -1q48 0 74 2t38 14t14 38t2 74zM192 1536q-26 0 -45 -19t-19 -45
t19 -45t45 -19t45 19t19 45t-19 45t-45 19zM448 1536q-26 0 -45 -19t-19 -45t19 -45t45 -19t45 19t19 45t-19 45t-45 19zM2048 896v-1152q0 -81 -64 -113q-28 -14 -64 -15h-1280q-80 0 -112 64q-14 28 -16 64v512h-384q-80 0 -112 64q-14 28 -16 64v1152q0 80 64 112
q28 14 64 16h1280q69 -4 98.5 -42t29.5 -86l2 -512h382q69 -4 98.5 -42t29.5 -86z" />
    <glyph glyph-name="x" unicode="x" horiz-adv-x="1664" 
d="M1280 128h-512v256h512v-256zM1280 640h-512v256h512v-256zM512 128q-27 0 -50 10t-40.5 27.5t-27.5 40.5t-10 50t10 50t27.5 40.5t40.5 27.5t50 10t50 -10t40.5 -27.5t27.5 -40.5t10 -50t-10 -50t-27.5 -40.5t-40.5 -27.5t-50 -10zM512 640q-27 0 -50 10t-40.5 27.5
t-27.5 40.5t-10 50t10 50t27.5 40.5t40.5 27.5t50 10t50 -10t40.5 -27.5t27.5 -40.5t10 -50t-10 -50t-27.5 -40.5t-40.5 -27.5t-50 -10zM1536 1280h-1408v-1536h1408v1536zM1664 1408v-1664q0 -42 -45 -85t-83 -43h-1408q-41 0 -84.5 43.5t-43.5 84.5v1664h128q38 0 83 43
t45 85v128h1152v-128q0 -41 43.5 -84.5t84.5 -43.5h128z" />
    <glyph glyph-name="y" unicode="y" horiz-adv-x="1794" 
d="M923 -378h-3q-51 -3 -59 -3h-15q-13 1 -58 4t-283 26.5t-480 116.5q-5 2 -15 18t-10 36t2 39.5t12 80t53 183.5t100 160.5t89 47.5t122 37t174 72q131 -94 325 -94t326 101l10 -4l-1 -1q40 -28 76 -36t47 -12l163 -58q77 -25 117 -65t93 -161.5t59 -225.5t-22 -117
q-315 -123 -807 -146l-2 -2q-5 3 -13 3zM888 509q-120 0 -228.5 120.5t-132.5 275.5q-1 14 -15 26t-20 55q-23 87 -5 116q22 17 18 38q-33 198 -3 268q32 100 121 170t117 74.5t37 6.5l3 2l27 1v-3l6 2q4 0 27 3t156 -36l64 -22q121 -36 183 -113q109 -125 46 -356
q-4 -12 6 -28q22 -35 -4 -130q-6 -37 -19 -49t-15 -24q-25 -146 -137 -271.5t-232 -125.5z" />
    <glyph glyph-name="z" unicode="z" horiz-adv-x="2047" 
d="M515 1407q-104 0 -176 -72q-71 -75 -71 -178t71 -175t175.5 -72.5t176.5 72.5t72 175t-72 176t-176 74zM2048 531q0 -84 -61 -147l-706 -706q-61 -61 -147.5 -61t-147.5 61l-964 982q-22 22 -22 39v912q0 21 16 37t44 16h912q31 0 42 -11l973 -973q61 -65 61 -149z" />
    <glyph glyph-name="braceleft" unicode="{" horiz-adv-x="2047" 
d="M706 28q122 0 207 85.5t85 206t-85 207t-207 86.5t-207.5 -86.5t-85.5 -207t85.5 -206t207.5 -85.5zM1099 670q27 -27 64 -84l198 33l50 -161l-178 -88v-100l178 -88l-50 -161l-198 34q-37 -57 -64 -84l94 -172l-134 -101l-141 141q-47 -20 -101 -30l-27 -195h-168
l-27 195q-56 11 -101 30l-141 -141l-134 101l94 172q-27 27 -64 84l-199 -34l-50 161l178 88v100l-178 88l50 161l199 -33q37 57 64 84l-94 171l134 101l141 -141q45 19 101 30l27 195h168l27 -195q54 -10 101 -30l141 141l134 -101zM1603 1030q39 0 72.5 14.5t59 40
t40 59.5t14.5 73t-14.5 72.5t-40 59t-59 40t-72.5 14.5t-73 -14.5t-59.5 -40t-40 -59t-14.5 -72.5t14.5 -73t40 -59.5t59.5 -40t73 -14.5zM1892 1047q-23 -37 -40 -53l60 -110l-86 -64l-87 90q-15 -5 -32 -11t-34 -9l-17 -123h-107l-20 123q-15 3 -31.5 9t-31.5 11l-87 -90
l-90 64l60 110l-40 53l-123 -20l-33 100l113 57v66l-113 54l33 103l123 -24l40 57l-60 110l90 63l87 -90l63 20l20 124h107l17 -124l66 -20l87 90l86 -63l-60 -110q21 -21 40 -57l127 24l33 -103l-113 -54v-66l113 -57l-33 -100z" />
    <glyph glyph-name="bar" unicode="|" horiz-adv-x="2047" 
d="M1848 343q59 62 118 40t81 -81t-40 -118l-423 -423q-10 -12 -12 -12.5t-18 -18.5t-67 -15t-88 40l-205 205q-57 57 -37.5 117t65.5 76.5t81 0.5t53 -35l134 -130zM823 512q46 0 59.5 -29.5t13.5 -44.5v-752q0 -29 -22 -49.5t-51 -20.5h-752q-29 0 -50 20.5t-21 49.5v752
q0 48 28.5 61t42.5 13h752zM1978 1664q29 0 49.5 -21t20.5 -50v-752q0 -29 -20.5 -51t-49.5 -22h-752q-47 0 -60.5 29t-13.5 44v752q0 44 29.5 57.5t44.5 13.5h752zM823 1664q47 0 60 -28.5t13 -42.5v-752q0 -29 -22 -51t-51 -22h-752q-28 0 -49.5 21.5t-21.5 51.5v752
q0 29 21 50t50 21h752z" />
    <glyph glyph-name="braceright" unicode="}" horiz-adv-x="2047" 
d="M1922 1305q29 29 31.5 65t-21.5 60t-62 22.5t-65 -28.5l-258 -262l-97 97q-27 27 -63 29t-60 -22t-22.5 -60t28.5 -63l149 -149q62 -67 132 3zM1977 1664q28 0 49.5 -25t21.5 -56v-747q0 -29 -21 -48.5t-50 -19.5h-747q-50 0 -64 26.5t-14 41.5v747q0 50 31.5 65.5
t46.5 15.5h747zM774 156q45 48 30 89.5t-59 58t-88 -27.5l-259 -262l-97 97q-64 64 -122.5 6t6.5 -123l148 -148q27 -27 63 -29t70 32zM828 512q46 0 57 -31.5t11 -46.5v-747q0 -29 -19.5 -50t-48.5 -21h-747q-50 0 -65.5 28t-15.5 43v747q0 30 25.5 54t55.5 24h747z
M774 1305q29 29 31.5 65t-21.5 60t-62 22.5t-65 -28.5l-259 -262l-97 97q-43 43 -96 24.5t-50 -67t30 -73.5l148 -149q27 -27 63 -29t60 23zM828 1664q45 0 56.5 -33t11.5 -48v-747q0 -29 -19.5 -48.5t-48.5 -19.5h-747q-51 0 -66 26.5t-15 41.5v747q0 30 25.5 55.5
t55.5 25.5h747zM1920 384h-640v-640h640v640zM1977 512q28 0 49.5 -23.5t21.5 -54.5v-747q0 -29 -21 -50t-50 -21h-747q-49 0 -63.5 28t-14.5 43v747q0 49 31.5 63.5t46.5 14.5h747z" />
    <glyph glyph-name="asciitilde" unicode="~" horiz-adv-x="2434" 
d="M1408 318h640v-190h-640v190zM1408 1152h640v-190h-640v190zM1408 735h640v-190h-640v190zM2304 1280q0 48 -0.5 74t-12 38t-38 14t-77.5 2h-896q-48 0 -74 -2t-38 -14t-14 -38t-2 -74v-1280q0 -48 2 -74t14 -38t38 -14t74 -2h896q48 0 74 2t38 14t14 38t2 74v1280z
M768 1408q-48 0 -71.5 -2t-33 -14t-9 -38t0.5 -74l-1 -1317q-2 -91 114 -91h256q-2 7 -2 12l2 116v1280l-1 60q-1 61 1 68h-256zM256 1408q-48 0 -74 -2t-38 -14t-14 -38t-2 -74v-1280q0 -48 2 -74t14 -38t38 -14t74 -2h256q-2 7 -2 10l2 102v1260l-1 78q-1 79 1 86h-256z
M2304 1536q80 0 112 -64q14 -28 16 -64v-1536q-4 -69 -42 -98.5t-86 -29.5h-2176q-132 0 -128 128v1536q4 69 42 98.5t86 29.5h2176z" />
    <glyph glyph-name="uni00A0" unicode="&#xa0;" horiz-adv-x="500" 
 />
    <glyph glyph-name="exclamdown" unicode="&#xa1;" horiz-adv-x="766" 
d="M0 -384v2048h384v-512l384 256v-512l-384 256v-1536h-384z" />
    <glyph glyph-name="cent" unicode="&#xa2;" horiz-adv-x="1536" 
d="M284 -384q-165 0 -240 129q-33 57 -43 130v1250q0 39 23.5 67.5t61.5 28.5t65.5 -28.5t27.5 -67.5v-461l116 18v778q0 38 23.5 65t61.5 27t65 -26.5t27 -65.5v-656l137 21v744q0 42 22 69t60 27t65 -27.5t27 -68.5v-758l140 -10v659q0 62 36.5 77t65.5 15t52.5 -27
t23.5 -65v-990q8 -24 20 17l82 174q57 129 144.5 160t149.5 -11t31 -94q-56 -72 -75.5 -122t-44 -161t-59.5 -223q-146 -473 -337 -594h-728z" />
    <glyph glyph-name="sterling" unicode="&#xa3;" horiz-adv-x="1665" 
d="M1336 1408h-1008v-137q8 -115 56 -247h896q49 124 56 253v131zM683 624q0 -58 -37 -116t-103 -92q-12 0 -52.5 -32t-67.5 -60t-52.5 -95t-35.5 -158l498 185l499 -191q-25 194 -100 269q-42 40 -111 82q-66 34 -103 92t-37 116t43 144l-188 -99l-196 99q43 -86 43 -144z
M1664 1408h-128q12 -275 -48 -415t-102 -182q-81 -80 -174 -132q-37 -20 -37 -45.5t31 -42.5q90 -50 166 -120q170 -174 164 -599h128v-256h-1664v256h128q-7 322 80 477t244 239q85 46 0.5 91t-172.5 131t-124 258t-28 340h-128v256h1664v-256z" />
    <glyph glyph-name="yen" unicode="&#xa5;" horiz-adv-x="2050" 
d="M512 640q0 -50 -21 -96.5t-56.5 -82t-82 -56.5t-96.5 -21t-96.5 21t-82 56.5t-56.5 82t-21 96.5t21 96.5t56.5 82t82 56.5t96.5 21t96.5 -21t82 -56.5t56.5 -82t21 -96.5zM1536 640q0 50 21 96.5t56.5 82t82 56.5t96.5 21t96.5 -21t82 -56.5t56.5 -82t21 -96.5t-21 -96.5
t-56.5 -82t-82 -56.5t-96.5 -21t-96.5 21t-82 56.5t-56.5 82t-21 96.5zM1280 640q0 -50 -21 -96.5t-56.5 -82t-82 -56.5t-96.5 -21t-96.5 21t-82 56.5t-56.5 82t-21 96.5t21 96.5t56.5 82t82 56.5t96.5 21t96.5 -21t82 -56.5t56.5 -82t21 -96.5z" />
    <glyph glyph-name="section" unicode="&#xa7;" horiz-adv-x="1665" 
d="M1249.5 1277q-42.5 0 -87.5 -43l-329 -327l-327 327q-43 43 -86.5 43t-70 -11t-57.5 -42t-31 -92t41 -100l329 -330l-329 -329q-41 -41 -41 -85t10 -70t42 -58t91 -32t102 43l327 327l329 -327q45 -43 102.5 -43t99.5 42t42.5 101.5t-39.5 101.5l-329 329l329 330
q40 40 40 100t-31 92t-57.5 42.5t-69 10.5zM1408 1536q160 0 224 -128q28 -56 32 -128v-1152q0 -160 -128 -224q-56 -28 -128 -32h-384l-190 -256l-194 256h-384q-160 0 -224 128q-28 56 -32 128v1152q11 197 109.5 226.5t146.5 29.5h1152z" />
    <glyph glyph-name="dieresis" unicode="&#xa8;" horiz-adv-x="2050" 
d="M1998 0h-1436q-20 0 -35 15t-15 35v156q0 20 15 35t35 15h1436q20 0 35 -15t15 -35v-156q0 -20 -15 -35t-35 -15zM1486 512h-924q-20 0 -35 15t-15 35v156q0 20 15 35t35 15h924q20 0 35 -15t15 -35v-156q0 -20 -15 -35t-35 -15zM1742 1024h-1180q-20 0 -35 15t-15 35
v156q0 20 15 35t35 15h1180q20 0 35 -15t15 -35v-156q0 -20 -15 -35t-35 -15zM206 0h-156q-20 0 -35 15t-15 35v156q0 20 15 35t35 15h156q20 0 35 -15t15 -35v-156q0 -20 -15 -35t-35 -15zM206 512h-156q-20 0 -35 15t-15 35v156q0 20 15 35t35 15h156q20 0 35 -15t15 -35
v-156q0 -20 -15 -35t-35 -15zM206 1024h-156q-20 0 -35 15t-15 35v156q0 20 15 35t35 15h156q20 0 35 -15t15 -35v-156q0 -20 -15 -35t-35 -15z" />
    <glyph glyph-name="copyright" unicode="&#xa9;" horiz-adv-x="2050" 
d="M2049 986l-523 -361l179 -608l-273 104l-917 338l-300 -843l-214 79l699 1970l215 -81l-56 -156z" />
    <glyph glyph-name="ordfeminine" unicode="&#xaa;" horiz-adv-x="1022" 
d="M97 640h830v927h-830v-927zM0 1664h1024v-2048h-1024v2048z" />
    <glyph glyph-name="guillemotleft" unicode="&#xab;" horiz-adv-x="2179" 
d="M1536 1408q0 48 -2 74t-14 38t-38 14t-74 2h-1152q-48 0 -74 -2t-38 -14t-14 -38t-2 -74v-1536q0 -48 2 -74t14 -38t38 -14t74 -2h1152q48 0 74 2t38 14t14 38t2 74v1024q-218 -61 -478 -321l200 -248q29 -29 20.5 -50t-52.5 -21h-586q-96 0 -110 13.5t-16 38.5t-2 72
v718q0 44 21 52.5t50 -20.5l230 -270q283 283 723 292v256zM1664 922v-1178q-6 -70 -43.5 -99t-84.5 -29h-1408q-70 6 -99 43.5t-29 84.5v1792q4 69 42 98.5t86 29.5h1408q79 0 111 -64q14 -28 17 -64v-384q184 0 348 -117t164 -395q-112 196 -249 239t-263 43z" />
    <glyph glyph-name="logicalnot" unicode="&#xac;" horiz-adv-x="3073" 
d="M1488 -119.5q-65 29.5 -82 67t-18 77.5t42 83t542 351q-309 -501 -357 -549q-62 -59 -127 -29.5zM1536 1408q416 0 769 -207t560 -560t207 -769h-288q0 214 -114 475q-93 225 -265 391q-166 172 -391 265q-221 96 -536.5 96t-518.5 -137t-287 -224q-173 -167 -264 -391
q-120 -280 -120 -475h-288q0 416 207 769t560 560t769 207z" />
    <glyph glyph-name="registered" unicode="&#xae;" horiz-adv-x="2050" 
d="M1600 1024q40 0 75 15t61 41t41 61t15 75t-15 75t-41 61t-61 41t-75 15t-75 -15t-61 -41t-41 -61t-15 -75t15 -75t41 -61t61 -41t75 -15zM1397 384q-99 0 -207 38l-38 -38h-256v-256h-256v-256h-256v-256h-384v384l806 806q-38 108 -38 207t23 181t64.5 153t100 129.5
t129.5 100t153 64.5t170 23t170 -23t153 -64.5t129.5 -100t100 -129.5t64.5 -153t23 -170t-23 -170t-64.5 -153t-100 -129.5t-129.5 -100t-153 -64.5t-181 -23z" />
    <glyph glyph-name="macron" unicode="&#xaf;" horiz-adv-x="2050" 
d="M2048 1088q0 -80 -56 -136l-695 -679l-272 -271l-272 271l-697 679q-56 56 -56 136t56 136t136 56t136 -56l697 -679l695 679q56 56 136 56t136 -56t56 -136z" />
    <glyph glyph-name="degree" unicode="&#xb0;" horiz-adv-x="2050" 
d="M768 1024l640 -384l-640 -384v768zM1850 640q0 168 -66 321q-131 308 -439 439q-153 66 -321 66t-321 -66q-307 -131 -440 -439q-65 -154 -65 -321t65 -321q133 -308 440 -439q153 -66 321 -66t321 66q308 131 439 439q66 153 66 321zM2048 640.5q0 -208.5 -82 -398.5
q-164 -382 -545 -544q-188 -82 -396.5 -82t-398.5 82q-380 163 -545 544q-81 190 -81 398t82 398q164 382 544 544q189 82 398 82t397 -82q382 -163 545 -545q82 -188 82 -396.5z" />
    <glyph glyph-name="plusminus" unicode="&#xb1;" horiz-adv-x="2050" 
d="M768 1152h-640v-256h640v256zM768 768h-640v-256h640v256zM768 384h-640v-256h640v256zM768 0h-640v-256h640v256zM896 896h640v256h-640v-256zM896 512h128v-128h-128v-256h128v-128h-128v-256h128v-128h-896q-70 6 -99 43.5t-29 84.5v1792q6 70 43.5 99t84.5 29h1408
q75 0 110 -64q15 -28 18 -64l2 -896h-130v128h-640v-256zM1360 95q-6 0 -11 -5l-60 -60q-9 -11 0 -21l222 -222q5 -5 10.5 -5t10.5 5l384 384q9 10 0 21l-60 60q-11 9 -21 0l-313 -313l-152 151q-4 5 -10 5zM2048 512v-896h-896v896h896z" />
    <glyph glyph-name="acute" unicode="&#xb4;" horiz-adv-x="1000" 
d="M350 280h300q0 -62 -44 -106t-106 -44t-106 44t-44 106zM581 380q-13 0 -21.5 9t-8.5 21v20q0 12 8.5 21t21.5 9h19q13 0 21.5 -9t8.5 -21v-20q0 -12 -8.5 -21t-21.5 -9h-19zM401 380q-13 0 -21.5 9t-8.5 21v20q0 12 8.5 21t21.5 9h19q13 0 21.5 -9t8.5 -21v-20
q0 -12 -8.5 -21t-21.5 -9h-19zM710 540q0 12 -9 21t-21 9h-360q-13 0 -21.5 -9t-8.5 -21v-450q0 -13 8.5 -21.5t21.5 -8.5h360q12 0 21 8.5t9 21.5v450zM680 630q38 0 64 -26t26 -64v-450q0 -38 -26 -64t-64 -26h-360q-38 0 -64 26t-26 64v450q0 38 26 64t64 26h360z" />
    <glyph glyph-name="mu" unicode="&#xb5;" horiz-adv-x="2050" 
d="M954 466q32 0 60.5 28t28.5 70t-28.5 70t-70.5 28t-70 -28t-28 -60t7.5 -49.5t21 -30.5t30.5 -20.5t49 -7.5zM1134.5 -188q59.5 42 73.5 115t-29 134t-118 75t-135.5 -28.5t-72.5 -117t30.5 -135.5t117 -73t134 30zM491 542.5q42 61.5 29 135.5t-74.5 117t-115.5 33
t-84 -29.5t-50 -48t-28.5 -63t-2.5 -71.5t26 -67t64.5 -61t119 -19t116.5 73.5zM1039 302l53 -3q140 -28 221 -143t57 -255t-141.5 -222t-257.5 -58t-221.5 140.5t-55.5 261.5t61 348q-255 -45 -339 -60t-150.5 1t-120 53.5t-91 94.5t-49.5 127t4 136.5t53.5 120.5t94 92
t162.5 56t221 -63t143 -221q0 -15 1.5 -27.5t1.5 -25.5l124 30l49 281q53 307 279 533q99 99 216 164q-241 -579 -256 -949q239 10 623 134q165 55 326 122q-134 -239 -331 -352.5t-366 -142.5l-281 -49z" />
    <glyph glyph-name="paragraph" unicode="&#xb6;" horiz-adv-x="2559" 
d="M2432 1408q0 39 -43 83.5t-85 44.5h-1280q-41 0 -84.5 -47t-43.5 -87v-890q0 -42 43 -85t85 -43h1280q42 0 85 43t43 85v896zM1664 256h-640q-124 0 -190 66t-66 190v384h-512q-39 0 -83.5 -44.5t-44.5 -83.5v-896q0 -42 44.5 -85t83.5 -43h1280q39 0 83.5 43t44.5 85
v384zM2304 1664q124 0 190 -66t66 -190v-896q0 -124 -66 -190t-190 -66h-512v-384q0 -124 -66 -190t-190 -66h-1280q-121 0 -188.5 66t-67.5 190v896q0 124 67.5 190t188.5 66h512v384q0 124 66 190t190 66h1280z" />
    <glyph glyph-name="periodcentered" unicode="&#xb7;" horiz-adv-x="2179" 
d="M574 -61l454 184l88 -216l-730 -294l-88 216l191 589l64 120l-461 -184l-92 216l734 291l88 -217l-184 -595zM1581 655l613 39l14 -276l-978 -61l-18 277l457 620l121 117l-620 -39l-15 276l979 57l17 -273l-450 -631z" />
    <glyph glyph-name="cedilla" unicode="&#xb8;" horiz-adv-x="2302" 
d="M1312 -216.5q0 3.5 12 -10t16 -23.5t8 -19l128 17l34 37q-27 106 -103 157q-44 25 -83 25l-33 -34l-17 -126q7 -5 14.5 -10t15.5 -11t8 -2.5zM1851 594q43 0 95 -32q180 -111 192 -251l-624 -621l-362 -74l77 359l424 419zM2281 551q2 -10 14 -35.5t10 -37.5l-90 -91
q-54 176 -205 257q-38 20 -78 31l89 89q11 2 36.5 -10t46 -19t48.5 -21t72.5 -59t56.5 -104zM768 1152h-640v-256h640v256zM768 768h-640v-256h640v256zM768 384h-640v-256h640v256zM768 0h-640v-256h640v256zM896 896h640v256h-640v-256zM896 -256h128v-128h-896
q-70 6 -99 43.5t-29 84.5v1792q6 70 43.5 99t84.5 29h1408q75 0 110 -64q15 -28 18 -64l2 -896h-130v128h-640v-256h512v-128h-512v-256h256v-128h-256v-256z" />
    <glyph glyph-name="ordmasculine" unicode="&#xba;" horiz-adv-x="1922" 
d="M768 -384v1408h384v-1408h-384zM1536 640h384v-1024h-384v1024zM0 -384v2048h384v-2048h-384z" />
    <glyph glyph-name="guillemotright" unicode="&#xbb;" horiz-adv-x="2050" 
d="M1191 384q-39 0 -39 39v306q0 15 10.5 27t28.5 12h818q18 0 28.5 -12t10.5 -27v-306q0 -39 -39 -39h-818zM2009 128q15 0 27 -12t12 -27v-434q0 -18 -12 -28.5t-27 -10.5h-178q-15 0 -27 10.5t-12 28.5v434q0 15 12 27t27 12h178zM0 345q0 39 39 39h818q39 0 39 -39v-690
q0 -39 -39 -39h-818q-39 0 -39 39v690zM857 1665q18 0 28.5 -11t10.5 -28v-951q0 -15 -10.5 -25t-28.5 -10h-818q-18 0 -28.5 10t-10.5 25v951q0 17 10.5 28t28.5 11h818zM1191 -384q-39 0 -39 39v434q0 15 10.5 27t28.5 12h306q18 0 28.5 -12t10.5 -27v-434q0 -39 -39 -39
h-306zM1152 1625q0 39 39 39h818q15 0 27 -10.5t12 -28.5v-562q0 -15 -12 -27t-27 -12h-818q-18 0 -28.5 12t-10.5 27v562z" />
    <glyph glyph-name="questiondown" unicode="&#xbf;" horiz-adv-x="2687" 
d="M1408 1024v-384l-512 512l512 514v-386q731 0 1005.5 -414.5t274.5 -865.5v-384h-256l-4 384q0 431 -192.5 667.5t-414 296.5t-413.5 60zM640 1024h-640v256h640v-256zM1152 384h-1152v256h1152v-256zM0 -256v256h1792v-256h-1792z" />
    <glyph glyph-name="Agrave" unicode="&#xc0;" horiz-adv-x="2050" 
d="M896 128h1152v-256h-1152v256zM1152 768h896v-256h-896v256zM896 1408h1152v-256h-1152v256zM512 512h-512v256h512v256l384 -384l-384 -384v256z" />
    <glyph glyph-name="Aacute" unicode="&#xc1;" horiz-adv-x="2944" 
d="M2432 896v384l512 -512l-512 -512v384h-5q-162 0 -249 -81t-146.5 -142.5t-106.5 -87.5q-209 -142 -481 -171.5t-422 -29.5q-300 0 -549.5 60t-373.5 162l-15 3q-84 84 -84 160v319q0 -107 175.5 -219.5t442 -140t408.5 -27.5q281 0 515 51.5t369 139.5q88 71 126 110
q73 76 159.5 113t210.5 37h26zM1026 -68q142 0 272.5 13.5t302 51t309.5 127t138 195.5v-327q0 -102 -173.5 -211.5t-440.5 -137t-408 -27.5t-272.5 13.5t-305 51t-311 123.5t-137.5 188v327q0 -106 176 -219t442 -140.5t408 -27.5zM1031 1113q445 0 628 76t205 96t28 26
q-18 24 -53 41q-68 45 -192 82q-255 78 -661 78t-594.5 -77t-235.5 -124l53 -42q35 -20 206 -88t616 -68zM0 1026v296q15 143 313.5 242.5t715.5 99.5t660 -82.5t298.5 -149.5t56.5 -114q4 12 4 -36v-256q0 -49 -22 -81t-32.5 -46.5t-56.5 -50.5t-141 -77t-215.5 -70
t-261.5 -45t-369.5 -16t-477.5 60t-373 162q-24 13 -39.5 32t-37.5 51t-22 81z" />
    <glyph glyph-name="Acircumflex" unicode="&#xc2;" horiz-adv-x="2179" 
d="M1885 -280q32 0 53 21t21 51t-21 52t-53 22t-52.5 -22t-20.5 -52t20.5 -51t52.5 -21zM1889 -383q-65 0 -112 47l-529 524l224 224l529 -528q47 -45 47 -111t-47 -111t-112 -45zM583 857q-182 -75 -329.5 0.5t-223 223.5t3.5 325l171 -171l154 -42l109 112l-39 150
l-174 175q179 79 327 1.5t207.5 -192.5t50.5 -208.5t-33 -149.5l147 -147l-224 -224zM162 -221q0 65 47 112l1218 1218q-7 3 -21 17q-19 -18 -48 -15.5t-50 22.5l-165 165q-21 23 -23 53.5t16 51.5l245 241q31 34 61 19.5t41 -26.5l164 -164q24 -21 25 -51t-18 -51h-3
q168 -184 264 -329.5t156 -298.5t133 -415l-557 557l-1218 -1218q-44 -44 -109.5 -44.5t-111.5 45.5t-46 111z" />
    <glyph glyph-name="Atilde" unicode="&#xc3;" horiz-adv-x="2050" 
d="M1152 1152h-1152v256h1152v-256zM896 512h-896v256h896v-256zM1152 -128h-1152v256h1152v-256zM1536 768h512v-256h-512v-256l-384 384l384 384v-256z" />
    <glyph glyph-name="Adieresis" unicode="&#xc4;" horiz-adv-x="2434" 
d="M512 128v256h512v-256h-512zM0 128v256h256v-256h-256zM1408 896v-256h-896v256h896zM0 640v256h256v-256h-256zM1792 1408v-256h-1280v256h1280zM0 1152v256h256v-256h-256zM2235 1043l216 -216l-767 -767l-216 216zM1240 -168l144 361l216 -217z" />
    <glyph glyph-name="Aring" unicode="&#xc5;" horiz-adv-x="2302" 
d="M2048 1280h-384v-256h384v256zM1666 584q0 236 -167 403.5t-405 167.5t-405.5 -167.5t-167.5 -403.5t167.5 -403.5t405.5 -167.5t405 167.5t167 403.5zM613 1536q27 0 27 -27v-101h1408q103 0 179.5 -76.5t76.5 -179.5v-1152q0 -103 -76.5 -179.5t-179.5 -76.5h-1792
q-101 0 -178.5 76t-77.5 180v1152q0 104 77.5 180t178.5 76v101q0 27 27 27h330zM1154 836q0 -81 54.5 -135.5t132.5 -54.5q45 0 81 18q8 -36 8 -90t-26 -115t-98 -134t-212 -73t-240 99.5t-100 239.5t99 240t242 100q47 0 83 -9q-24 -44 -24 -86z" />
    <glyph glyph-name="AE" unicode="&#xc6;" horiz-adv-x="2302" 
d="M2176 1024q0 80 -64 112q-28 14 -64 16h-1791l-21 -2q-53 -5 -80.5 -42t-27.5 -85v-1023q4 -69 42 -98.5t87 -29.5h1791q69 4 98.5 42t29.5 86v1024zM2048 1279q160 0 224 -128q28 -56 32 -127v-1024q-11 -197 -109.5 -226.5t-146.5 -29.5h-1792q-160 0 -224 128
q-28 56 -32 128v1440q0 39 28.5 67.5t67.5 28.5h651q109 0 193 -96l84 -161h1024zM1488 516q0 138 -100 238t-240 100t-238 -99t-99 -239t99 -240t238 -100t240 100q100 102 100 240zM640 515q0 211 149 360t360 149t360 -149t149 -360q0 -172 -107 -306l157 -157l-96 -96
l-157 157q-134 -107 -306 -107q-211 0 -360 149t-149 360zM1149 703q39 0 72.5 -15t58.5 -40.5t39.5 -59.5t14.5 -73t-14.5 -72.5t-39.5 -58.5t-58.5 -39.5t-72.5 -14.5t-73 14.5t-60 39.5t-41 58.5t-15 72.5t15 73t41 59.5t60 40.5t73 15z" />
    <glyph glyph-name="Ccedilla" unicode="&#xc7;" horiz-adv-x="2302" 
d="M1536 896l-640 -384v768zM2109 1469h-1914v-1146h1914v1146zM2142 1666q67 0 114.5 -47.5t47.5 -116.5v-1212q0 -68 -47 -115t-115 -47h-862v-225l193 -99q38 -14 55.5 -49.5t3.5 -73.5t-51 -56t-73 -2l-256 111l-245 -109q-60 -27 -99.5 8.5t-39.5 87t58 80.5l198 108
v219h-862q-65 0 -113.5 47t-48.5 115v1212q0 69 49 116.5t113 47.5h1980z" />
    <glyph glyph-name="Egrave" unicode="&#xc8;" horiz-adv-x="2687" 
d="M128 1516v-1388h1152v-128h-1152q-80 0 -112 64q-14 28 -16 64v1408q4 69 42 98.5t86 29.5h2048q70 6 99 -33t29 -95v-256h-128v256h-2045q-3 -8 -3 -20zM2399 1024h-709v-198q5 -120 31 -186h647l21 97l10 96v191zM2140 370q0 34 10 57l-109 -41l-102 41q10 -23 10 -57
q0 -110 -102 -168q-6 -4 -33.5 -20.5t-48.5 -37.5q-57 -67 -72 -194l352 123l351 -126q-21 138 -72 197q-23 14 -36.5 26.5t-21.5 14.5l-24 17q-102 58 -102 168zM1806 364q0 20 -24 29q-20 14 -41 24q-8 8 -17.5 13.5t-19.5 13.5l-41 37q-41 43 -61 99q-46 91 -55 236v208
h-139v128h1280v-128h-146v-208q-14 -216 -116 -335l-44 -37l-75 -51q-24 -9 -24 -29t24 -36l37 -24q11 -5 19 -12t19 -15l44 -34q64 -72 90 -184t26 -203v-112h146v-128h-1280v128h136l3 172q9 127 47 217t68.5 113t41.5 31l37 27l41 24q24 16 24 36zM1232 896
q21 0 34.5 -15t13.5 -33v-416q0 -21 -13.5 -34.5t-34.5 -13.5h-288q-21 0 -34.5 13.5t-13.5 34.5v416q0 18 13.5 33t34.5 15h288zM720 1152q21 0 34.5 -15t13.5 -33v-672q0 -21 -13.5 -34.5t-34.5 -13.5h-288q-21 0 -34.5 13.5t-13.5 34.5v672q0 18 13.5 33t34.5 15h288z
" />
    <glyph glyph-name="Eacute" unicode="&#xc9;" horiz-adv-x="2047" 
d="M1536 1024q106 0 199.5 -40t163 -109.5t109.5 -163t40 -199.5t-40 -199.5t-109.5 -163t-163 -109.5t-199.5 -40t-199.5 40t-163 109.5t-109.5 163t-40 199.5t40 199.5t109.5 163t163 109.5t199.5 40zM896 768h-896v896h896v-896zM512 512l512 -896h-1024z" />
    <glyph glyph-name="Ecircumflex" unicode="&#xca;" horiz-adv-x="1536" 
d="M1536 -384h-1536v1024l128 384h384v-128h-256l-78 -256h1193l-91 256h-256v128h384l128 -384v-1024zM640 768v384h-256l384 512l384 -512h-256v-384h-256z" />
    <glyph glyph-name="Edieresis" unicode="&#xcb;" horiz-adv-x="3073" 
d="M3002 1152q29 0 49.5 -20.5t20.5 -49.5v-756q0 -29 -20.5 -49.5t-49.5 -20.5h-442v128h384v640h-384v128h442zM896 256h-826q-29 0 -49.5 20.5t-20.5 49.5v756q0 29 20.5 49.5t49.5 20.5h826v-128h-768v-640h768v-128zM1595 630q0 -63 -39 -120q-32 -55 -100 -93
q-10 0 -53 -32t-60 -49q-80 -93 -97 -264l481 167l480 -174q-13 103 -39 163q-22 70 -62 108l-38 31q-16 15 -35 27l-39 23q-66 37 -92 80q-48 78 -48 129t16 97l-147 -50l-144 50q16 -30 16 -93zM2211 1408h-973v-134q10 -122 43 -233h887q30 77 43 240v127zM1041 -128
q0 96 4 188t29.5 167t52.5 138t77 107q34 34 54 46l54 39l51 31q38 25 38 49t-38 44l-51 31l-54 39l-54 46q-51 51 -77 112q-82 189 -82 349q-6 81 0 150h-149v256h1664v-256h-155q23 -267 -42.5 -413.5t-116.5 -197.5l-54 -46l-55 -39l-50 -31q-35 -18 -35 -44t35 -49
l50 -31l55 -39q11 -9 25.5 -20.5t36.5 -31.5q85 -79 132 -281q5 -41 14 -107.5t9 -205.5h151v-256h-1664v256h145z" />
    <glyph glyph-name="Igrave" unicode="&#xcc;" horiz-adv-x="2050" 
d="M1664 167q0 -120 80 -120q62 0 86.5 30t24.5 110v96q0 85 -28.5 120t-96.5 35h-67v116h76q59 0 87.5 27.5t28.5 100.5v70q0 80 -24.5 110t-72.5 30t-71 -27t-23 -96v-78h-181v67q0 309 279 309q143 0 214.5 -80t71.5 -229v-32q0 -90 -28.5 -123.5t-105.5 -65.5v-3
q134 -61 134 -257v-96q0 -149 -72 -229t-216 -80q-278 0 -277 309v75h181v-89zM964 1213q316 0 316 -344q0 -131 -51.5 -220t-179.5 -227t-160.5 -195.5t-32.5 -115.5v-29h424v-210h-640v181q0 116 47 212t139 195t132.5 143.5t73 97.5t32.5 151t-26 131.5t-80 33.5
q-114 0 -114 -137v-112h-204v101q0 167 81.5 255.5t242.5 88.5zM0 1210q180 0 220 79.5t54 118.5h166v-1536h-247v1152h-193v186z" />
    <glyph glyph-name="Iacute" unicode="&#xcd;" horiz-adv-x="2050" 
d="M1408 1536h512q69 -4 98.5 -42t29.5 -86v-1536q0 -80 -64 -112q-28 -14 -64 -16h-1792q-69 4 -98.5 42t-29.5 86v1536q4 69 42 98.5t86 29.5h512v-128h-384q-48 0 -74 -2t-38 -14t-14 -38t-2 -74v-1280q0 -48 2 -74t14 -38t38 -14t74 -2h1536q48 0 74 2t38 14t14 38t2 74
v1280q0 48 -2 74t-14 38t-38 14t-74 2h-384v128zM1152 1664v-768h340q14 0 29 -16t15 -30t-10 -25l-469 -426q-31 -31 -61 0l-474 430q-10 10 -10 29.5t19.5 28.5t27.5 9h337v768h256z" />
    <glyph glyph-name="Icircumflex" unicode="&#xce;" horiz-adv-x="2050" 
 />
    <glyph glyph-name="Idieresis" unicode="&#xcf;" horiz-adv-x="2302" 
d="M2176 1129q0 23 -26 23h-1999q-23 0 -23 -23v-1234q0 -23 23 -23h1999q26 0 26 23v1234zM192 1408q-26 0 -45 -19t-19 -45t19 -45t45 -19t45 19t19 45t-19 45t-45 19zM448 1408q-26 0 -45 -19t-19 -45t19 -45t45 -19t45 19t19 45t-19 45t-45 19zM2166 1536q80 0 109 -29
t29 -109v-1516q0 -84 -29 -111t-109 -27h-2028q-84 0 -111 27t-27 111v1516q0 80 27 109t111 29h2028zM1644 384q8 0 14 -6t6 -14v-88q0 -8 -6 -14t-14 -6h-984q-8 0 -14 6t-6 14v88q0 8 6 14t14 6h984zM1900 640q8 0 14 -6t6 -14v-88q0 -8 -6 -14t-14 -6h-1240q-8 0 -14 6
t-6 14v88q0 8 6 14t14 6h1240zM1556 788q0 -8 -6 -14t-14 -6h-1132q-8 0 -14 6t-6 14v88q0 8 6 14t14 6h1132q8 0 14 -6t6 -14v-88z" />
    <glyph glyph-name="Ntilde" unicode="&#xd1;" horiz-adv-x="2302" 
d="M1832 458l-56 -161l102 -138l-171 3l-99 -138l-49 164l-161 50l138 98v171l135 -101zM2266 1060l63 -86h-105l-63 -85l-29 102l-102 33l85 59v109l86 -66l102 33zM822 1386l-128 42l109 76v135l108 -79l125 43l-43 -128l79 -109l-135 3l-75 -112zM1664 1024l256 256
l-256 256l-256 -256zM384 -246l254 246l-254 256l-243 -256zM0 0l1664 1664l384 -384l-1664 -1664z" />
    <glyph glyph-name="Ograve" unicode="&#xd2;" horiz-adv-x="2302" 
d="M2176 1129q0 23 -26 23h-1999q-23 0 -23 -23v-1234q0 -23 23 -23h1999q26 0 26 23v1234zM2166 1536q80 0 109 -29t29 -109v-1516q0 -84 -29 -111t-109 -27h-2028q-84 0 -111 27t-27 111v1516q0 80 27 109t111 29h2028zM1408 384h512v-128h-512v128zM1408 640h512v-128
h-512v128zM508 343q53 0 102 -23l29 29q22 30 43 54l-34 126l-26 83q-30 72 -78 72t-69.5 -9t-30.5 -11l15 57q95 40 132 44.5t83 4.5t71 -23q13 -7 41 -37t39 -106q7 -15 8.5 -25t3.5 -21q10 18 28 43l23 37q52 81 86 106q40 35 83 35t69 -25.5t26 -73.5t-34 -82
q-43 -32 -94 -32t-101 23q-20 -17 -38.5 -44t-33.5 -42q19 -85 38 -139.5t27 -82.5t28 -46t46 -18t37 -0.5t22 6.5q15 2 24 5.5t16 5.5l-14 -54q-91 -43 -130 -47.5t-57 -4.5t-28.5 2t-23.5 4q-44 7 -88 51q-29 35 -40 109q-7 15 -7.5 28t-7.5 24l-25 -40q-7 -7 -24 -43
t-85 -101q-39 -31 -81 -31t-71 26q-26 26 -26 73t35 82q39 31 92 31z" />
    <glyph glyph-name="Oacute" unicode="&#xd3;" horiz-adv-x="2050" 
d="M768 512h-768v256h768v256l384 -384l-384 -384v256zM1280 -256h-794q-42 0 -72 30t-30 72v410h128v-384h768v1280l384 256h-1152v-384h-128v410q0 42 30 72t72 30h735q735 0 738 -1q38 6 62 -32q27 -29 27 -69v-1594q-5 -68 -84 -98l-684 -254v256z" />
    <glyph glyph-name="Ocircumflex" unicode="&#xd4;" horiz-adv-x="1791" 
d="M1792 512h-1792v256h1792v-256zM1792 -128h-1792v256h1792v-256zM1792 1152h-1792v256h1792v-256z" />
    <glyph glyph-name="Otilde" unicode="&#xd5;" horiz-adv-x="2050" 
d="M1920 1646q18 0 30 -12l68 -68q12 -12 12 -30t-12 -30l-290 -288l192 -194l-384 -512l-128 128l-128 -128l-384 384l128 128l-128 128l512 384l192 -192l290 290q12 12 30 12zM144 -366q-18 0 -29 12l-85 85q-12 11 -12 29t12 31l281 279l-183 186l384 512l640 -640
l-512 -384l-182 185l-283 -283q-13 -12 -31 -12z" />
    <glyph glyph-name="Odieresis" unicode="&#xd6;" horiz-adv-x="1664" 
d="M1408 1152h-1152v-1398q0 -10 10 -10h1132q10 0 10 10v1398zM128 1408q0 117 128 127h255q0 54 37.5 91.5t91.5 37.5h383q54 0 91.5 -37.5t37.5 -91.5h256q80 0 112 -64q14 -28 16 -63h128v-128h-128v-1526q0 -57 -40.5 -97.5t-97.5 -40.5h-1132q-57 0 -97.5 40.5
t-40.5 97.5v1526h-128v128h128zM1280 -128h-128v1152h128v-1152zM1024 -128h-128v1152h128v-1152zM768 -128h-128v1152h128v-1152zM512 -128h-128v1152h128v-1152z" />
    <glyph glyph-name="Oslash" unicode="&#xd8;" horiz-adv-x="2816" 
d="M2816 -384q-65 282 -238.5 458t-342.5 233.5t-315 70.5v-378l-512 512l512 512v-381q442 -17 669 -291t227 -736zM1152 768h-768v128h768v-128zM1152 1152h-768v128h768v-128zM1408 -384h-1280q-80 0 -112 64q-14 28 -16 64v1792q4 69 42 98.5t86 29.5h1280q80 0 112 -64
q14 -28 16 -64v-384l-128 -128v384q0 48 -2 74t-14 38t-38 14t-74 2h-1024q-48 0 -74 -2t-38 -14t-14 -38t-2 -74v-1536q0 -48 2 -74t14 -38t38 -14t74 -2h1024q48 0 74 2t38 14t14 38t2 74v128l128 -128v-128q-4 -69 -42 -98.5t-86 -29.5zM384 128h768v-128h-768v128z
M1152 384h-768v128h768v-128z" />
    <glyph glyph-name="Ugrave" unicode="&#xd9;" horiz-adv-x="2050" 
d="M41 511q-17 0 -29 12t-12 29v174q0 17 12 29t29 12h1529l-400 448q-12 12 -12 29t12 29l123 123q12 12 29 12t29 -12l695 -757l-695 -755q-12 -12 -29 -12t-29 12l-123 123q-12 12 -12 29t12 29l400 446h-1529z" />
    <glyph glyph-name="Uacute" unicode="&#xda;" horiz-adv-x="2050" 
d="M1152 256h-256v-256h256v256zM1239 384q17 0 29 -12t12 -29v-430q0 -17 -12 -29t-29 -12h-87v-215q0 -17 -12 -29t-29 -12h-174q-17 0 -29 12t-12 29v215h-87q-17 0 -29 12t-12 29v430q0 17 12 29t29 12h87v1239q0 17 12 29t29 12h174q17 0 29 -12t12 -29v-1239h87z
M1920 1024h-256v-256h256v256zM2007 1152q17 0 29 -12t12 -29v-430q0 -17 -12 -29t-29 -12h-87v-983q0 -17 -12 -29t-29 -12h-174q-17 0 -29 12t-12 29v983h-87q-17 0 -29 12t-12 29v430q0 17 12 29t29 12h87v471q0 17 12 29t29 12h174q17 0 29 -12t12 -29v-471h87z
M384 1280h-256v-256h256v256zM471 1408q17 0 29 -12t12 -29v-430q0 -17 -12 -29t-29 -12h-87v-1239q0 -17 -12 -29t-29 -12h-174q-17 0 -29 12t-12 29v1239h-87q-17 0 -29 12t-12 29v430q0 17 12 29t29 12h87v215q0 17 12 29t29 12h174q17 0 29 -12t12 -29v-215h87z" />
    <glyph glyph-name="Ucircumflex" unicode="&#xdb;" horiz-adv-x="2050" 
d="M2007 128q17 0 29 -12t12 -29v-174q0 -17 -12 -29t-29 -12h-1367q-265 0 -418 153t-187.5 276t-34.5 211t23 170t86 190t210.5 194t320.5 86h918l-115 114q-12 12 -12 29t12 29l124 123q11 12 28 12t29 -12l424 -423l-424 -424q-12 -12 -29 -12t-28 12l-124 123
q-12 12 -12 29t12 29l115 115h-918q-158 0 -272 -112q-112 -114 -112 -272t112 -272q114 -112 272 -112h1367z" />
    <glyph glyph-name="Udieresis" unicode="&#xdc;" horiz-adv-x="2434" 
d="M1902 984q26 0 49.5 10.5t41.5 28.5t28.5 41.5t10.5 64t-39.5 78.5t-78.5 38t-62.5 -10.5t-41.5 -28t-28.5 -41t-10.5 -50.5t10.5 -50.5t28.5 -41.5t42 -28.5t50 -10.5zM1342 1137q35 0 65.5 13t53.5 36t36 53.5t13 65.5t-13 65.5t-36 53.5t-53.5 36t-65.5 13t-65.5 -13
t-53 -36t-35.5 -53.5t-13 -65.5t13 -65.5t35.5 -53.5t53 -36t65.5 -13zM709 828q42 0 79 16.5t65 44t44.5 65t16.5 79.5t-16.5 79.5t-44.5 65t-65 44t-79 16.5t-79.5 -16.5t-65 -44t-44 -65t-16.5 -79.5t16.5 -79.5t44 -65t65 -44t79.5 -16.5zM805 313q0 111 -76.5 186
t-184.5 75t-184.5 -75.5t-76.5 -185.5t76.5 -185.5t184.5 -75.5t184.5 75t76.5 186zM2349 776q-228 0 -472 -71t-455.5 -226t-323.5 -364.5t-56.5 -335t80.5 -159.5q-400 -30 -625.5 110t-328.5 275t-140 287t-25.5 288t86 332.5t308 402.5t545.5 296t607 36t504 -232.5
t274 -441.5q22 -102 22 -197z" />
    <glyph glyph-name="germandbls" unicode="&#xdf;" horiz-adv-x="3329" 
d="M2432 1280h-242q0 115 19 178t34 106.5t64 99.5q-71 -9 -137 -127t-109 -248l-267 -1292q-54 -165 -91 -229t-79 -106t-76 -46q-51 55 -68 93q-25 37 -36 93q-14 37 -14 92v78q0 77 -17 101q-32 46 -111 55h-913l217 1161q76 222 172 329q37 41 75 46h1454q77 0 109 -190
q16 -93 16 -194zM3370 829.5q0 -12.5 -9 -21.5l-799 -799q-9 -9 -21.5 -9t-21.5 9l-462 462q-9 9 -9 21.5t9 21.5l125 125q9 9 21.5 9t21.5 -9l316 -315l652 652q9 9 21.5 9t21.5 -9l125 -125q9 -9 9 -21.5zM242 -384q-89 0 -139 55t-71 120q-32 76 -32 209h1280
q0 -146 42 -227t94 -114q53 -38 132 -43h-1306z" />
    <glyph glyph-name="agrave" unicode="&#xe0;" horiz-adv-x="2302" 
d="M735 -384h-48q-237 22 -459 244t-228 488q0 258 211 469l739 739q31 31 87.5 31t72 -41t15.5 -72t-27 -62l-743 -739q-237 -237 -149 -413.5t170 -258.5q166 -166 330 -182q161 -11 310 133l1009 1009q96 90 96 192q6 105 -92 211q-101 96 -219 96t-203 -85l-849 -850
q-30 -31 -30 -69t32 -70t64 -34t74 36q40 42 147 149l157 157q158 158 200 157t72 -31t30.5 -71.5t-30.5 -72.5l-432 -432q-96 -96 -222 -96q-122 6 -207 96q-88 88 -88 212t88 213l850 850q150 150 355 144q200 0 355 -155q163 -169 151 -362q-4 -195 -159 -333
l-1005 -1005q-192 -192 -425 -192z" />
    <glyph glyph-name="aacute" unicode="&#xe1;" horiz-adv-x="2047" 
d="M1790 -128h-384v288h384v-288zM1790 304h-384v288h384v-288zM1790 736h-384v288h384v-288zM1214 -128h-383v288h383v-288zM1214 304h-383v288h383v-288zM1214 736h-383v288h383v-288zM639 -128h-384v288h384v-288zM639 304h-384v288h384v-288zM639 736h-384v288h384v-288
zM1920 1152h-1792v-1280q4 -69 42 -98.5t86 -29.5h1536q80 0 112 64q14 28 16 64v1280zM1792 1664q122 0 189 -67t67 -189v-1536q0 -122 -67 -189t-189 -67h-1536q-122 0 -189 67t-67 189v1536q0 122 67 189t189 67h128v-129q0 -53 27.5 -80.5t50.5 -37t63.5 -9.5t77.5 37
t37 90v129h768v-129q0 -53 27.5 -80.5t50.5 -37t63.5 -9.5t77.5 37t37 90v129h128z" />
    <glyph glyph-name="acircumflex" unicode="&#xe2;" horiz-adv-x="3328" 
d="M877 465q0 -99 -2 -123t-10 -27.5t-21 -9.5q-19 -81 -53 -136q-279 -228 -279 -533v-20h-512v12q0 128 126.5 228t320.5 129v86q-107 80 -140 238q-28 6 -28 16q-17 193 35.5 357t259.5 164q134 0 218.5 -98t84.5 -283zM3341 -372v-12h-492v20q0 152 -74 293t-217 253
l-21 16q-24 49 -36 111q-29 5 -29 16q-17 193 35.5 357t259.5 164q134 0 218.5 -98t84.5 -262t-6 -168l-26 -13q-32 -156 -144 -234v-86q196 -28 321.5 -128t125.5 -229zM2185 1051q0 -28 1 -107.5t-1 -142.5q-6 -19 -53 -37q-25 -127 -88 -227t-150 -159v-147
q325 -46 537.5 -212t212.5 -383v-20h-1927v20q0 217 212.5 383t538.5 212v147q-87 59 -148.5 161t-89.5 229q-49 13 -49 33q-3 79 -5 229t35 266t142.5 243t328 127t363 -164.5t140.5 -450.5z" />
    <glyph glyph-name="atilde" unicode="&#xe3;" horiz-adv-x="2047" 
d="M585 999q-237 0 -383 70t-173 86.5t-29 17.5l138 188q112 -74 282 -112q308 -69 540 109q324 250 755 151q200 -45 355 -148l-138 -188q-129 79 -283 115q-304 71 -538 -108q-230 -181 -526 -181zM585 -272q-234 0 -381.5 70.5t-174.5 86.5t-29 17l138 191
q119 -78 282 -115q307 -69 540 108q325 250 755 154q185 -44 268.5 -95t86.5 -52l-138 -191q0 7 -254.5 129t-566.5 -122q-235 -181 -526 -181zM585 362q-100 0 -230 26q-189 47 -271 97t-84 51l138 190q0 -6 90.5 -49.5t191.5 -64.5q307 -69 540 108q324 252 755 151
q184 -41 268 -92.5t87 -52.5l-138 -190q-124 79 -280 115q-312 71 -544 -109t-523 -180z" />
    <glyph glyph-name="adieresis" unicode="&#xe4;" horiz-adv-x="2562" 
d="M2176 1024v-128h-640v128h640zM2176 768v-128h-640v128h640zM2176 256v-128h-640v128h640zM2176 512v-128h-640v128h640zM1306 134v-7h-926v7q0 106 102 187.5t258 103.5v69q-90 64 -113 189q-25 11 -25 18v112q-4 137 64.5 221.5t176.5 84.5t176.5 -79.5t68.5 -209.5
t-7.5 -137.5t-21.5 -9.5q-23 -124 -112 -189v-69q155 -22 257 -103.5t102 -187.5zM256 1408q-38 0 -83 -45t-45 -83v-1280q0 -39 44.5 -83.5t83.5 -44.5h2048q40 0 84 44t44 84v1280q0 39 -44.5 83.5t-83.5 44.5h-2048zM2304 -256h-2048q-182 0 -219 98t-37 158v1280
q0 119 68.5 187.5t187.5 68.5h2048q121 0 188.5 -67.5t67.5 -188.5v-1280q0 -121 -67.5 -188.5t-188.5 -67.5z" />
    <glyph glyph-name="aring" unicode="&#xe5;" horiz-adv-x="2047" 
d="M1915 897h-635v633q0 38 28.5 68t69.5 30t69 -29.5t28 -68.5l1 -298l406 402q29 29 69.5 29t68.5 -28t28 -68t-29 -69l-401 -404l297 -2q62 0 79.5 -38.5t17.5 -68.5t-29 -59t-68 -29zM1908 -84q0 -68 -48 -116t-114 -47.5t-115 49.5l-1446 1446q-49 49 -49 115.5
t48 114.5t115.5 47.5t113.5 -46.5l1449 -1449q46 -46 46 -114zM133 384h635v-634q0 -62 -39 -79.5t-69 -17.5t-58.5 28.5t-28.5 68.5l-1 299l-406 -403q-29 -29 -70.5 -29t-66.5 29q-29 25 -29 66.5t29 70.5l401 404l-297 2q-63 0 -80 38.5t-17 68.5t29 59t68 29z" />
    <glyph glyph-name="ae" unicode="&#xe6;" horiz-adv-x="2050" 
d="M162 -222h1886v-162h-2048v2048h162v-1365l587 496l505 -256l794 797v-184l-768 -768l-512 256l-606 -510v-352z" />
    <glyph glyph-name="ccedilla" unicode="&#xe7;" horiz-adv-x="1664" 
d="M1536 1279h-1408v-1536h1408v1536zM1664 1407v-1664q0 -42 -45 -85t-83 -43h-1408q-41 0 -84.5 43.5t-43.5 84.5v1664h128q38 0 83 43t45 85v128h1152v-128q0 -41 43.5 -84.5t84.5 -43.5h128zM262 214.5q0 75.5 53 128.5l171 171q75 71 138 56.5t90 -31.5l-178 -182
l-121 -118q-7 -7 -7 -24t7 -26l121 -121q10 -10 25 -10t25 10l171 175l128 125q35 -52 28.5 -117t-52.5 -111l-172 -172q-53 -53 -128 -53t-128 53l-118 118q-53 53 -53 128.5zM1103 1056q74 0 128 -54l118 -117q53 -53 53 -128.5t-53 -128.5l-171 -171q-74 -74 -137.5 -58
t-90.5 33l296 296q10 10 10 26.5t-10 26.5l-118 118q-11 11 -27 11t-27 -11l-295 -296q-56 85 -28 144.5t52 83.5l172 171q54 54 128 54zM1046 624q0 -28 -21 -50l-282 -281q-22 -22 -52 -22t-52 22q-21 22 -21 50t21 50l282 281q22 22 51.5 22t51.5 -22t22 -50z" />
    <glyph glyph-name="egrave" unicode="&#xe8;" horiz-adv-x="2047" 
d="M1152 960q0 26 -19 45t-45 19h-128q-26 0 -45 -19t-19 -45v-512q0 -26 19 -45t45 -19h128q26 0 45 19t19 45v512zM1152 192q0 26 -19 45t-45 19h-128q-26 0 -45 -19t-19 -45v-128q0 -26 19 -45t45 -19h128q26 0 45 19t19 45v128zM136 -256q-91 0 -123.5 56t16.5 136
l879 1522q48 78 117 78t117 -78l879 -1522q49 -80 16.5 -136t-123.5 -56h-1778z" />
    <glyph glyph-name="eacute" unicode="&#xe9;" horiz-adv-x="2047" 
d="M1407 888q0 -52 -39 -91l-503 -507q-39 -36 -93 -36t-92 37t-38 91t38 93l503 507q39 37 91 37t94 -37q39 -42 39 -94zM1787 1123q0 28 -19 44l-215 215q-16 19 -44 19t-47 -19l-532 -533q-64 96 -52 211t94 198l308 309q96 94 230 94t228 -94l215 -215q94 -94 94 -228
t-94 -230l-309 -308q-81 -82 -197 -94t-212 52l533 532q19 19 19 47zM0 153q0 135 95 228l308 309q84 82 198 93t212 -51l-533 -533q-19 -19 -19 -47t19 -44l214 -214q26 -31 68 -16q12 4 23 16l533 533q64 -96 53 -210t-95 -200l-309 -308q-93 -95 -228 -95t-230 95
l-214 214q-95 95 -95 230z" />
    <glyph glyph-name="ecircumflex" unicode="&#xea;" horiz-adv-x="1153" 
d="M971.5 1536q74.5 0 126.5 -52t52 -126t-52 -131l-589 -586l589 -589q52 -56 52 -130t-52 -125t-126 -51t-130 50l-842 845l842 842q55 53 129.5 53z" />
    <glyph glyph-name="edieresis" unicode="&#xeb;" horiz-adv-x="1153" 
d="M179 -255q-73 0 -126 53t-53 128t53 128l589 586l-589 590q-53 55 -53 130.5t53 125.5t127 50t129 -50l842 -846l-842 -842q-57 -53 -130 -53z" />
    <glyph glyph-name="igrave" unicode="&#xec;" horiz-adv-x="2047" 
d="M2048 -256h-896v768h896v-768zM896 -256h-896v768h896v-768zM2048 768h-896v768h896v-768zM896 768h-896v768h896v-768z" />
    <glyph glyph-name="iacute" unicode="&#xed;" horiz-adv-x="2817" 
d="M2872 328q0 -118 -58 -191l-1682 -504l-47 -17l-4 3l-3 -3v3l-1078 521l282 33l843 -396l3 34q0 105 -50 191l370 111q10 -16 32 -84t4 -154l242 73q32 145 -20 242l1108 329q58 -73 58 -191zM1165 899l635 185l-699 299l-624 -155zM2824 1231l-1739 -517l-1085 521
l1790 430zM2872 869q0 -119 -58 -195l-1682 -501l-47 -16h-7v3l-1078 517l282 37l843 -396l3 30q0 113 -50 195l370 111q62 -116 36 -239l242 74q32 145 -20 242l1108 329q58 -72 58 -191z" />
    <glyph glyph-name="icircumflex" unicode="&#xee;" horiz-adv-x="2047" 
d="M0 -256v256h2048v-256h-2048zM0 256v256h2048v-256h-2048zM0 768v256h2048v-256h-2048zM0 1536h2048v-256h-2048v256z" />
    <glyph glyph-name="idieresis" unicode="&#xef;" horiz-adv-x="2047" 
d="M2048 896l-640 -512l256 -768l-635 512l-645 -512l256 768l-640 512h768l256 768l256 -768h768z" />
    <glyph glyph-name="ntilde" unicode="&#xf1;" horiz-adv-x="2302" 
d="M2176 1024q0 80 -64 112q-28 14 -64 16h-1791l-21 -2q-53 -5 -80.5 -42t-27.5 -85v-1023q4 -69 42 -98.5t87 -29.5h1791q69 4 98.5 42t29.5 86v1024zM2048 1279q160 0 224 -128q28 -56 32 -127v-1024q-11 -197 -109.5 -226.5t-146.5 -29.5h-1792q-160 0 -224 128
q-28 56 -32 128v1440q0 39 28.5 67.5t67.5 28.5h651q109 0 193 -96l84 -161h1024z" />
    <glyph glyph-name="ograve" unicode="&#xf2;" horiz-adv-x="1793" 
d="M0 0v835l776 -451v-768zM1024 -384v768l768 451v-835zM896 1664l896 -514l-896 -510l-896 510z" />
    <glyph glyph-name="oacute" unicode="&#xf3;" horiz-adv-x="2050" 
d="M574 464q0 160 88 281t234 156v284h-348l479 479l476 -479h-351v-281q151 -40 239.5 -161t88.5 -279q0 -76 -19 -137l241 -147l186 317l166 -659l-655 -163l186 313l-245 147q-126 -124 -312 -124t-314 124l-244 -147l186 -313l-656 163l166 659l186 -317l242 147
q-20 58 -20 137z" />
    <glyph glyph-name="ocircumflex" unicode="&#xf4;" horiz-adv-x="2559" 
d="M1210.5 1664q278.5 0 466.5 -82q382 -163 545 -545q82 -188 82 -397h256l-384 -512l-384 512h314q0 168 -66 321q-131 308 -439 439q-153 66 -365 66t-433 -152q-74 90 -154 132q283 218 561.5 218zM1349.5 -384q-278.5 0 -466.5 82q-382 163 -545 545q-82 188 -82 397
h-256l384 512l384 -512h-314q0 -168 66 -321q131 -308 439 -439q153 -66 365 -66t433 152q74 -90 154 -132q-283 -218 -561.5 -218z" />
    <glyph glyph-name="otilde" unicode="&#xf5;" horiz-adv-x="2050" 
d="M1792 920q0 53 -36 91q-71 74 -180 10l-424 -248v573q0 54 -27 81t-50 36.5t-63.5 9.5t-77 -36.5t-36.5 -90.5v-826q-7 -58 38 -102q62 -69 178 0l640 411q38 38 38 91zM1024 1664q141 0 271.5 -37t244 -103.5t207.5 -160.5t160.5 -207.5t103.5 -244t37 -271.5
t-37 -271.5t-103.5 -244t-160.5 -207.5t-207.5 -160.5t-244 -103.5t-271.5 -37t-271.5 37t-244 103.5t-207.5 160.5t-160.5 207.5t-103.5 244t-37 271.5t37 271.5t103.5 244t160.5 207.5t207.5 160.5t244 103.5t271.5 37z" />
    <glyph glyph-name="odieresis" unicode="&#xf6;" horiz-adv-x="2687" 
d="M1152 256v379l512 -507l-512 -512v384q-331 0 -592.5 144t-410.5 403t-149 587v36l4 494h252q-2 -16 -2 -48v-124l2 -358q19 -358 188 -563.5t354.5 -260t353.5 -54.5zM2048 128h640v-256h-640v256zM1536 768h1152v-256h-1152v256zM2688 1408v-256h-1795l3 256h1792z" />
    <glyph glyph-name="divide" unicode="&#xf7;" horiz-adv-x="2050" 
d="M1026 1467q-114 0 -220 -29.5t-198.5 -83.5t-168 -130t-130 -168t-84 -198.5t-29.5 -220.5t29.5 -220t84 -198.5t130 -168t168 -130t198.5 -84t220 -29.5t220.5 29.5t198.5 84t168 130t130.5 168t84 198.5t29.5 220t-29.5 220.5t-84 198.5t-130.5 168t-168 130
t-198.5 83.5t-220.5 29.5zM0 743.5q0 314.5 301 619.5q146 146 331.5 223.5t393.5 77.5q420 0 726 -301q296 -300 296 -617t-75 -503t-221 -331q-300 -296 -728 -296t-648.5 221t-298 406.5t-77.5 500zM1257 768q16 0 23 -3v218q0 20 18 37t44 -8l312 -352q10 -12 10 -27
t-10 -25l-312 -339q-21 -27 -49 -4q-13 13 -13 30v217h-512v-217q0 -14 -13 -27q-27 -27 -52 1l-309 339q-10 10 -10 25t10 27l312 352q35 29 55 -5q2 -5 4.5 -11t2.5 -13v-215h489z" />
    <glyph glyph-name="oslash" unicode="&#xf8;" horiz-adv-x="2050" 
d="M2051 -326h-3v-58h-2048v2048h162v-1394l606 498l512 -256l768 768l3 -370v-1236z" />
    <glyph glyph-name="ugrave" unicode="&#xf9;" horiz-adv-x="2047" 
d="M1088 128h-128q-26 0 -45 19t-19 45v128q0 26 19 45t45 19h128q26 0 45 -19t19 -45v-128q0 -26 -19 -45t-45 -19zM1088 512h-128q-26 0 -45 19t-19 45v512q0 26 19 45t45 19h128q26 0 45 -19t19 -45v-512q0 -26 -19 -45t-45 -19zM198 640q0 -167 65 -321
q133 -308 440 -439q153 -66 321 -66t321 66q308 131 439 439q66 153 66 321t-66 321q-131 308 -439 439q-153 66 -321 66t-321 -66q-307 -131 -440 -439q-65 -154 -65 -321zM0 640q0 208 82 398q164 382 544 544q189 82 398 82t397 -82q382 -163 545 -545q82 -188 82 -396.5
t-82 -398.5q-164 -382 -545 -544q-188 -82 -396.5 -82t-398.5 82q-380 163 -545 544q-81 190 -81 398z" />
    <glyph glyph-name="uacute" unicode="&#xfa;" horiz-adv-x="1793" 
d="M1735 768q24 0 40.5 -16.5t16.5 -40.5v-142q0 -24 -16.5 -40.5t-40.5 -16.5h-711v-711q0 -24 -16.5 -40.5t-40.5 -16.5h-142q-24 0 -40.5 16.5t-16.5 40.5v711h-711q-24 0 -40.5 16.5t-16.5 40.5v142q0 24 16.5 40.5t40.5 16.5h711v711q0 24 16.5 40.5t40.5 16.5h142
q24 0 40.5 -16.5t16.5 -40.5v-711h711z" />
    <glyph glyph-name="ucircumflex" unicode="&#xfb;" horiz-adv-x="1279" 
d="M1280 -256h-256v1792h256v-1792zM512 -256v1792h256v-1792h-256zM0 -256v1792h256v-1792h-256z" />
    <glyph glyph-name="udieresis" unicode="&#xfc;" horiz-adv-x="2050" 
d="M1408 1552h256v-410l384 -313l-128 -128l-896 707l-896 -707l-128 128l1024 835l384 -313v201zM896 -128v384h-384v-384h384zM1792 -384h-256v640h-384v-640h-896v1039l768 579l768 -579v-1039z" />
    <glyph glyph-name="ydieresis" unicode="&#xff;" horiz-adv-x="2687" 
d="M896 896q53 0 99.5 -20t81.5 -55t55 -81.5t20 -99.5t-20 -99.5t-55 -81.5t-81.5 -55t-99.5 -20t-99.5 20t-81.5 55t-55 81.5t-20 99.5t20 99.5t55 81.5t81.5 55t99.5 20zM895 0q86 0 166 24.5t188.5 90.5t197.5 216.5t89 317.5q0 256 -153 409t-272 187.5t-205 34.5
t-168 -23t-192.5 -86.5t-200 -209t-89.5 -312.5t111.5 -358t276.5 -241t251 -50zM888 -256q-118 0 -233 31.5t-214.5 89.5t-181 139.5t-139 181t-89 214.5t-31.5 240t31.5 240t118.5 266t292.5 270.5t453.5 119.5q337 0 590.5 -217.5t305.5 -550.5h384l-128 128v384
l640 -638l-640 -642v384l128 128h-384q-36 -209 -199.5 -433t-375 -279.5t-329.5 -55.5z" />
    <glyph glyph-name="dotlessi" unicode="&#x131;" horiz-adv-x="2050" 
d="M2005 769q17 0 29 -12t12 -29v-174q0 -17 -12 -29t-29 -12h-1529l400 -448q12 -12 12 -29t-12 -29l-123 -123q-12 -12 -29 -12t-29 12l-695 757l695 755q12 12 29 12t29 -12l123 -123q12 -12 12 -29t-12 -29l-399 -446h1528z" />
    <glyph glyph-name="OE" unicode="&#x152;" horiz-adv-x="1793" 
d="M512 -128h-512v1536h512v-1536zM768 1408l1024 -768l-1024 -768v1536z" />
    <glyph glyph-name="oe" unicode="&#x153;" horiz-adv-x="1022" 
d="M0 1408l1024 -768l-1024 -768v1536z" />
    <glyph glyph-name="Ydieresis" unicode="&#x178;" horiz-adv-x="1536" 
d="M1261.5 523q-12.5 -25 -38.5 -36t-51.5 1.5t-35.5 38.5t2 52t38 36t52 -0.5t36 -38.5t-2.5 -53zM786.5 132q14.5 32 47.5 45t75.5 -6t41.5 -75.5t-65 -81.5q-26 -10 -58 4t-44 48t2.5 66zM1159 195q-30 -11 -58.5 2t-39.5 43t2 58.5t51 43.5t74 -23t18.5 -75.5
t-47.5 -48.5zM506 577q10 -25 9 -50.5t-11.5 -48t-29 -40.5t-56.5 -31.5t-87 9t-67 71.5t10 113t98 61.5t97 -31t37 -53.5zM673 1012q51 -22 69 -76q34 -80 -20 -134t-111.5 -50.5t-85.5 32t-38 54.5t-9 54t18.5 66t71.5 57t105 -3zM586.5 276.5q41.5 -18.5 55.5 -60.5
q25 -67 -27.5 -116.5t-117.5 -19.5t-64 86.5t25 80.5t55.5 36t73 -6.5zM1408 1024h-512v512h-764q-4 0 -4 -4v-1784q0 -4 4 -4h1272q4 0 4 4v1276zM1536 -252q0 -54 -39 -93t-93 -39h-1272q-54 0 -93 39t-39 93v1784q0 54 39 93t93 39h892l512 -512v-1404z" />
    <glyph glyph-name="florin" unicode="&#x192;" horiz-adv-x="766" 
d="M256 0v1280h-256l384 384l384 -384h-256v-1280h256l-384 -384l-384 384h256z" />
    <glyph glyph-name="circumflex" unicode="&#x2c6;" horiz-adv-x="2050" 
d="M1664 448q40 0 75 15t61 41t41 61t15 75t-15 75t-41 61t-61 41t-75 15t-75 -15t-61 -41t-41 -61t-15 -75t15 -75t41 -61t61 -41t75 -15zM1408 1390q0 71 20 117.5t55 81.5t81.5 55t126 20t154.5 -75t75 -195t-74 -171t-115 -62v-143q135 -24 226 -130t91 -256
t-112.5 -263t-271.5 -113q-60 0 -119 19l-189 -248q52 -67 52 -137t-20 -117t-55 -82t-81.5 -55t-99.5 -20t-99.5 20t-81.5 55t-55 81.5t-20 99.5t20 99.5t55 81.5t81.5 55t99.5 20t103 -22l175 229q-150 117 -150 305q0 59 16 111l-849 486q-77 -85 -187 -85t-185 75
t-75 181t75 181t181 75t181 -75t75 -181q0 -30 -6 -57l847 -485q97 129 250 153v140q-83 20 -139 90t-56 141z" />
    <glyph glyph-name="caron" unicode="&#x2c7;" horiz-adv-x="2050" 
d="M2048 -274q0 -18 -12 -30l-68 -68q-12 -12 -30 -12t-30 12l-244 244l-128 -128l-384 256l128 128l-128 128l256 256l128 -128l128 128l256 -384l-128 -128l244 -244q12 -12 12 -30zM768 1152h-640v-256h640v256zM768 768h-640v-256h640v256zM768 384h-640v-256h640v256z
M768 0h-640v-256h640v256zM896 896h640v256h-640v-256zM896 -256h256v-128h-1024q-70 6 -99 43.5t-29 84.5v1792q6 70 43.5 99t84.5 29h1408q75 0 110 -64q15 -28 18 -64l2 -896h-130v128h-640v-256h128v-128h-128v-256h128v-128h-128v-256z" />
    <glyph glyph-name="breve" unicode="&#x2d8;" horiz-adv-x="2050" 
d="M2048 -64q0 -133 -93.5 -226.5t-226.5 -93.5t-226.5 93.5t-93.5 226.5q0 42 11 83l-845 427q-96 -126 -242 -126t-239 93.5t-93 226.5t93.5 226.5t237.5 93.5t240 -122l847 427q-10 37 -10 91t25 112.5t68.5 102t102 68.5t124.5 25t124.5 -25t102 -68.5t68.5 -102
t25 -158t-93.5 -193t-239.5 -93.5t-241 126l-845 -426q11 -42 11 -84t-10 -79l846 -427q98 122 242 122t237 -93.5t93 -226.5z" />
    <glyph glyph-name="dotaccent" unicode="&#x2d9;" horiz-adv-x="2050" 
d="M1984 111q45 -26 59 -77.5t-12 -97t-77.5 -59.5t-97.5 12l-832 459l-832 -459q-73 -41 -128.5 -0.5t-62 93.5t16.5 84.5t46 44.5l960 529zM192 657q-73 -41 -128.5 -0.5t-62 93.5t16.5 84.5t46 44.5l960 529l960 -529q45 -26 59 -77.5t-12 -97t-77.5 -59.5t-97.5 12
l-832 459z" />
    <glyph glyph-name="ring" unicode="&#x2da;" horiz-adv-x="2050" 
d="M1998 128q21 0 35.5 -16t14.5 -37v-281q0 -50 -50 -50h-1564q-50 0 -50 50v281q0 21 14.5 37t35.5 16h1564zM1664 434q0 -50 -50 -50h-1564q-50 0 -50 50v412q0 50 50 50h1564q50 0 50 -50v-412zM1998 1536q50 0 50 -50v-281q0 -21 -14.5 -37t-35.5 -16h-1564
q-21 0 -35.5 16t-14.5 37v281q0 50 50 50h1564z" />
    <glyph glyph-name="ogonek" unicode="&#x2db;" horiz-adv-x="2302" 
d="M1472 864q40 0 68 28t28 68t-28 68t-68 28t-68 -28t-28 -68t28 -68t68 -28zM832 1248q40 0 68 28t28 68t-28 68t-68 28t-68 -28t-28 -68t28 -68t68 -28zM192 992q40 0 68 28t28 68t-28 68t-68 28t-68 -28t-28 -68t28 -68t68 -28zM2112 1568q-40 0 -68 -28t-28 -68t28 -68
t68 -28t68 28t28 68t-28 68t-68 28zM1664 956q0 -36 -15 -71t-41 -61t-61 -41t-95 -15t-116 56t-56 136q0 22 5 45l-317 204q-57 -57 -145 -57t-145 77l-294 -147q-2 -77 -58 -131.5t-135 -54.5t-135 56t-56 136t56 136t144 56t144 -75l296 148q4 78 60 130.5t134 52.5
t134 -56t56 -136v-6q0 -7 -1 -12l332 -214q53 40 113 40t107 -29l351 303q-6 22 -6 54t15 67t41 61t61 41t75 15t75 -15t61 -41t41 -61t15 -95t-56 -116t-128 -56t-123 38l-343 -296q10 -30 10 -66zM1280 512h384v-896h-384v896zM1920 1024h384v-1408h-384v1408zM640 896
h384v-1280h-384v1280zM0 640h384v-1024h-384v1024z" />
    <glyph glyph-name="tilde" unicode="&#x2dc;" horiz-adv-x="2047" 
d="M0 194q0 80 56 136l695 678l272 272l272 -272l697 -678q56 -56 56 -136t-56 -136t-136 -56t-136 56l-697 679l-695 -679q-56 -56 -136 -56t-136 56t-56 136z" />
    <glyph glyph-name="hungarumlaut" unicode="&#x2dd;" horiz-adv-x="2050" 
 />
    <glyph glyph-name="uni03A9" unicode="&#x3a9;" horiz-adv-x="2050" 
d="M0 896h1408v-384h-1408v384zM1024 128v-384h-1024v384h1024zM0 1664h2048v-384h-2048v384z" />
    <glyph glyph-name="pi" unicode="&#x3c0;" horiz-adv-x="2050" 
d="M1956 641q0 179 -72 361q-75 171 -202 294q-122 126 -293 202q-184 72 -362 72v-190q301 0 523 -216q218 -224 218 -523q0 -249 -151 -451l150 -113q189 261 189 564zM1024 0q135 0 251.5 49.5t203 136t136 203t49.5 251.5t-49.5 251.5t-136 203t-203 136t-251.5 49.5
t-251.5 -49.5t-203 -136t-136 -203t-49.5 -251.5t49.5 -251.5t136 -203t203 -136t251.5 -49.5zM1144 -379h-10q-7 -4 -16 -4h-26l-10 -3h-55q-280 0 -515 138.5t-373.5 373.5t-138.5 514.5t137 513.5t372.5 372t514.5 138t514 -137.5t372.5 -372.5t137.5 -514
q0 -352 -206 -622l-14 -19q-13 -13 -16 -20l-19 -20q-7 -10 -17 -19q-118 -128 -286 -215q-6 -6 -23 -13h-3l-20 -10h-2q-1 0 -1 -3q-6 0 -26 -10q-12 0 -17 -7q-4 0 -26 -9h-6l-43 -17h-9l-14 -6q-6 0 -9 -3q-19 0 -26 -7q-10 0 -17 -3h-9l-27 -7q-8 0 -16 -3h-10l-16 -3
h-10q-8 -3 -16 -3z" />
    <glyph glyph-name="endash" unicode="&#x2013;" horiz-adv-x="1536" 
d="M1536 -128h-1536v1536h1536v-1536z" />
    <glyph glyph-name="emdash" unicode="&#x2014;" horiz-adv-x="1922" 
d="M345 843q98 0 170.5 -46t107.5 -128l10 -28q54 -9 249 -58l188 -47q278 -65 473 94q81 68 124 161t38 193q-9 175 -180 306q-150 108 -350 141q-215 41 -466 -15q-327 -76 -440 -274q-65 -113 -55.5 -190.5t19 -90.5t39.5 -19t55 1h18zM395 283q-65 0 -115 26l-4 -4
q-18 -53 36 -133t78.5 -148.5t32.5 -150t-16 -154.5t-44 -103l-187 87q1 3 12.5 31.5t19.5 112.5t-72 203q-81 119 -81 224.5t66 185.5q-52 114 -11 220q-69 54 -90 127q-48 135 12 330t255 333q145 105 372 155q429 100 665.5 4.5t344.5 -177.5t177 -201.5t74 -256.5
q12 -227 -82.5 -353.5t-154.5 -176.5q-270 -228 -664 -137l-400 97q-66 -141 -224 -141z" />
    <glyph glyph-name="paus" unicode="&#x2016;" horiz-adv-x="2050" 
d="M640 128v-512l-640 640l640 640v-512h1024q48 0 74 2t38 14t14 38t2 74v768q0 48 -2 74t-14 38t-38 14t-74 2h-335q-20 0 -34.5 14.5t-14.5 34.5v158q0 20 14.5 34.5t34.5 14.5h463q149 0 202.5 -70.5t53.5 -226.5v-983q0 -142 -56.5 -199t-199.5 -57h-1152z" />
    <glyph glyph-name="quoteleft" unicode="&#x2018;" horiz-adv-x="1151" 
d="M640 185q0 -36 -33 -52v-137q0 -137 60.5 -163.5t118.5 -26.5t102 13t59 35t15 146v211q0 19 13 32t32 13h100q19 0 32 -13t13 -32v-211q0 -190 -65 -287t-251 -97q-126 0 -208 31t-117 68q-94 100 -94 287v131q-33 16 -33 52v199l-233 133q-23 17 -23 46v461h-71
q-24 0 -40.5 16.5t-16.5 40.5v142q0 24 16.5 40.5t40.5 16.5h199v310q0 39 12 56.5t50 17.5t52 -17.5t14 -56.5v-310h256v310q0 39 12.5 56.5t51.5 17.5t51.5 -17.5t12.5 -56.5v-310h199q24 0 40.5 -16.5t16.5 -40.5v-142q0 -24 -16.5 -40.5t-40.5 -16.5h-71v-461
q0 -29 -23 -46l-233 -133v-199z" />
    <glyph glyph-name="quoteright" unicode="&#x2019;" horiz-adv-x="1922" 
d="M1313 316v-513l-349 -187l-357 189v513l357 -167zM417 407v-500l-417 221v475zM1503 406l417 196v-474l-417 -223v501zM964 1334l-384 177l384 153l386 -155zM607 963l356 161l350 -161v-437l-350 -165l-356 167v435zM1193 1228l402 182l325 -130v-467l-417 -197v469z
M417 618l-417 195v467l336 134l399 -184l-318 -145v-467z" />
    <glyph glyph-name="quotesinglbase" unicode="&#x201a;" horiz-adv-x="1922" 
d="M1887 1536q0 -39 -28 -67l-835 -836l-384 384l-445 -444q-28 -28 -67 -28t-67 28t-28 67t28 67l579 580l384 -384l701 700q28 28 67 28t67 -28t28 -67zM1792 -256h-384v1024l384 384v-1408zM1152 -256h-384v896l256 -256l128 128v-768zM512 -256h-384v512l384 384v-896z
" />
    <glyph glyph-name="quotedblleft" unicode="&#x201c;" horiz-adv-x="2050" 
d="M1637 27q118 120 183 275q34 85 43 121q-157 -110 -432 -167q-53 -280 -148 -442q31 8 93 34q141 61 261 179zM412 27q138 -136 236 -172t118 -41q-98 170 -147 442q-275 57 -432 167q11 -52 39 -121q74 -161 186 -275zM589 664q0 132 20 280q-214 59 -308 167
q-113 -164 -137 -387l-4 -39q8 -42 91 -117t348 -145q-10 109 -10 241zM766 1464q-37 -9 -96 -35q-141 -62 -258 -177l-9 -10q5 -25 70.5 -68.5t161.5 -72.5q46 217 131 363zM1643 1238q0 6 -6 14q-120 118 -275 183q-40 20 -79 29q79 -135 131 -363q144 46 186.5 88.5
t42.5 48.5zM1026 888q-139 0 -263 20q-17 -136 -17 -262t17 -252q132 -17 259 -17t265 17q13 110 13 258t-17 256q-118 -20 -257 -20zM1024.5 1049q146.5 0 232.5 16q-21 115 -58 203t-61 127.5t-45.5 63.5t-39 34.5t-37 10.5t-77 -64.5t-96 -186.5t-51.5 -188
q86 -16 232.5 -16zM1024.5 217q-142.5 0 -238.5 13q29 -145 78 -252q42 -101 78 -141.5t54 -51t37 -10.5t64.5 51t93.5 161q47 110 69 243q-93 -13 -235.5 -13zM1460 664q0 -132 -10 -241q136 36 233 79q86 42 142 91.5t64 91.5q-13 184 -65.5 289t-75.5 137
q-93 -107 -308 -167q20 -148 20 -280zM2048 718v-79q0 -278 -137.5 -513t-373 -372.5t-513.5 -137.5t-513.5 137.5t-373 372.5t-137.5 513v85h3q22 262 163.5 476.5t368 339t490.5 124.5t490 -124.5t368 -342t162 -479.5h3z" />
    <glyph glyph-name="quotedblright" unicode="&#x201d;" horiz-adv-x="2050" 
d="M1024 768q-27 0 -50 -10t-40.5 -27.5t-27.5 -40.5t-10 -50t10 -50t27.5 -40.5t40.5 -27.5t50 -10t50 10t40.5 27.5t27.5 40.5t10 50t-10 50t-27.5 40.5t-40.5 27.5t-50 10zM768 896l768 256l-256 -768l-768 -256zM1022 1469q-252 0 -389.5 -92t-195.5 -150
q-241 -241 -241 -585t242 -586t584 -242t585 243t243 585t-243 585q-176 176 -339 209t-246 33zM1022 1664q141 0 272 -36.5t244.5 -103t206.5 -160t159.5 -207t103 -244t36.5 -271.5t-36.5 -272t-103 -244.5t-159.5 -206.5t-206.5 -159.5t-244.5 -103t-272 -36.5
t-271.5 36.5t-244 103t-207 159.5t-160 206.5t-103 244.5t-36.5 272t36.5 271.5t103 244t160 207t207 160t244 103t271.5 36.5z" />
    <glyph glyph-name="quotedblbase" unicode="&#x201e;" horiz-adv-x="2050" 
d="M1664 -128q27 0 50 10t40.5 27.5t27.5 40.5t10 50t-10 50t-27.5 40.5t-40.5 27.5t-50 10t-50 -10t-40.5 -27.5t-27.5 -40.5t-10 -50t10 -50t27.5 -40.5t40.5 -27.5t50 -10zM384 -128q27 0 50 10t40.5 27.5t27.5 40.5t10 50t-10 50t-27.5 40.5t-40.5 27.5t-50 10t-50 -10
t-40.5 -27.5t-27.5 -40.5t-10 -50t10 -50t27.5 -40.5t40.5 -27.5t50 -10zM1682 384q60 0 130.5 -30t153 -112.5t82.5 -241.5t-112.5 -271.5t-271.5 -112.5t-271.5 112.5t-112.5 280.5t133 281l-308 615q-39 -9 -81 -9t-81 9l-308 -615q133 -114 133 -282t-112.5 -280
t-271.5 -112t-271.5 112.5t-112.5 271.5t112.5 271.5t271.5 112.5q42 0 81 -9l308 615q-133 114 -133 282t112.5 280t271.5 112t271.5 -112.5t112.5 -280.5t-133 -281l308 -615q39 9 99 9z" />
    <glyph glyph-name="dagger" unicode="&#x2020;" horiz-adv-x="2816" 
d="M2176 640q0 -248 -145 -450q262 169 476 450q-211 283 -476 450q145 -202 145 -450zM1920 640q0 103 -38.5 196t-111.5 166t-166 111.5t-196 38.5t-196 -38.5t-166 -111.5t-111.5 -166t-38.5 -196t38.5 -196t111.5 -166t166 -111.5t196 -38.5t196 38.5t166 111.5
t111.5 166t38.5 196zM640 640q0 248 145 450q-262 -169 -476 -450q211 -283 476 -450q-145 202 -145 450zM1604 1536q364 0 845 -449q210 -196 367 -447q-229 -366 -517.5 -575t-505.5 -265t-581 -56t-844 448q-211 197 -368 448q228 364 516 574t506 266t582 56zM1584 640
q40 0 79 22q1 -5 1 -6v-16q0 -106 -75 -181t-181 -75t-181 75t-75 181t75 181t181 75h8q9 0 14 -1q-22 -39 -22 -79t13.5 -71.5t36.5 -54.5t54.5 -36.5t71.5 -13.5z" />
    <glyph glyph-name="daggerdbl" unicode="&#x2021;" horiz-adv-x="2559" 
d="M1955 822q0 45 -18.5 98.5t-76.5 117t-190 57.5q-21 0 -33 -3q47 -259 -73 -416q-54 -70 -131 -106q135 184 100 316t-43 152q-104 189 -241 228t-221 39t-170 -32.5t-191.5 -121.5t-135.5 -273q269 -20 401 -184q58 -72 77 -161q-102 120 -233 154t-245 24
q-128 -24 -214 -127t-86 -248t109 -252.5t261 -107.5h1317q157 0 267 106.5t110 257.5v7q0 151 -103.5 258.5t-249.5 111.5q13 60 13 105zM1039 1536q283 0 406 -120t162 -211q71 20 125 20q196 -1 310 -91t124.5 -164t12.5 -79q98 -45 180 -127q167 -175 167 -417v-14
q0 -176 -100 -322.5t-275 -221.5q-105 -44 -233 -44h-1317q-244 0 -424 174q-85 85 -119 167q-58 140 -58 253q0 225 140 392q54 69 141 123q0 7 9 7q4 3 8 3q22 257 213 455q117 111 213 149q167 68 315 68z" />
    <glyph glyph-name="bullet" unicode="&#x2022;" horiz-adv-x="2050" 
d="M1527 768h-246l383 384l384 -384h-256q-23 -366 -192.5 -574t-353.5 -264.5t-350 -57.5v-256l-384 384l384 384v-256q279 20 455 180.5t176 459.5zM2048 1608v-272q0 -23 -16.5 -39.5t-39.5 -16.5h-1424q-23 0 -39.5 16.5t-16.5 39.5v271q0 23 16.5 39.5t39.5 16.5
l1424 1q23 0 39.5 -16.5t16.5 -39.5zM328 1664q23 0 39.5 -16.5t16.5 -39.5v-272q0 -23 -16.5 -39.5t-39.5 -16.5h-272q-23 0 -39.5 16.5t-16.5 39.5v272q0 23 16.5 39.5t39.5 16.5h272zM328 1152q23 0 39.5 -16.5t16.5 -39.5v-1424q0 -23 -16.5 -39.5t-39.5 -16.5h-272
q-23 0 -39.5 16.5t-16.5 39.5v1424q0 23 16.5 39.5t39.5 16.5h272z" />
    <glyph glyph-name="ellipsis" unicode="&#x2026;" horiz-adv-x="2050" 
d="M1664 1280h-256l-384 -1280h256zM1024 1280h-256l-384 -1280h256zM1792 1664q96 0 176 -80t80 -176v-1536q0 -96 -80 -176t-176 -80h-1536q-96 0 -176 80t-80 176v1536q0 96 80 176t176 80h1536z" />
    <glyph glyph-name="perthousand" unicode="&#x2030;" horiz-adv-x="1793" 
d="M1775 1355q0 -17 -12 -29l-686 -686l686 -686q12 -12 12 -29t-12 -29l-123 -123q-12 -12 -29 -12t-29 12l-686 686l-686 -686q-12 -12 -29 -12t-29 12l-123 123q-12 12 -12 29t12 29l686 686l-686 686q-12 12 -12 29t12 29l123 123q12 12 29 12t29 -12l686 -686l686 686
q12 12 29 12t29 -12l123 -123q12 -12 12 -29z" />
    <glyph glyph-name="guilsinglleft" unicode="&#x2039;" horiz-adv-x="2430" 
d="M1216 512q66 0 124.5 -25t102 -68.5t68.5 -102t25 -124.5t-25 -124.5t-68.5 -102t-102 -68.5t-124.5 -25t-124.5 25t-102 68.5t-68.5 102t-25 124.5t25 124.5t68.5 102t102 68.5t124.5 25zM1799 512q-38 0 -38 39q0 23 7 30t62.5 69t149.5 158l-77 85q-137 137 -311 207
q-171 77 -381 77t-381 -77q-170 -66 -308 -204t-214 -315q-19 -46 -48 -115t-29 -191v-19h-231v19q0 320 179.5 580t461 406.5t570.5 146.5q421 0 635.5 -168.5t298.5 -269.5l214 204q15 15 34 15q39 0 39 -39v-596q0 -17 -12 -29.5t-27 -12.5h-594z" />
    <glyph glyph-name="guilsinglright" unicode="&#x203a;" horiz-adv-x="2050" 
d="M1458 256h-306v-351q0 -14 -9.5 -23.5t-23.5 -9.5h-190q-14 0 -23.5 9.5t-9.5 23.5v351h-306q-21 0 -29.5 20t6.5 35l434 434q10 10 23 10t23 -10l434 -434q23 -27 5.5 -41t-28.5 -14zM2048 1408v-256h-2048v256h2048z" />
    <glyph glyph-name="fraction" unicode="&#x2044;" horiz-adv-x="2050" 
d="M958 1024h330q49 0 84.5 -35.5t35.5 -84.5v-330q190 0 320 133t129 319t-131 316t-316 131t-319 -129t-133 -320zM1218 -59v758l-379 -379zM325 -194h758l-379 379zM190 699v-758l379 379zM325 834l379 -379l379 379h-758zM1408 1664q88 0 170 -23t153 -64.5t129.5 -100
t100 -129.5t64.5 -153t23 -170t-23 -170t-86 -190t-210.5 -194t-320.5 -86v-648q0 -49 -35.5 -84.5t-84.5 -35.5h-1168q-49 0 -84.5 35.5t-35.5 84.5v1168q0 49 35.5 84.5t84.5 35.5h648q0 265 153 418t276 187.5t211 34.5z" />
    <glyph glyph-name="Euro" unicode="&#x20ac;" horiz-adv-x="1151" 
d="M768 1408h384v-1536h-384v1536zM0 -128v1536h384v-1536h-384z" />
    <glyph glyph-name="trademark" unicode="&#x2122;" horiz-adv-x="2050" 
d="M2048 656q0 -156 -36.5 -287.5t-103.5 -245t-160.5 -207t-207 -160.5t-244.5 -103.5t-272 -36.5t-272 36.5t-303.5 138t-310.5 336t-138 513.5q0 339 200 608q12 17 33 19.5t37 -10.5l123 -100q15 -13 17.5 -32t-9.5 -35q-145 -203 -145 -450q0 -157 60 -297t166 -245.5
t246 -165.5t296 -60t296 60t246 166t166 246t60 296q0 248 -145 450q-12 16 -9.5 35t17.5 32l123 100q16 13 37 10.5t33 -19.5q95 -128 147.5 -282t52.5 -310zM896 1259q0 21 -21 21h-184q-14 0 -19.5 13t4.5 23l333 333q6 6 15 6t15 -6l333 -333q10 -10 4.5 -23t-19.5 -13
h-184q-21 0 -21 -21v-598q0 -21 -21 -21h-214q-21 0 -21 21v598z" />
    <glyph glyph-name="info" unicode="&#x2139;" horiz-adv-x="2050" 
d="M2048 620v-492l-1024 -512l-1024 512v492l640 404v-384l-384 -252l768 -388l770 386l-386 254v384zM556 1152q-30 0 -40.5 26t8.5 45l479 429q14 12 32 12t33 -12l456 -429q19 -19 8.5 -45t-40.5 -26h-340v-598q0 -17 -11 -29.5t-31 -12.5h-172q-20 0 -31 12.5t-11 29.5
v598h-340z" />
    <glyph glyph-name="left_thin" unicode="&#x2190;" 
d="M350 280h300q0 -62 -44 -106t-106 -44t-106 44t-44 106zM581 380q-13 0 -21.5 9t-8.5 21v20q0 12 8.5 21t21.5 9h19q13 0 21.5 -9t8.5 -21v-20q0 -12 -8.5 -21t-21.5 -9h-19zM401 380q-13 0 -21.5 9t-8.5 21v20q0 12 8.5 21t21.5 9h19q13 0 21.5 -9t8.5 -21v-20
q0 -12 -8.5 -21t-21.5 -9h-19zM710 540q0 12 -9 21t-21 9h-360q-13 0 -21.5 -9t-8.5 -21v-450q0 -13 8.5 -21.5t21.5 -8.5h360q12 0 21 8.5t9 21.5v450zM680 630q38 0 64 -26t26 -64v-450q0 -38 -26 -64t-64 -26h-360q-38 0 -64 26t-26 64v450q0 38 26 64t64 26h360z" />
    <glyph glyph-name="up_thin" unicode="&#x2191;" horiz-adv-x="2050" 
d="M722 -382l-30 10q-26 8 -36 35t1 62l616 1887q11 32 35 49t49 10l32 -10q25 -7 35 -35t0 -62l-615 -1888q-13 -32 -37 -49t-50 -9zM508 135q-19 0 -39 16l-45 42l-395 397q-32 39 -30 57t37 53l381 384l39 42q20 16 37 16t29 -10t36 -28t60 -68q24 -37 -1 -68l-326 -326
l294 -291q47 -48 51 -59t4 -24t-13 -30l-42 -45q-58 -58 -77 -58zM1411 1004q0 9 13 35l91 87q21 16 35 16t28 -12t24 -22t26 -24l394 -397q32 -33 31 -58t-34 -52l-382 -384q-12 -12 -33 -35q-22 -23 -48 -23t-77 58q-58 48 -58 80q0 15 16 36l323 323l-291 294
q-13 14 -25 24t-18 20q-15 25 -15 34z" />
    <glyph glyph-name="right_thin" unicode="&#x2192;" horiz-adv-x="2302" 
d="M1792 512h-256v-870q0 -12 -8 -19t-18 -7h-191q-27 0 -33 8t-6 34v1980q0 12 8 19t18 7h204q10 0 18 -7t8 -19v-870h256v384l512 -512l-512 -512v384zM985 1664q27 0 33 -8t6 -34v-1980q0 -12 -8 -19t-18 -7h-204q-10 0 -18 7t-8 19v870h-256v-384l-512 512l512 512v-384
h256v870q0 12 8 19t18 7h191z" />
    <glyph glyph-name="down_thin" unicode="&#x2193;" horiz-adv-x="2302" 
d="M1024 640q-27 0 -50 10t-40.5 27.5t-27.5 40.5t-10 50t10 50t27.5 40.5t40.5 27.5t50 10t50 -10t40.5 -27.5t27.5 -40.5t10 -50t-10 -50t-27.5 -40.5t-40.5 -27.5t-50 -10zM1024 1024q-53 0 -99.5 -20t-81.5 -55t-55 -81.5t-20 -99.5t20 -99.5t55 -81.5t81.5 -55
t99.5 -20t99.5 20t81.5 55t55 81.5t20 99.5t-20 99.5t-55 81.5t-81.5 55t-99.5 20zM768 1280q15 0 15 -15v-113h759q56 0 89 -35.5t33 -92.5v-512q0 -88 -50 -108t-78 -20h-1024q-55 0 -91.5 35t-36.5 93v512q0 88 50 108t78 20v113q0 15 15 15h241zM2176 1280h-128v-1282
q0 -52 -37 -89t-89 -37h-1538v-128h1792v1536zM128 0h1792v1536h-1792v-1536zM2178 1408q52 0 89 -37t37 -89v-1540q0 -52 -37 -89t-89 -37h-1796q-52 0 -89 37t-37 89v130h-130q-52 0 -89 37t-37 89v1540q0 52 37 89t89 37h1796q52 0 89 -37t37 -89v-130h130z" />
    <glyph glyph-name="level_up" unicode="&#x21b0;" horiz-adv-x="1793" 
d="M1735 512h-1678q-24 0 -40.5 16.5t-16.5 40.5v142q0 24 16.5 40.5t40.5 16.5h1678q24 0 40.5 -16.5t16.5 -40.5v-142q0 -24 -16.5 -40.5t-40.5 -16.5z" />
    <glyph glyph-name="level_down" unicode="&#x21b3;" horiz-adv-x="1279" 
d="M1152 0q27 0 50 -10t40.5 -27.5t27.5 -40.5t10 -50t-10 -50t-27.5 -40.5t-40.5 -27.5t-50 -10t-50 10t-40.5 27.5t-27.5 40.5t-10 50t10 50t27.5 40.5t40.5 27.5t50 10zM640 0q27 0 50 -10t40.5 -27.5t27.5 -40.5t10 -50t-10 -50t-27.5 -40.5t-40.5 -27.5t-50 -10t-50 10
t-40.5 27.5t-27.5 40.5t-10 50t10 50t27.5 40.5t40.5 27.5t50 10zM128 0q27 0 50 -10t40.5 -27.5t27.5 -40.5t10 -50t-10 -50t-27.5 -40.5t-40.5 -27.5t-50 -10t-50 10t-40.5 27.5t-27.5 40.5t-10 50t10 50t27.5 40.5t40.5 27.5t50 10zM1152 512q27 0 50 -10t40.5 -27.5
t27.5 -40.5t10 -50t-10 -50t-27.5 -40.5t-40.5 -27.5t-50 -10t-50 10t-40.5 27.5t-27.5 40.5t-10 50t10 50t27.5 40.5t40.5 27.5t50 10zM640 512q27 0 50 -10t40.5 -27.5t27.5 -40.5t10 -50t-10 -50t-27.5 -40.5t-40.5 -27.5t-50 -10t-50 10t-40.5 27.5t-27.5 40.5t-10 50
t10 50t27.5 40.5t40.5 27.5t50 10zM128 512q27 0 50 -10t40.5 -27.5t27.5 -40.5t10 -50t-10 -50t-27.5 -40.5t-40.5 -27.5t-50 -10t-50 10t-40.5 27.5t-27.5 40.5t-10 50t10 50t27.5 40.5t40.5 27.5t50 10zM1152 1024q27 0 50 -10t40.5 -27.5t27.5 -40.5t10 -50t-10 -50
t-27.5 -40.5t-40.5 -27.5t-50 -10t-50 10t-40.5 27.5t-27.5 40.5t-10 50t10 50t27.5 40.5t40.5 27.5t50 10zM640 1024q27 0 50 -10t40.5 -27.5t27.5 -40.5t10 -50t-10 -50t-27.5 -40.5t-40.5 -27.5t-50 -10t-50 10t-40.5 27.5t-27.5 40.5t-10 50t10 50t27.5 40.5t40.5 27.5
t50 10zM128 1024q27 0 50 -10t40.5 -27.5t27.5 -40.5t10 -50t-10 -50t-27.5 -40.5t-40.5 -27.5t-50 -10t-50 10t-40.5 27.5t-27.5 40.5t-10 50t10 50t27.5 40.5t40.5 27.5t50 10zM1152 1280q-27 0 -50 10t-40.5 27.5t-27.5 40.5t-10 50t10 50t27.5 40.5t40.5 27.5t50 10
t50 -10t40.5 -27.5t27.5 -40.5t10 -50t-10 -50t-27.5 -40.5t-40.5 -27.5t-50 -10zM640 1536q27 0 50 -10t40.5 -27.5t27.5 -40.5t10 -50t-10 -50t-27.5 -40.5t-40.5 -27.5t-50 -10t-50 10t-40.5 27.5t-27.5 40.5t-10 50t10 50t27.5 40.5t40.5 27.5t50 10zM128 1536
q27 0 50 -10t40.5 -27.5t27.5 -40.5t10 -50t-10 -50t-27.5 -40.5t-40.5 -27.5t-50 -10t-50 10t-40.5 27.5t-27.5 40.5t-10 50t10 50t27.5 40.5t40.5 27.5t50 10z" />
    <glyph glyph-name="switch" unicode="&#x21c6;" horiz-adv-x="2050" 
d="M350 280h300q0 -62 -44 -106t-106 -44t-106 44t-44 106zM581 380q-13 0 -21.5 9t-8.5 21v20q0 12 8.5 21t21.5 9h19q13 0 21.5 -9t8.5 -21v-20q0 -12 -8.5 -21t-21.5 -9h-19zM401 380q-13 0 -21.5 9t-8.5 21v20q0 12 8.5 21t21.5 9h19q13 0 21.5 -9t8.5 -21v-20
q0 -12 -8.5 -21t-21.5 -9h-19zM710 540q0 12 -9 21t-21 9h-360q-13 0 -21.5 -9t-8.5 -21v-450q0 -13 8.5 -21.5t21.5 -8.5h360q12 0 21 8.5t9 21.5v450zM680 630q38 0 64 -26t26 -64v-450q0 -38 -26 -64t-64 -26h-360q-38 0 -64 26t-26 64v450q0 38 26 64t64 26h360z" />
    <glyph glyph-name="partialdiff" unicode="&#x2202;" horiz-adv-x="2559" 
d="M2432 640q0 48 -2 74t-14 38t-38 14t-74 2h-1280q-48 0 -74 -2t-38 -14t-14 -38t-2 -74v-768q0 -48 2 -74t14 -38t38 -14t74 -2h1280q48 0 74 2t38 14t14 38t2 74v768zM2560 768v-1024q-4 -69 -42 -98.5t-86 -29.5h-1536q-69 4 -98.5 42t-29.5 86v640h-640
q-69 4 -98.5 42t-29.5 86v1024q4 69 42 98.5t86 29.5h1536q80 0 112 -64q14 -28 16 -64v-640l658 -2q54 -5 82 -41.5t28 -84.5z" />
    <glyph glyph-name="Delta" unicode="&#x2206;" horiz-adv-x="2687" 
d="M1280 128h1408v-256h-1408v256zM1280 768h1408v-256h-1408v256zM1280 1408h1408v-256h-1408v256zM384 256v1408h256v-1408h384l-512 -640l-512 640h384z" />
    <glyph glyph-name="product" unicode="&#x220f;" horiz-adv-x="2050" 
d="M1949 637q0 184 -72 361q-76 171 -201 292q-118 123 -292 201q-192 78 -360 78v-929l736 -565q189 254 189 562zM1352 -331q-6 0 -20 -10h-7l-19 -6h-7l-19 -7h-3l-20 -6h-6l-20 -7h-3l-23 -3h-3q-8 -3 -20 -3h-3q-12 -3 -23 -3l-6 -3h-26q-7 -4 -20 -4h-3q-16 0 -23 -3
h-55q-277 0 -512 138t-373 374t-138 514.5t138 513t372.5 372.5t513.5 138t513.5 -138t372.5 -372.5t138 -513.5q0 -346 -213 -623q-14 -20 -31 -39t-34 -39l-52 -52l-19 -16v-4l-52 -42l-7 -3l-19 -13v-3q-14 -10 -15 -10h-2l-16 -13l-23 -13q-5 -5 -6 -7l-10 -3
q-6 -6 -13 -6q-5 -7 -9 -7l-33 -19l-10 -4q-6 -6 -13 -6l-9 -7q-7 0 -13 -6q-13 0 -23 -10q-12 0 -26 -10h-2l-5 -3q-1 0 -16 -6h-6q-12 -7 -17 -7h-2z" />
    <glyph glyph-name="summation" unicode="&#x2211;" horiz-adv-x="2559" 
d="M2304 1536h-1536v-384q229 0 385 -20.5t350 -132.5t365 -359l247 236q24 26 42.5 18t18.5 -44v-594q0 -48 -2 -74t-14 -38t-38 -14t-74 -2h-593q-38 0 -45.5 19t16.5 45l221 228q-203 260 -400.5 368t-478.5 108v-1152h1536q80 0 112 64q14 28 16 64v1536q-4 69 -42 98.5
t-86 29.5zM128 -128q0 -80 64 -112q28 -14 64 -16h384v1152q-75 0 -155.5 -51t-108.5 -79t-63 -60t-57 -66q28 154 56.5 229t103.5 146q62 69 131.5 94t92.5 25v402h-384q-69 -4 -98.5 -42t-29.5 -86v-1536zM2304 1664q121 0 188.5 -67.5t67.5 -188.5v-1536
q0 -121 -67.5 -188.5t-188.5 -67.5h-2048q-182 0 -219 98t-37 158v1536q0 119 68.5 187.5t187.5 68.5h2048z" />
    <glyph glyph-name="radical" unicode="&#x221a;" horiz-adv-x="2050" 
d="M1664 512h-1280v-256l-384 384l384 384v-256h1280v256l384 -384l-384 -384v256z" />
    <glyph glyph-name="infinity" unicode="&#x221e;" horiz-adv-x="2050" 
d="M1088 0q26 0 45 19t19 45v128q0 26 -19 45t-45 19h-128q-26 0 -45 -19t-19 -45v-128q0 -26 19 -45t45 -19h128zM1088 512q26 0 45 19t19 45v640q0 26 -19 45t-45 19h-128q-26 0 -45 -19t-19 -45v-640q0 -26 19 -45t45 -19h128zM0 640q0 208 82 398q164 382 544 544
q189 82 398 82t397 -82q382 -163 545 -545q82 -188 82 -396.5t-82 -398.5q-164 -382 -545 -544q-188 -82 -396.5 -82t-398.5 82q-380 163 -545 544q-81 190 -81 398z" />
    <glyph glyph-name="integral" unicode="&#x222b;" horiz-adv-x="1922" 
d="M1824 -288v1856h-832v-1856h832zM896 1664h1024v-2048h-1920v1216h896v832z" />
    <glyph glyph-name="approxequal" unicode="&#x2248;" horiz-adv-x="2687" 
d="M1408 1152h-1408v256h1408v-256zM1408 512h-1408v256h1408v-256zM1408 -128h-1408v256h1408v-256zM2304 1024v-1408h-256v1408h-384l512 640l512 -640h-384z" />
    <glyph glyph-name="notequal" unicode="&#x2260;" horiz-adv-x="2050" 
d="M1792 1664q107 0 181.5 -74.5t74.5 -181.5v-1792l-2048 2048h1792z" />
    <glyph glyph-name="lessequal" unicode="&#x2264;" horiz-adv-x="2050" 
d="M1664 512h-640v256h640v256l384 -384l-384 -384v256zM0 37v1371q4 69 42 98.5t86 29.5h1152q69 -4 98.5 -42t29.5 -86v-384h-128v384h-1152q-5 0 0 -1.5t0 -1.5l640 -253v-1280h512v384h128v-384q-4 -69 -42 -98.5t-86 -29.5h-512v-256l-663 384q-41 24 -73 74t-32 91z
" />
    <glyph glyph-name="greaterequal" unicode="&#x2265;" horiz-adv-x="2302" 
d="M1408 768q48 0 74 -2t38 -14t14 -38t2 -74t-2 -74t-14 -38t-38 -14t-74 -2h-512q-48 0 -74 2t-38 14t-14 38t-2 74t2 74t14 38t38 14t74 2h512zM2176 971q0 26 -19.5 39.5t-26.5 13.5h-1945q-26 0 -41.5 -23t-15.5 -30v-843l384 -384h1280l384 384v843zM323 1152h1658
l-384 384h-890zM2304 -128q0 -94 -81 -175t-175 -81h-1792q-94 0 -175 81t-81 175v1152l640 640h1024l640 -640v-1152z" />
    <glyph glyph-name="circled_plus" unicode="&#x2295;" horiz-adv-x="2430" 
d="M1408 896h512v-128h-512v128zM1408 1152h768v-128h-768v128zM256 640h512v-128h-512v128zM256 896h768v-128h-768v128zM256 1152h768v-128h-768v128zM2304 -128v1536h-883q-40 0 -61 -21t-27 -34v-1l-53 -108v-1435q122 63 257 63h767zM894 -128q136 0 258 -63v1446
l-48 95q-35 58 -90 58h-886v-1536h766zM2432 1536v-1792h-895q-127 0 -236 -72l-83 -56l-86 56q-109 72 -238 72h-894v1792h1014q64 0 118 -33t83 -90l3 -5v1q29 59 83.5 93t119.5 34h1011z" />
    <glyph glyph-name="circled_minus" unicode="&#x2296;" horiz-adv-x="2050" 
d="M2048 768v-384h-128v128h-293l293 -512v-384l-256 256l-366 640h-548l-366 -640l-256 -256v384l293 512h-293v-128h-128v384h128v-128h366l146 256q121 -121 256 -128l-73 -128h402l-73 128q135 7 256 128l146 -256h366v128h128zM1024 1408q-27 0 -50 -10t-40.5 -27.5
t-27.5 -40.5t-10 -50t10 -50t27.5 -40.5t40.5 -27.5t50 -10t50 10t40.5 27.5t27.5 40.5t10 50t-10 50t-27.5 40.5t-40.5 27.5t-50 10zM640 1280q0 159 112.5 271.5t271.5 112.5t271.5 -112.5t112.5 -271.5t-112.5 -271.5t-271.5 -112.5t-271.5 112.5t-112.5 271.5z" />
    <glyph glyph-name="squared_plus" unicode="&#x229e;" horiz-adv-x="2050" 
d="M896 896v598q0 17 11 29.5t31 12.5h172q20 0 31 -12.5t11 -29.5v-598h340q30 0 40.5 -26t-8.5 -45l-479 -429q-14 -12 -32 -12t-33 12l-456 429q-19 19 -8.5 45t40.5 26h340zM2048 -256h-2048v384l384 512v-343l-128 -169h512v-128h512v128h514l-130 169v343l384 -512
v-384z" />
    <glyph glyph-name="squared_minus" unicode="&#x229f;" horiz-adv-x="2048" 
d="M1855 640q0 80 -56.5 136.5t-134.5 56.5t-135.5 -56.5t-57.5 -136.5t57 -135.5t136 -55.5t135 55.5t56 135.5zM1215 640q0 80 -56.5 136.5t-134.5 56.5t-135.5 -56.5t-57.5 -136.5t57 -135.5t136 -55.5t135 55.5t56 135.5zM575 640q0 80 -56.5 136.5t-134.5 56.5
t-135.5 -56.5t-57.5 -136.5t57.5 -135.5t136.5 -55.5t134.5 55.5t55.5 135.5zM1024 1664q141 0 272 -36.5t244.5 -103.5t207 -160.5t160.5 -207t103.5 -244.5t36.5 -272t-36.5 -272t-103.5 -244.5t-160.5 -207t-207 -160.5t-244.5 -103.5t-272 -36.5t-272 36.5t-244.5 103.5
t-207 160.5t-160.5 207t-103.5 244.5t-36.5 272t36.5 272t103.5 244.5t160.5 207t207 160.5t244.5 103.5t272 36.5z" />
    <glyph glyph-name="home" unicode="&#x2302;" horiz-adv-x="2048" 
d="M1024 256h-768v768h768v-768zM1920 1152h-1792v-1024h1792v1024zM1933 1280q48 0 81.5 -33.5t33.5 -81.5v-1050q0 -48 -33.5 -81.5t-81.5 -33.5h-1818q-48 0 -81.5 33.5t-33.5 81.5v1050q0 48 33.5 81.5t81.5 33.5h1818z" />
    <glyph glyph-name="keyboard" unicode="&#x2328;" horiz-adv-x="2048" 
d="M1408 256h-768v768h768v-768zM1920 1152h-1792v-1024h1792v1024zM1933 1280q48 0 81.5 -33.5t33.5 -81.5v-1050q0 -48 -33.5 -81.5t-81.5 -33.5h-1818q-48 0 -81.5 33.5t-33.5 81.5v1050q0 48 33.5 81.5t81.5 33.5h1818z" />
    <glyph glyph-name="erase" unicode="&#x232b;" horiz-adv-x="2048" 
d="M1792 256h-768v768h768v-768zM1920 1152h-1792v-1024h1792v1024zM1933 1280q48 0 81.5 -33.5t33.5 -81.5v-1050q0 -48 -33.5 -81.5t-81.5 -33.5h-1818q-48 0 -81.5 33.5t-33.5 81.5v1050q0 48 33.5 81.5t81.5 33.5h1818z" />
    <glyph glyph-name="ff" unicode="&#x23e9;" horiz-adv-x="2047" 
d="M1280 63q0 -26 18.5 -44.5t44.5 -18.5h514q26 0 44.5 18.5t18.5 44.5v2q0 26 -18.5 44.5t-44.5 18.5h-514q-26 0 -44.5 -18.5t-18.5 -44.5v-2zM1536 319q0 -26 18.5 -44.5t44.5 -18.5h2q26 0 44.5 18.5t18.5 44.5v2q0 26 -18.5 44.5t-44.5 18.5h-2q-26 0 -44.5 -18.5
t-18.5 -44.5v-2zM1664 -191q0 26 -18.5 44.5t-44.5 18.5h-2q-26 0 -44.5 -18.5t-18.5 -44.5v-2q0 -26 18.5 -44.5t44.5 -18.5h2q26 0 44.5 18.5t18.5 44.5v2zM1152 512h896v-896h-896v896zM1920 1217q0 26 -18.5 44.5t-44.5 18.5h-193v193q0 26 -18.5 44.5t-44.5 18.5h-2
q-26 0 -44.5 -18.5t-18.5 -44.5v-193h-193q-26 0 -44.5 -18.5t-18.5 -44.5v-2q0 -26 18.5 -44.5t44.5 -18.5h193v-193q0 -26 18.5 -44.5t44.5 -18.5h2q26 0 44.5 18.5t18.5 44.5v193h193q26 0 44.5 18.5t18.5 44.5v2zM2048 1664v-896h-896v896h896zM192 -128q0 -26 18 -45
t46 -19t45 19l147 147l147 -147q27 -30 54 -19.5t41 24.5t14 40t-19 45l-147 147l147 147q19 19 19 45t-19 45t-45 19t-45 -19l-147 -147l-147 147q-19 19 -45 19t-45 -19t-19 -45t19 -45l147 -147l-147 -147q-19 -19 -19 -45zM0 512h896v-896h-896v896zM128 1215
q0 -26 18.5 -44.5t44.5 -18.5h514q26 0 44.5 18.5t18.5 44.5v2q0 26 -18.5 44.5t-44.5 18.5h-514q-26 0 -44.5 -18.5t-18.5 -44.5v-2zM0 1664h896v-896h-896v896z" />
    <glyph glyph-name="fb" unicode="&#x23ea;" horiz-adv-x="2047" 
d="M1792 -128v384h256v-640h-640v256h384zM1408 1664h640v-640h-256v384h-384v256zM256 256v-384h384v-256h-640v640h256zM0 1664h640v-256h-384v-384h-256v640z" />
    <glyph glyph-name="to_end" unicode="&#x23ed;" horiz-adv-x="2047" 
d="M1024 896h1024v-1280h-384v384h-256v-384h-384v1280zM128 512v-256h256v256h-256zM128 1024v-256h256v256h-256zM128 1536v-256h256v256h-256zM512 512v-256h256v256h-256zM512 1024v-256h256v256h-256zM512 1536v-256h256v256h-256zM0 -384v2048h896v-2048h-896z" />
    <glyph glyph-name="to_start" unicode="&#x23ee;" horiz-adv-x="1794" 
d="M1346 255v514q0 172 -98.5 293t-268.5 161l-83 10l-83 -10q-171 -41 -269 -161t-98 -293v-514q0 -80 -55 -133v-1l-59 -59h1128l-59 59v1q-55 53 -55 133zM768 1536q0 128 128 128t128 -128v-128q234 -57 373 -227t139 -412v-408q0 -105 75 -180l147 -147q34 -34 34 -83
v-79h-640q0 -96 -80 -176t-176 -80t-176 80t-80 176h-640v79q0 49 34 83l147 147q75 75 75 180v408q0 242 139 412t373 227v128z" />
    <glyph glyph-name="hourglass" unicode="&#x23f3;" horiz-adv-x="2049" 
d="M1900 384q8 0 14 -6t6 -14v-88q0 -8 -6 -14t-14 -6h-344q-8 0 -14 6t-6 14v88q0 8 6 14t14 6h344zM1388 128q8 0 14 -6t6 -14v-344q0 -8 -6 -14t-14 -6h-88q-8 0 -14 6t-6 14v344q0 8 6 14t14 6h88zM148 896q-8 0 -14 6t-6 14v88q0 8 6 14t14 6h344q8 0 14 -6t6 -14v-88
q0 -8 -6 -14t-14 -6h-344zM660 1152q-8 0 -14 6t-6 14v344q0 8 6 14t14 6h88q8 0 14 -6t6 -14v-344q0 -8 -6 -14t-14 -6h-88zM1787 1126q0 29 -19 43l-215 215q-16 19 -44 19t-47 -19l-512 -513q-64 96 -52.5 211t94.5 198l288 290q96 94 230 94t228 -94l215 -215
q94 -96 94 -229.5t-94 -229.5l-289 -288q-81 -83 -197 -94.5t-212 52.5l513 512q19 19 19 48zM0 154.5q0 134.5 95 229.5l289 289q84 82 198.5 93.5t211.5 -51.5l-514 -513q-19 -19 -19 -48t19 -44l214 -213q23 -30 51 -21.5t40 21.5l514 513q64 -96 52.5 -210.5
t-94.5 -199.5l-290 -289q-93 -95 -228 -95t-230 95l-214 214q-95 95 -95 229.5z" />
    <glyph glyph-name="dot" unicode="&#x23f4;" horiz-adv-x="1536" 
d="M571 1283q66 0 66 61.5t-78 61.5q-105 0 -203 -98t-98 -219q0 -26 17.5 -44t43.5 -18t44 17.5t18 47.5q0 66 62 128.5t128 62.5zM0 1024q0 96 30 180.5t83.5 156t126.5 127.5t158.5 95.5t179.5 60t190 20.5t190 -20.5t179.5 -60t158.5 -95.5t126.5 -127.5t83.5 -156
t30 -180.5t-16.5 -170t-43.5 -132.5t-61.5 -105t-103 -125.5t-114.5 -156.5t-48 -206.5h-762q-2 110 -109.5 243.5t-149 200t-68.5 132.5t-43.5 145t-16.5 175zM384 0h768v-193q0 -26 -18.5 -44.5t-44.5 -18.5h-65v-65q0 -26 -18.5 -44.5t-44.5 -18.5h-386q-26 0 -44.5 18.5
t-18.5 44.5v65h-65q-26 0 -44.5 18.5t-18.5 44.5v193z" />
    <glyph glyph-name="two_dots" unicode="&#x23f5;" horiz-adv-x="2049" 
d="M1859 1216q0 52 -19.5 99t-56.5 84t-84 56.5t-99 19.5t-99 -19.5t-84 -56.5t-56.5 -84t-19.5 -99t19.5 -99t56.5 -84t84 -56.5t99 -19.5t99 19.5t84 56.5t56.5 84t19.5 99zM707 64q0 52 -19.5 99t-56.5 84t-84 56.5t-99 19.5t-99 -19.5t-84 -56.5t-56.5 -84t-19.5 -99
t19.5 -99t56.5 -84t84 -56.5t99 -19.5t99 19.5t84 56.5t56.5 84t19.5 99zM1152 1196q0 113 35 194.5t96 142.5t142.5 96t174.5 35t174.5 -35t142.5 -96t96 -142.5t35 -221t-131 -270.5t-317 -131q-132 0 -243 71l-98 -98q21 -47 21 -101q0 -106 -75 -181t-181 -75
q-55 0 -101 21l-98 -98q71 -111 71 -223t-35 -194t-96 -143t-142.5 -96t-174.5 -35t-174.5 35t-142.5 96t-96 142.5t-35 221t131 270.5t317 131q132 0 243 -71l98 98q-21 46 -21 100q0 107 75 182t181 75q54 0 101 -21l98 98q-71 110 -71 223z" />
    <glyph glyph-name="three_dots" unicode="&#x23f6;" horiz-adv-x="2049" 
d="M1729 384h-258q-26 0 -44.5 18.5t-18.5 44.5v2q0 26 18.5 44.5t44.5 18.5h258q26 0 44.5 -18.5t18.5 -44.5v-2q0 -26 -18.5 -44.5t-44.5 -18.5zM1217 -128h-2q-26 0 -44.5 18.5t-18.5 44.5v258q0 26 18.5 44.5t44.5 18.5h2q26 0 44.5 -18.5t18.5 -44.5v-258
q0 -26 -18.5 -44.5t-44.5 -18.5zM577 768h-258q-26 0 -44.5 18.5t-18.5 44.5v2q0 26 18.5 44.5t44.5 18.5h258q26 0 44.5 -18.5t18.5 -44.5v-2q0 -26 -18.5 -44.5t-44.5 -18.5zM833 1024h-2q-26 0 -44.5 18.5t-18.5 44.5v258q0 26 18.5 44.5t44.5 18.5h2q26 0 44.5 -18.5
t18.5 -44.5v-258q0 -26 -18.5 -44.5t-44.5 -18.5zM707 64q0 52 -19.5 99t-56.5 84t-84 56.5t-99 19.5t-99 -19.5t-84 -56.5t-56.5 -84t-19.5 -99t19.5 -99t56.5 -84t84 -56.5t99 -19.5t99 19.5t84 56.5t56.5 84t19.5 99zM469 512q111 0 222 -71l145 145q14 14 32.5 14
t32.5 -14l69 -69q14 -14 14 -32.5t-14 -32.5l-145 -145q71 -111 71 -222q0 -202 -126.5 -332.5t-313.5 -136.5t-324.5 131.5t-131.5 324.5t136.5 313.5t332.5 126.5zM1859 1216q0 52 -19.5 99t-56.5 84t-84 56.5t-99 19.5t-99 -19.5t-84 -56.5t-56.5 -84t-19.5 -99t19.5 -99
t56.5 -84t84 -56.5t99 -19.5t99 19.5t84 56.5t56.5 84t19.5 99zM1152 1195q0 202 126.5 332.5t313.5 136.5t324.5 -131.5t131.5 -324.5t-136.5 -313.5t-311.5 -126.5q-132 0 -243 71l-145 -145q-14 -14 -32.5 -14t-32.5 14l-69 69q-14 14 -14 32.5t14 32.5l145 145
q-71 111 -71 222z" />
    <glyph glyph-name="volume" unicode="&#x23f7;" horiz-adv-x="2302" 
d="M2176 1001q0 23 -26 23h-1999q-23 0 -23 -23v-1106q0 -23 23 -23h1999q26 0 26 23v1106zM2166 1408q80 0 109 -29t29 -109v-1388q0 -84 -29 -111t-109 -27h-2028q-84 0 -111 27t-27 111v1388q0 80 27 109t111 29h2028zM1219 383h701v-383h-701v383zM384 383h701v-383
h-701v383zM1219 896h701v-383h-701v383zM384 896h701v-383h-701v383z" />
    <glyph glyph-name="stop" unicode="&#x25a0;" horiz-adv-x="1793" 
d="M1132 823v164q0 -58 -69.5 -99.5t-166.5 -41.5t-166.5 41.5t-69.5 99.5v-164q0 -58 69 -99t167 -41t167 41t69 99zM185 1137q0 -58 69 -99t166.5 -41t166.5 41t69 99v149q-16 -84 -102 -105t-134 -21t-90.5 11t-74.5 30t-50.5 45t-18.5 69.5t69 84.5t145 41t120 -12
l140 88v-90q0 -58 69 -99t167 -41t167 41t69 99v90l140 -88q43 12 94 12t94 -11t75 -30t50.5 -44.5t18.5 -69.5t-69 -85t-163 -41t-162 36.5t-76 89.5v-149q0 -58 69 -99t166.5 -41t166.5 41t69 99v84l187 -117l-896 -592l-896 592l185 116v-83zM896 1449q-49 0 -92 11
t-75 30t-50.5 45t-18.5 55t18.5 54.5t50.5 44.5t75 30t92 11t92 -11t75 -30t50.5 -44.5t18.5 -54.5t-18.5 -55t-50.5 -45t-75 -30t-92 -11zM1024 -384v640l768 512v-640zM0 768l768 -512v-640l-768 512v640z" />
    <glyph glyph-name="triangle_up" unicode="&#x25b4;" horiz-adv-x="2302" 
 />
    <glyph glyph-name="play" unicode="&#x25b6;" horiz-adv-x="2049" 
d="M1886 512q0 45 -16.5 85t-48.5 72t-72 48.5t-85 16.5t-85 -16.5t-72 -48.5t-48.5 -72t-16.5 -85t16.5 -85t48.5 -72t72 -48.5t85 -16.5t85 16.5t72 48.5t48.5 72t16.5 85zM606 0q0 45 -16.5 85t-48.5 72t-72 48.5t-85 16.5t-85 -16.5t-72 -48.5t-48.5 -72t-16.5 -85
t16.5 -85t48.5 -72t72 -48.5t85 -16.5t85 16.5t72 48.5t48.5 72t16.5 85zM546 1280q0 -45 16.5 -85t48.5 -72t72 -48.5t85 -16.5t85 16.5t72 48.5t48.5 72t16.5 85t-16.5 85t-48.5 72t-72 48.5t-85 16.5t-85 -16.5t-72 -48.5t-48.5 -72t-16.5 -85zM1664 128
q-159 0 -271.5 112.5t-112.5 271.5v12t-4 54t-31 112t-77 121t-126.5 82t-115.5 25q-245 -215 -232 -441t39 -316q35 -76 35 -159q0 -161 -112.5 -273.5t-271.5 -112.5t-271.5 112.5t-112.5 275.5t80.5 238t126.5 99q251 197 272 481q9 125 -30 244q-65 96 -65 195
q0 178 112.5 290.5t266.5 112.5t262.5 -99t124.5 -244q66 -238 297 -356q101 -51 217 -69q159 0 271.5 -112.5t112.5 -271.5t-112.5 -271.5t-271.5 -112.5z" />
    <glyph glyph-name="triangle_right" unicode="&#x25b8;" horiz-adv-x="1536" 
d="M1536 1536v-474h-57q-15 123 -44 178q-47 88 -123 128t-200 40h-216v-1240q0 -187 34 -226q62 -70 203 -70h70v-128h-896v128h72q114 0 164 29t64 49q33 48 33 218v1240h-185q-141 0 -209 -25t-124 -105t-66 -216h-56v474h1536z" />
    <glyph glyph-name="triangle_down" unicode="&#x25be;" horiz-adv-x="2049" 
d="M1536 128h-512l198 198l-512 512l-198 -198v512h512l-198 -198l512 -512l198 198v-512zM1792 1280h-90q-16 0 -27 11t-11 27v90h-1280v-90q0 -16 -11 -27t-27 -11h-90v-1280h90q16 0 27 -11t11 -27v-90h1280v90q0 16 11 27t27 11h90v1280zM1920 1280v-1280h90
q16 0 27 -11t11 -27v-308q0 -16 -11 -27t-27 -11h-308q-16 0 -27 11t-11 27v90h-1280v-90q0 -16 -11 -27t-27 -11h-308q-16 0 -27 11t-11 27v308q0 16 11 27t27 11h90v1280h-90q-16 0 -27 11t-11 27v308q0 16 11 27t27 11h308q16 0 27 -11t11 -27v-90h1280v90q0 16 11 27
t27 11h308q16 0 27 -11t11 -27v-308q0 -16 -11 -27t-27 -11h-90z" />
    <glyph glyph-name="triangle_left" unicode="&#x25c2;" horiz-adv-x="2049" 
d="M1792 1280h-90q-16 0 -27 11t-11 27v90h-512v-90q0 -16 -11 -27t-27 -11h-180q-16 0 -27 11t-11 27v90h-512v-90q0 -16 -11 -27t-27 -11h-90v-512h90q16 0 27 -11t11 -27v-180q0 -16 -11 -27t-27 -11h-90v-512h90q16 0 27 -11t11 -27v-90h512v90q0 16 11 27t27 11h180
q16 0 27 -11t11 -27v-90h512v90q0 16 11 27t27 11h90v512h-90q-16 0 -27 11t-11 27v180q0 16 11 27t27 11h90v512zM1920 1280v-512h90q16 0 27 -11t11 -27v-180q0 -16 -11 -27t-27 -11h-90v-512h90q16 0 27 -11t11 -27v-308q0 -16 -11 -27t-27 -11h-308q-16 0 -27 11t-11 27
v90h-512v-90q0 -16 -11 -27t-27 -11h-180q-16 0 -27 11t-11 27v90h-512v-90q0 -16 -11 -27t-27 -11h-308q-16 0 -27 11t-11 27v308q0 16 11 27t27 11h90v512h-90q-16 0 -27 11t-11 27v180q0 16 11 27t27 11h90v512h-90q-16 0 -27 11t-11 27v308q0 16 11 27t27 11h308
q16 0 27 -11t11 -27v-90h512v90q0 16 11 27t27 11h180q16 0 27 -11t11 -27v-90h512v90q0 16 11 27t27 11h308q16 0 27 -11t11 -27v-308q0 -16 -11 -27t-27 -11h-90z" />
    <glyph glyph-name="lozenge" unicode="&#x25ca;" horiz-adv-x="2559" 
d="M1856 0q66 0 124.5 25t102 68.5t68.5 102t25 124.5t-25 124.5t-68.5 102t-102 68.5t-124.5 25t-124.5 -25t-102 -68.5t-68.5 -102t-25 -124.5t25 -124.5t68.5 -102t102 -68.5t124.5 -25zM2432 320q0 -186 -110 -338l215 -215q10 -10 10 -23t-10 -23l-82 -82
q-10 -10 -23 -10t-23 10l-215 215q-152 -110 -338 -110q-238 0 -407 169t-169 407t169 407t407 169t407 -169t169 -407zM929 1152q37 0 66 -29t29 -73v-955q0 -47 -29 -66q-19 -29 -66 -29h-194q-37 0 -66 29q-29 23 -29 66v955q0 38 29 73q45 29 66 29h194zM289 1536
q41 0 68 -27t27 -68v-1346q0 -46 -25 -66q-24 -29 -70 -29h-191q-40 0 -69 29q-29 23 -29 66v1346q0 37 31 66t67 29h191z" />
    <glyph glyph-name="record" unicode="&#x25cf;" horiz-adv-x="1536" 
d="M897 -342q0 -17 -12 -29t-29 -12h-174q-17 0 -29 12t-12 29v1529l-448 -400q-12 -12 -29 -12t-29 12l-123 123q-12 12 -12 29t12 29l757 695l755 -695q12 -12 12 -29t-12 -29l-123 -123q-12 -12 -29 -12t-29 12l-446 400v-1529z" />
    <glyph glyph-name="adjust" unicode="&#x25d1;" horiz-adv-x="1536" 
d="M639 1622q0 17 12 29t29 12h174q17 0 29 -12t12 -29v-1529l448 400q12 12 29 12t29 -12l123 -123q12 -12 12 -29t-12 -29l-757 -695l-755 695q-12 12 -12 29t12 29l123 123q12 12 29 12t29 -12l446 -400v1529z" />
    <glyph glyph-name="pie_chart" unicode="&#x25f4;" horiz-adv-x="2049" 
d="M1536 512h256v-785q0 -45 -33 -78t-78 -33h-1570q-45 0 -78 33t-33 78v1570q0 45 33 78t78 33h785v-256h-600q-17 0 -28.5 -11.5t-11.5 -28.5v-1200q0 -17 11.5 -28.5t28.5 -11.5h1200q17 0 28.5 11.5t11.5 28.5v600zM2006 1664q17 0 29.5 -12.5t12.5 -29.5v-814
q0 -17 -11.5 -28.5t-28.5 -11.5h-176q-17 0 -28.5 11.5t-11.5 28.5v419l-680 -680q-14 -14 -35 -14t-35 14l-111 111q-14 14 -14 35t14 35l680 680h-419q-17 0 -28.5 11.5t-11.5 28.5v176q0 17 11.5 28.5t28.5 11.5h814z" />
    <glyph glyph-name="cloud" unicode="&#x2601;" horiz-adv-x="2050" 
d="M1154 894v-252h584l126 126l-126 126h-584zM894 1278h-584l-126 -126l126 -126h584v252zM2026 768q0 -22 -16 -38l-195 -195q-23 -23 -56 -23h-607v-876q0 -8 -6 -14t-14 -6h-216q-8 0 -14 6t-6 14v1260h-607q-33 0 -56 23l-195 195q-16 16 -16 38t16 38l195 195
q23 23 56 23h607v129q0 51 36.5 89t90.5 38h2q52 0 89.5 -37.5t37.5 -89.5v-513h607q33 0 56 -23l195 -195q16 -16 16 -38z" />
    <glyph glyph-name="star" unicode="&#x2605;" horiz-adv-x="2050" 
d="M1985 1024q26 0 44.5 -18.5t18.5 -44.5v-642q0 -26 -18.5 -44.5t-44.5 -18.5h-2q-26 0 -44.5 18.5t-18.5 44.5v193h-253v-568q0 -29 -21 -50.5t-51 -21.5h-1139q-29 0 -50.5 21.5t-21.5 50.5v568h-256v-193q0 -26 -18.5 -44.5t-44.5 -18.5h-2q-26 0 -44.5 18.5
t-18.5 44.5v642q0 26 18.5 44.5t44.5 18.5h2q26 0 44.5 -18.5t18.5 -44.5v-193h256v568q0 30 21.5 51t50.5 21h1139q30 0 51 -21t21 -51v-568h253v193q0 26 18.5 44.5t44.5 18.5h2zM896 1280h-384v-1280h384v1280zM1539 1280h-515l3 -1280h509z" />
    <glyph glyph-name="star_empty" unicode="&#x2606;" horiz-adv-x="2050" 
d="M590 1024h306v351q0 14 9.5 23.5t23.5 9.5h190q14 0 23.5 -9.5t9.5 -23.5v-351h306q21 0 29.5 -20t-6.5 -35l-434 -434q-10 -10 -23 -10t-23 10l-434 434q-23 27 -5 41t28 14zM2048 128v-256h-2048v256h2048z" />
    <glyph glyph-name="cup" unicode="&#x2615;" horiz-adv-x="511" 
d="M352 107q98 -44 139 -139q45 -90 0 -191t-138 -140q-92 -45 -193 0t-139 138q-45 92 0 191t138 142q95 43 193 -1zM159 1174q-100 45 -138 137q-45 92 0 192t139 140q92 44 191 0t140 -139q45 -90 0 -190t-138 -143q-94 -42 -194 3zM352 875q98 -44 139 -139
q45 -90 0 -191t-138 -140q-92 -45 -193 0t-139 138q-45 92 0 191t138 142q95 43 193 -1z" />
    <glyph glyph-name="list" unicode="&#x2630;" horiz-adv-x="2561" 
d="M1157 121v353q0 14 9.5 23.5t24.5 9.5h191q14 0 23.5 -9.5t9.5 -23.5v-353h308q21 0 29.5 -20t-6.5 -35l-437 -437q-10 -10 -23 -10t-23 10l-437 437q-24 28 -6 42t29 13h308zM1042 1667q284 0 408.5 -120.5t163.5 -212.5q74 20 149 20q172 0 303 -101
q97 -79 109.5 -154.5t14.5 -81.5q100 -45 182 -127q168 -178 168 -420v-15q0 -120 -51 -231q-93 -218 -327 -316q-45 -20 -103 -31v243q110 39 179 132t69 211v7q0 150 -103.5 259t-251.5 113q13 60 13 106t-19 99.5t-77.5 117.5t-190.5 58q-21 0 -33 -3q47 -261 -74 -419
q-54 -70 -132 -107q88 119 91 250t-33 221q-102 189 -242.5 229t-224.5 40q-179 0 -324 -121.5t-175 -308.5q271 -20 404 -185q57 -70 77 -162q-104 121 -235.5 154.5t-245.5 24.5q-129 -24 -215.5 -127.5t-86.5 -237t80 -234t204 -130.5v-237q-193 25 -338 169
q-85 84 -133 194q-46 119 -46 232q0 224 141 391q52 68 142 124q0 7 9 7q4 3 8 3q22 257 215 458q118 112 214 151q167 68 317 68z" />
    <glyph glyph-name="moon" unicode="&#x263d;" horiz-adv-x="2050" 
d="M55 1664h1938q32 0 43.5 -20t11.5 -34.5t-8 -28.5l-739 -1040q-19 -28 -19 -64v-374q0 -42 -30 -72l-401 -401q-23 -23 -52 -10.5t-29 44.5v813q0 35 -20 64l-742 1040q-8 13 -8 28t11.5 35t43.5 20z" />
    <glyph glyph-name="heart_empty" unicode="&#x2661;" horiz-adv-x="2050" 
d="M640 1024q-106 0 -181 75t-75 181t75 181t181 75h1150q108 0 182 -75.5t74 -180.5t-74 -180.5t-182 -75.5h-1150zM1536 1408q-27 0 -50 -10t-40.5 -27.5t-27.5 -40.5t-10 -50t10 -50t27.5 -40.5t40.5 -27.5t50 -10t50 10t40.5 27.5t27.5 40.5t10 50t-10 50t-27.5 40.5
t-40.5 27.5t-50 10zM1024 1408q-27 0 -50 -10t-40.5 -27.5t-27.5 -40.5t-10 -50t10 -50t27.5 -40.5t40.5 -27.5t50 -10t50 10t40.5 27.5t27.5 40.5t10 50t-10 50t-27.5 40.5t-40.5 27.5t-50 10zM1792 640q0 -106 -75 -181t-181 -75h-1280q-106 0 -181 75t-75 181t75 181
t181 75h1280q106 0 181 -75t75 -181zM512 512q27 0 50 10t40.5 27.5t27.5 40.5t10 50t-10 50t-27.5 40.5t-40.5 27.5t-50 10t-50 -10t-40.5 -27.5t-27.5 -40.5t-10 -50t10 -50t27.5 -40.5t40.5 -27.5t50 -10zM1280 512q27 0 50 10t40.5 27.5t27.5 40.5t10 50t-10 50
t-27.5 40.5t-40.5 27.5t-50 10t-50 -10t-40.5 -27.5t-27.5 -40.5t-10 -50t10 -50t27.5 -40.5t40.5 -27.5t50 -10zM1790 256q108 0 182 -75.5t74 -180.5t-74 -180.5t-182 -75.5h-1024q-106 0 -181 75t-75 181t75 181t181 75h1024zM1280 -128q27 0 50 10t40.5 27.5t27.5 40.5
t10 50t-10 50t-27.5 40.5t-40.5 27.5t-50 10t-50 -10t-40.5 -27.5t-27.5 -40.5t-10 -50t10 -50t27.5 -40.5t40.5 -27.5t50 -10z" />
    <glyph glyph-name="heart" unicode="&#x2665;" horiz-adv-x="2050" 
d="M1920 1024q53 0 90.5 -37.5t37.5 -90.5v-1152q0 -53 -37.5 -90.5t-90.5 -37.5h-1150q-53 0 -90.5 37.5t-37.5 90.5v512h-513q-54 0 -91.5 37.5t-37.5 90.5v1152q0 53 37.5 90.5t91.5 37.5h1152q54 0 91.5 -37.5t37.5 -90.5v-512h510zM1129 1408q25 0 25 -25v-359h127v479
q0 14 -9.5 23.5t-23.5 9.5h-1086q-14 0 -24 -9.5t-10 -23.5v-1086q0 -14 10 -23.5t24 -9.5h1086q14 0 23.5 9.5t9.5 23.5v223h-127v-105q0 -10 -7 -17.5t-18 -7.5h-847q-10 0 -17.5 7.5t-7.5 17.5v848q0 11 7.5 18t17.5 7h847zM398 1280q-13 0 -13 -12v-617q0 -13 13 -13
h244v258q0 53 37.5 90.5t90.5 37.5h256v244q0 12 -13 12h-615zM1026 12q0 -12 12 -12h614q13 0 13 12v615q0 13 -13 13h-242v-256q0 -53 -37.5 -90.5t-91.5 -37.5h-255v-244zM923 -128q-25 0 -25 25v359h-128v-479q0 -14 9.5 -23.5t23.5 -9.5h1084q14 0 23.5 9.5t9.5 23.5
v1086q0 14 -9.5 23.5t-23.5 9.5h-1084q-14 0 -23.5 -9.5t-9.5 -23.5v-225h128v105q0 25 25 25h845q10 0 17.5 -7t7.5 -18v-846q0 -11 -7.5 -18t-17.5 -7h-845z" />
    <glyph glyph-name="note" unicode="&#x266a;" horiz-adv-x="2050" 
d="M1986 -128q26 0 45 -19t19 -45t-19 -45t-45 -19h-704v-4q0 -51 -36.5 -87.5t-87.5 -36.5h-264q-50 0 -87 35.5t-37 88.5v4h-706q-26 0 -45 19t-19 45t19 45t45 19h706v4q0 80 49 102t75 22h67v128h-705q-160 0 -224 128q-28 56 -32 128v1184q0 39 28.5 67.5t67.5 28.5
h651q127 0 193 -96l69 -133q15 -28 46 -28h737q160 0 224 -128q28 -56 32 -127v-768q-11 -197 -109.5 -226.5t-146.5 -29.5h-703v-128h69q51 0 87.5 -36.5t36.5 -87.5v-4h704zM128 372q0 -48 34 -82t82 -34h1560q48 0 82 34t34 82v780h-1792v-780z" />
    <glyph glyph-name="beamed_notes" unicode="&#x266b;" horiz-adv-x="2050" 
d="M1282 928q0 -15 -9.5 -24.5t-23.5 -9.5h-738v-307q0 -21 -20.5 -29.5t-35.5 6.5l-436 436q-9 10 -9 23t9 23l436 436q28 24 42 6t14 -29v-307h738q14 0 23.5 -10t9.5 -24v-190zM2036 253q0 -13 -10 -23l-436 -436q-28 -24 -42 -6t-13 29v307h-739q-14 0 -23.5 9.5
t-9.5 23.5v191q0 14 9.5 23.5t23.5 9.5h739v308q0 21 19 29.5t36 -6.5l436 -436q10 -10 10 -23z" />
    <glyph glyph-name="layout" unicode="&#x268f;" horiz-adv-x="2304" 
d="M2167 1407q55 0 96 -39.5t41 -98.5v-1260q0 -57 -40 -97t-97 -40h-2030q-57 0 -97 40t-40 97v1260q0 90 54 114t83 24h2030zM2070 1279h-1834l917 -688zM128 1200v-1122l748 561zM1152.5 458q-34.5 0 -62.5 21l-108 81l-746 -560h1834l-747 560l-108 -81
q-28 -21 -62.5 -21zM2176 80v1119l-746 -560z" />
    <glyph glyph-name="flag" unicode="&#x2691;" horiz-adv-x="2303" 
d="M2047 720q0 20 14.5 34t34.5 14h159q20 0 34.5 -14t14.5 -34v-927q0 -20 -14.5 -34t-34.5 -14h-2206q-20 0 -34.5 14t-14.5 34v1055q0 20 14.5 34t34.5 14h207v335q0 20 14.5 34.5t34.5 14.5h159q20 0 34.5 -14.5t14.5 -34.5v-847h255v336q0 20 14 34t34 14h208v719
q0 20 14 34.5t34 14.5h160q20 0 34 -14.5t14 -34.5v-207h208q20 0 34 -14.5t14 -34.5v-591h208q20 0 34 -14t14 -34v-336h255v464z" />
    <glyph glyph-name="tools" unicode="&#x2692;" horiz-adv-x="2303" 
d="M327 1664q23 0 40 -17t17 -40v-1934q0 -23 -17 -40t-40 -17h-270q-23 0 -40 17t-17 40v1934q0 23 17 40t40 17h270zM967 1664q23 0 40 -17t17 -40v-398q0 -23 -17 -40t-40 -17h-270q-23 0 -40 17t-17 40v398q0 23 17 40t40 17h270zM1607 1152q23 0 40 -17t17 -40v-398
q0 -23 -17 -40t-40 -17h-270q-23 0 -40 17t-17 40v398q0 23 17 40t40 17h270zM2247 640q23 0 40 -17t17 -40v-910q0 -23 -17 -40t-40 -17h-270q-23 0 -40 17t-17 40v910q0 23 17 40t40 17h270z" />
    <glyph glyph-name="cog" unicode="&#x2699;" horiz-adv-x="2561" 
d="M1152 244q0 -128 51 -258l-353 -353q-23 -23 -52 -10.5t-29 44.5v812q0 35 -20 64l-741 1038q-8 14 -8 28.5t11.5 34.5t43.5 20h1935q32 0 47.5 -28t-0.5 -55l-449 -632q-196 -93 -316 -280t-120 -425zM2279 520q0 42 -21 64q-35 36 -77 35.5t-71 -29.5l-191 -191
l-192 191q-43 46 -94.5 26.5t-63.5 -48.5t-12 -59t29 -59l192 -192l-192 -191q-29 -31 -29 -84t40.5 -69.5t70.5 -16.5t59 29l192 192l191 -192q49 -46 109 -21.5t60 78.5t-28 84l-192 191l192 192q28 28 28 70zM1917 897q267 0 450 -193t185.5 -455t-186.5 -451
q-192 -182 -453.5 -182t-453.5 182q-189 189 -187 451t187 457q191 191 458 191z" />
    <glyph glyph-name="warning" unicode="&#x26a0;" 
d="M350 280h300q0 -62 -44 -106t-106 -44t-106 44t-44 106zM581 380q-13 0 -21.5 9t-8.5 21v20q0 12 8.5 21t21.5 9h19q13 0 21.5 -9t8.5 -21v-20q0 -12 -8.5 -21t-21.5 -9h-19zM401 380q-13 0 -21.5 9t-8.5 21v20q0 12 8.5 21t21.5 9h19q13 0 21.5 -9t8.5 -21v-20
q0 -12 -8.5 -21t-21.5 -9h-19zM710 540q0 12 -9 21t-21 9h-360q-13 0 -21.5 -9t-8.5 -21v-450q0 -13 8.5 -21.5t21.5 -8.5h360q12 0 21 8.5t9 21.5v450zM680 630q38 0 64 -26t26 -64v-450q0 -38 -26 -64t-64 -26h-360q-38 0 -64 26t-26 64v450q0 38 26 64t64 26h360z" />
    <glyph glyph-name="bolt" unicode="&#x26a1;" 
d="M350 280h300q0 -62 -44 -106t-106 -44t-106 44t-44 106zM581 380q-13 0 -21.5 9t-8.5 21v20q0 12 8.5 21t21.5 9h19q13 0 21.5 -9t8.5 -21v-20q0 -12 -8.5 -21t-21.5 -9h-19zM401 380q-13 0 -21.5 9t-8.5 21v20q0 12 8.5 21t21.5 9h19q13 0 21.5 -9t8.5 -21v-20
q0 -12 -8.5 -21t-21.5 -9h-19zM710 540q0 12 -9 21t-21 9h-360q-13 0 -21.5 -9t-8.5 -21v-450q0 -13 8.5 -21.5t21.5 -8.5h360q12 0 21 8.5t9 21.5v450zM680 630q38 0 64 -26t26 -64v-450q0 -38 -26 -64t-64 -26h-360q-38 0 -64 26t-26 64v450q0 38 26 64t64 26h360z" />
    <glyph glyph-name="thunder_cloud" unicode="&#x26c8;" 
d="M350 280h300q0 -62 -44 -106t-106 -44t-106 44t-44 106zM581 380q-13 0 -21.5 9t-8.5 21v20q0 12 8.5 21t21.5 9h19q13 0 21.5 -9t8.5 -21v-20q0 -12 -8.5 -21t-21.5 -9h-19zM401 380q-13 0 -21.5 9t-8.5 21v20q0 12 8.5 21t21.5 9h19q13 0 21.5 -9t8.5 -21v-20
q0 -12 -8.5 -21t-21.5 -9h-19zM710 540q0 12 -9 21t-21 9h-360q-13 0 -21.5 -9t-8.5 -21v-450q0 -13 8.5 -21.5t21.5 -8.5h360q12 0 21 8.5t9 21.5v450zM680 630q38 0 64 -26t26 -64v-450q0 -38 -26 -64t-64 -26h-360q-38 0 -64 26t-26 64v450q0 38 26 64t64 26h360z" />
    <glyph glyph-name="voicemail" unicode="&#x2707;" 
d="M350 280h300q0 -62 -44 -106t-106 -44t-106 44t-44 106zM581 380q-13 0 -21.5 9t-8.5 21v20q0 12 8.5 21t21.5 9h19q13 0 21.5 -9t8.5 -21v-20q0 -12 -8.5 -21t-21.5 -9h-19zM401 380q-13 0 -21.5 9t-8.5 21v20q0 12 8.5 21t21.5 9h19q13 0 21.5 -9t8.5 -21v-20
q0 -12 -8.5 -21t-21.5 -9h-19zM710 540q0 12 -9 21t-21 9h-360q-13 0 -21.5 -9t-8.5 -21v-450q0 -13 8.5 -21.5t21.5 -8.5h360q12 0 21 8.5t9 21.5v450zM680 630q38 0 64 -26t26 -64v-450q0 -38 -26 -64t-64 -26h-360q-38 0 -64 26t-26 64v450q0 38 26 64t64 26h360z" />
    <glyph glyph-name="airplane" unicode="&#x2708;" 
d="M350 280h300q0 -62 -44 -106t-106 -44t-106 44t-44 106zM581 380q-13 0 -21.5 9t-8.5 21v20q0 12 8.5 21t21.5 9h19q13 0 21.5 -9t8.5 -21v-20q0 -12 -8.5 -21t-21.5 -9h-19zM401 380q-13 0 -21.5 9t-8.5 21v20q0 12 8.5 21t21.5 9h19q13 0 21.5 -9t8.5 -21v-20
q0 -12 -8.5 -21t-21.5 -9h-19zM710 540q0 12 -9 21t-21 9h-360q-13 0 -21.5 -9t-8.5 -21v-450q0 -13 8.5 -21.5t21.5 -8.5h360q12 0 21 8.5t9 21.5v450zM680 630q38 0 64 -26t26 -64v-450q0 -38 -26 -64t-64 -26h-360q-38 0 -64 26t-26 64v450q0 38 26 64t64 26h360z" />
    <glyph glyph-name="mail" unicode="&#x2709;" 
d="M350 280h300q0 -62 -44 -106t-106 -44t-106 44t-44 106zM581 380q-13 0 -21.5 9t-8.5 21v20q0 12 8.5 21t21.5 9h19q13 0 21.5 -9t8.5 -21v-20q0 -12 -8.5 -21t-21.5 -9h-19zM401 380q-13 0 -21.5 9t-8.5 21v20q0 12 8.5 21t21.5 9h19q13 0 21.5 -9t8.5 -21v-20
q0 -12 -8.5 -21t-21.5 -9h-19zM710 540q0 12 -9 21t-21 9h-360q-13 0 -21.5 -9t-8.5 -21v-450q0 -13 8.5 -21.5t21.5 -8.5h360q12 0 21 8.5t9 21.5v450zM680 630q38 0 64 -26t26 -64v-450q0 -38 -26 -64t-64 -26h-360q-38 0 -64 26t-26 64v450q0 38 26 64t64 26h360z" />
    <glyph glyph-name="pencil" unicode="&#x270e;" 
d="M350 280h300q0 -62 -44 -106t-106 -44t-106 44t-44 106zM581 380q-13 0 -21.5 9t-8.5 21v20q0 12 8.5 21t21.5 9h19q13 0 21.5 -9t8.5 -21v-20q0 -12 -8.5 -21t-21.5 -9h-19zM401 380q-13 0 -21.5 9t-8.5 21v20q0 12 8.5 21t21.5 9h19q13 0 21.5 -9t8.5 -21v-20
q0 -12 -8.5 -21t-21.5 -9h-19zM710 540q0 12 -9 21t-21 9h-360q-13 0 -21.5 -9t-8.5 -21v-450q0 -13 8.5 -21.5t21.5 -8.5h360q12 0 21 8.5t9 21.5v450zM680 630q38 0 64 -26t26 -64v-450q0 -38 -26 -64t-64 -26h-360q-38 0 -64 26t-26 64v450q0 38 26 64t64 26h360z" />
    <glyph glyph-name="feather" unicode="&#x2712;" 
d="M350 280h300q0 -62 -44 -106t-106 -44t-106 44t-44 106zM581 380q-13 0 -21.5 9t-8.5 21v20q0 12 8.5 21t21.5 9h19q13 0 21.5 -9t8.5 -21v-20q0 -12 -8.5 -21t-21.5 -9h-19zM401 380q-13 0 -21.5 9t-8.5 21v20q0 12 8.5 21t21.5 9h19q13 0 21.5 -9t8.5 -21v-20
q0 -12 -8.5 -21t-21.5 -9h-19zM710 540q0 12 -9 21t-21 9h-360q-13 0 -21.5 -9t-8.5 -21v-450q0 -13 8.5 -21.5t21.5 -8.5h360q12 0 21 8.5t9 21.5v450zM680 630q38 0 64 -26t26 -64v-450q0 -38 -26 -64t-64 -26h-360q-38 0 -64 26t-26 64v450q0 38 26 64t64 26h360z" />
    <glyph glyph-name="check" unicode="&#x2713;" 
d="M350 280h300q0 -62 -44 -106t-106 -44t-106 44t-44 106zM581 380q-13 0 -21.5 9t-8.5 21v20q0 12 8.5 21t21.5 9h19q13 0 21.5 -9t8.5 -21v-20q0 -12 -8.5 -21t-21.5 -9h-19zM401 380q-13 0 -21.5 9t-8.5 21v20q0 12 8.5 21t21.5 9h19q13 0 21.5 -9t8.5 -21v-20
q0 -12 -8.5 -21t-21.5 -9h-19zM710 540q0 12 -9 21t-21 9h-360q-13 0 -21.5 -9t-8.5 -21v-450q0 -13 8.5 -21.5t21.5 -8.5h360q12 0 21 8.5t9 21.5v450zM680 630q38 0 64 -26t26 -64v-450q0 -38 -26 -64t-64 -26h-360q-38 0 -64 26t-26 64v450q0 38 26 64t64 26h360z" />
    <glyph glyph-name="circled_cross" unicode="&#x2716;" 
d="M350 280h300q0 -62 -44 -106t-106 -44t-106 44t-44 106zM581 380q-13 0 -21.5 9t-8.5 21v20q0 12 8.5 21t21.5 9h19q13 0 21.5 -9t8.5 -21v-20q0 -12 -8.5 -21t-21.5 -9h-19zM401 380q-13 0 -21.5 9t-8.5 21v20q0 12 8.5 21t21.5 9h19q13 0 21.5 -9t8.5 -21v-20
q0 -12 -8.5 -21t-21.5 -9h-19zM710 540q0 12 -9 21t-21 9h-360q-13 0 -21.5 -9t-8.5 -21v-450q0 -13 8.5 -21.5t21.5 -8.5h360q12 0 21 8.5t9 21.5v450zM680 630q38 0 64 -26t26 -64v-450q0 -38 -26 -64t-64 -26h-360q-38 0 -64 26t-26 64v450q0 38 26 64t64 26h360z" />
    <glyph glyph-name="cross" unicode="&#x274c;" 
d="M350 280h300q0 -62 -44 -106t-106 -44t-106 44t-44 106zM581 380q-13 0 -21.5 9t-8.5 21v20q0 12 8.5 21t21.5 9h19q13 0 21.5 -9t8.5 -21v-20q0 -12 -8.5 -21t-21.5 -9h-19zM401 380q-13 0 -21.5 9t-8.5 21v20q0 12 8.5 21t21.5 9h19q13 0 21.5 -9t8.5 -21v-20
q0 -12 -8.5 -21t-21.5 -9h-19zM710 540q0 12 -9 21t-21 9h-360q-13 0 -21.5 -9t-8.5 -21v-450q0 -13 8.5 -21.5t21.5 -8.5h360q12 0 21 8.5t9 21.5v450zM680 630q38 0 64 -26t26 -64v-450q0 -38 -26 -64t-64 -26h-360q-38 0 -64 26t-26 64v450q0 38 26 64t64 26h360z" />
    <glyph glyph-name="squared_cross" unicode="&#x274e;" 
d="M350 280h300q0 -62 -44 -106t-106 -44t-106 44t-44 106zM581 380q-13 0 -21.5 9t-8.5 21v20q0 12 8.5 21t21.5 9h19q13 0 21.5 -9t8.5 -21v-20q0 -12 -8.5 -21t-21.5 -9h-19zM401 380q-13 0 -21.5 9t-8.5 21v20q0 12 8.5 21t21.5 9h19q13 0 21.5 -9t8.5 -21v-20
q0 -12 -8.5 -21t-21.5 -9h-19zM710 540q0 12 -9 21t-21 9h-360q-13 0 -21.5 -9t-8.5 -21v-450q0 -13 8.5 -21.5t21.5 -8.5h360q12 0 21 8.5t9 21.5v450zM680 630q38 0 64 -26t26 -64v-450q0 -38 -26 -64t-64 -26h-360q-38 0 -64 26t-26 64v450q0 38 26 64t64 26h360z" />
    <glyph glyph-name="help" unicode="&#x2753;" 
d="M350 280h300q0 -62 -44 -106t-106 -44t-106 44t-44 106zM581 380q-13 0 -21.5 9t-8.5 21v20q0 12 8.5 21t21.5 9h19q13 0 21.5 -9t8.5 -21v-20q0 -12 -8.5 -21t-21.5 -9h-19zM401 380q-13 0 -21.5 9t-8.5 21v20q0 12 8.5 21t21.5 9h19q13 0 21.5 -9t8.5 -21v-20
q0 -12 -8.5 -21t-21.5 -9h-19zM710 540q0 12 -9 21t-21 9h-360q-13 0 -21.5 -9t-8.5 -21v-450q0 -13 8.5 -21.5t21.5 -8.5h360q12 0 21 8.5t9 21.5v450zM680 630q38 0 64 -26t26 -64v-450q0 -38 -26 -64t-64 -26h-360q-38 0 -64 26t-26 64v450q0 38 26 64t64 26h360z" />
    <glyph glyph-name="quote" unicode="&#x275e;" 
d="M350 280h300q0 -62 -44 -106t-106 -44t-106 44t-44 106zM581 380q-13 0 -21.5 9t-8.5 21v20q0 12 8.5 21t21.5 9h19q13 0 21.5 -9t8.5 -21v-20q0 -12 -8.5 -21t-21.5 -9h-19zM401 380q-13 0 -21.5 9t-8.5 21v20q0 12 8.5 21t21.5 9h19q13 0 21.5 -9t8.5 -21v-20
q0 -12 -8.5 -21t-21.5 -9h-19zM710 540q0 12 -9 21t-21 9h-360q-13 0 -21.5 -9t-8.5 -21v-450q0 -13 8.5 -21.5t21.5 -8.5h360q12 0 21 8.5t9 21.5v450zM680 630q38 0 64 -26t26 -64v-450q0 -38 -26 -64t-64 -26h-360q-38 0 -64 26t-26 64v450q0 38 26 64t64 26h360z" />
    <glyph glyph-name="plus.001" unicode="&#x2795;" 
d="M350 280h300q0 -62 -44 -106t-106 -44t-106 44t-44 106zM581 380q-13 0 -21.5 9t-8.5 21v20q0 12 8.5 21t21.5 9h19q13 0 21.5 -9t8.5 -21v-20q0 -12 -8.5 -21t-21.5 -9h-19zM401 380q-13 0 -21.5 9t-8.5 21v20q0 12 8.5 21t21.5 9h19q13 0 21.5 -9t8.5 -21v-20
q0 -12 -8.5 -21t-21.5 -9h-19zM710 540q0 12 -9 21t-21 9h-360q-13 0 -21.5 -9t-8.5 -21v-450q0 -13 8.5 -21.5t21.5 -8.5h360q12 0 21 8.5t9 21.5v450zM680 630q38 0 64 -26t26 -64v-450q0 -38 -26 -64t-64 -26h-360q-38 0 -64 26t-26 64v450q0 38 26 64t64 26h360z" />
    <glyph glyph-name="minus" unicode="&#x2796;" 
d="M350 280h300q0 -62 -44 -106t-106 -44t-106 44t-44 106zM581 380q-13 0 -21.5 9t-8.5 21v20q0 12 8.5 21t21.5 9h19q13 0 21.5 -9t8.5 -21v-20q0 -12 -8.5 -21t-21.5 -9h-19zM401 380q-13 0 -21.5 9t-8.5 21v20q0 12 8.5 21t21.5 9h19q13 0 21.5 -9t8.5 -21v-20
q0 -12 -8.5 -21t-21.5 -9h-19zM710 540q0 12 -9 21t-21 9h-360q-13 0 -21.5 -9t-8.5 -21v-450q0 -13 8.5 -21.5t21.5 -8.5h360q12 0 21 8.5t9 21.5v450zM680 630q38 0 64 -26t26 -64v-450q0 -38 -26 -64t-64 -26h-360q-38 0 -64 26t-26 64v450q0 38 26 64t64 26h360z" />
    <glyph glyph-name="right" unicode="&#x27a1;" 
d="M350 280h300q0 -62 -44 -106t-106 -44t-106 44t-44 106zM581 380q-13 0 -21.5 9t-8.5 21v20q0 12 8.5 21t21.5 9h19q13 0 21.5 -9t8.5 -21v-20q0 -12 -8.5 -21t-21.5 -9h-19zM401 380q-13 0 -21.5 9t-8.5 21v20q0 12 8.5 21t21.5 9h19q13 0 21.5 -9t8.5 -21v-20
q0 -12 -8.5 -21t-21.5 -9h-19zM710 540q0 12 -9 21t-21 9h-360q-13 0 -21.5 -9t-8.5 -21v-450q0 -13 8.5 -21.5t21.5 -8.5h360q12 0 21 8.5t9 21.5v450zM680 630q38 0 64 -26t26 -64v-450q0 -38 -26 -64t-64 -26h-360q-38 0 -64 26t-26 64v450q0 38 26 64t64 26h360z" />
    <glyph glyph-name="direction" unicode="&#x27a2;" 
d="M350 280h300q0 -62 -44 -106t-106 -44t-106 44t-44 106zM581 380q-13 0 -21.5 9t-8.5 21v20q0 12 8.5 21t21.5 9h19q13 0 21.5 -9t8.5 -21v-20q0 -12 -8.5 -21t-21.5 -9h-19zM401 380q-13 0 -21.5 9t-8.5 21v20q0 12 8.5 21t21.5 9h19q13 0 21.5 -9t8.5 -21v-20
q0 -12 -8.5 -21t-21.5 -9h-19zM710 540q0 12 -9 21t-21 9h-360q-13 0 -21.5 -9t-8.5 -21v-450q0 -13 8.5 -21.5t21.5 -8.5h360q12 0 21 8.5t9 21.5v450zM680 630q38 0 64 -26t26 -64v-450q0 -38 -26 -64t-64 -26h-360q-38 0 -64 26t-26 64v450q0 38 26 64t64 26h360z" />
    <glyph glyph-name="forward" unicode="&#x27a6;" 
d="M350 280h300q0 -62 -44 -106t-106 -44t-106 44t-44 106zM581 380q-13 0 -21.5 9t-8.5 21v20q0 12 8.5 21t21.5 9h19q13 0 21.5 -9t8.5 -21v-20q0 -12 -8.5 -21t-21.5 -9h-19zM401 380q-13 0 -21.5 9t-8.5 21v20q0 12 8.5 21t21.5 9h19q13 0 21.5 -9t8.5 -21v-20
q0 -12 -8.5 -21t-21.5 -9h-19zM710 540q0 12 -9 21t-21 9h-360q-13 0 -21.5 -9t-8.5 -21v-450q0 -13 8.5 -21.5t21.5 -8.5h360q12 0 21 8.5t9 21.5v450zM680 630q38 0 64 -26t26 -64v-450q0 -38 -26 -64t-64 -26h-360q-38 0 -64 26t-26 64v450q0 38 26 64t64 26h360z" />
    <glyph glyph-name="ccw" unicode="&#x27f2;" 
d="M350 280h300q0 -62 -44 -106t-106 -44t-106 44t-44 106zM581 380q-13 0 -21.5 9t-8.5 21v20q0 12 8.5 21t21.5 9h19q13 0 21.5 -9t8.5 -21v-20q0 -12 -8.5 -21t-21.5 -9h-19zM401 380q-13 0 -21.5 9t-8.5 21v20q0 12 8.5 21t21.5 9h19q13 0 21.5 -9t8.5 -21v-20
q0 -12 -8.5 -21t-21.5 -9h-19zM710 540q0 12 -9 21t-21 9h-360q-13 0 -21.5 -9t-8.5 -21v-450q0 -13 8.5 -21.5t21.5 -8.5h360q12 0 21 8.5t9 21.5v450zM680 630q38 0 64 -26t26 -64v-450q0 -38 -26 -64t-64 -26h-360q-38 0 -64 26t-26 64v450q0 38 26 64t64 26h360z" />
    <glyph glyph-name="cw" unicode="&#x27f3;" 
d="M350 280h300q0 -62 -44 -106t-106 -44t-106 44t-44 106zM581 380q-13 0 -21.5 9t-8.5 21v20q0 12 8.5 21t21.5 9h19q13 0 21.5 -9t8.5 -21v-20q0 -12 -8.5 -21t-21.5 -9h-19zM401 380q-13 0 -21.5 9t-8.5 21v20q0 12 8.5 21t21.5 9h19q13 0 21.5 -9t8.5 -21v-20
q0 -12 -8.5 -21t-21.5 -9h-19zM710 540q0 12 -9 21t-21 9h-360q-13 0 -21.5 -9t-8.5 -21v-450q0 -13 8.5 -21.5t21.5 -8.5h360q12 0 21 8.5t9 21.5v450zM680 630q38 0 64 -26t26 -64v-450q0 -38 -26 -64t-64 -26h-360q-38 0 -64 26t-26 64v450q0 38 26 64t64 26h360z" />
    <glyph glyph-name="left" unicode="&#x2b05;" 
d="M350 280h300q0 -62 -44 -106t-106 -44t-106 44t-44 106zM581 380q-13 0 -21.5 9t-8.5 21v20q0 12 8.5 21t21.5 9h19q13 0 21.5 -9t8.5 -21v-20q0 -12 -8.5 -21t-21.5 -9h-19zM401 380q-13 0 -21.5 9t-8.5 21v20q0 12 8.5 21t21.5 9h19q13 0 21.5 -9t8.5 -21v-20
q0 -12 -8.5 -21t-21.5 -9h-19zM710 540q0 12 -9 21t-21 9h-360q-13 0 -21.5 -9t-8.5 -21v-450q0 -13 8.5 -21.5t21.5 -8.5h360q12 0 21 8.5t9 21.5v450zM680 630q38 0 64 -26t26 -64v-450q0 -38 -26 -64t-64 -26h-360q-38 0 -64 26t-26 64v450q0 38 26 64t64 26h360z" />
    <glyph glyph-name="up" unicode="&#x2b06;" 
d="M350 280h300q0 -62 -44 -106t-106 -44t-106 44t-44 106zM581 380q-13 0 -21.5 9t-8.5 21v20q0 12 8.5 21t21.5 9h19q13 0 21.5 -9t8.5 -21v-20q0 -12 -8.5 -21t-21.5 -9h-19zM401 380q-13 0 -21.5 9t-8.5 21v20q0 12 8.5 21t21.5 9h19q13 0 21.5 -9t8.5 -21v-20
q0 -12 -8.5 -21t-21.5 -9h-19zM710 540q0 12 -9 21t-21 9h-360q-13 0 -21.5 -9t-8.5 -21v-450q0 -13 8.5 -21.5t21.5 -8.5h360q12 0 21 8.5t9 21.5v450zM680 630q38 0 64 -26t26 -64v-450q0 -38 -26 -64t-64 -26h-360q-38 0 -64 26t-26 64v450q0 38 26 64t64 26h360z" />
    <glyph glyph-name="down" unicode="&#x2b07;" 
d="M350 280h300q0 -62 -44 -106t-106 -44t-106 44t-44 106zM581 380q-13 0 -21.5 9t-8.5 21v20q0 12 8.5 21t21.5 9h19q13 0 21.5 -9t8.5 -21v-20q0 -12 -8.5 -21t-21.5 -9h-19zM401 380q-13 0 -21.5 9t-8.5 21v20q0 12 8.5 21t21.5 9h19q13 0 21.5 -9t8.5 -21v-20
q0 -12 -8.5 -21t-21.5 -9h-19zM710 540q0 12 -9 21t-21 9h-360q-13 0 -21.5 -9t-8.5 -21v-450q0 -13 8.5 -21.5t21.5 -8.5h360q12 0 21 8.5t9 21.5v450zM680 630q38 0 64 -26t26 -64v-450q0 -38 -26 -64t-64 -26h-360q-38 0 -64 26t-26 64v450q0 38 26 64t64 26h360z" />
    <glyph glyph-name="add_to_list" unicode="&#xe003;" 
d="M350 280h300q0 -62 -44 -106t-106 -44t-106 44t-44 106zM581 380q-13 0 -21.5 9t-8.5 21v20q0 12 8.5 21t21.5 9h19q13 0 21.5 -9t8.5 -21v-20q0 -12 -8.5 -21t-21.5 -9h-19zM401 380q-13 0 -21.5 9t-8.5 21v20q0 12 8.5 21t21.5 9h19q13 0 21.5 -9t8.5 -21v-20
q0 -12 -8.5 -21t-21.5 -9h-19zM710 540q0 12 -9 21t-21 9h-360q-13 0 -21.5 -9t-8.5 -21v-450q0 -13 8.5 -21.5t21.5 -8.5h360q12 0 21 8.5t9 21.5v450zM680 630q38 0 64 -26t26 -64v-450q0 -38 -26 -64t-64 -26h-360q-38 0 -64 26t-26 64v450q0 38 26 64t64 26h360z" />
    <glyph glyph-name="numbered_list" unicode="&#xe005;" 
d="M350 280h300q0 -62 -44 -106t-106 -44t-106 44t-44 106zM581 380q-13 0 -21.5 9t-8.5 21v20q0 12 8.5 21t21.5 9h19q13 0 21.5 -9t8.5 -21v-20q0 -12 -8.5 -21t-21.5 -9h-19zM401 380q-13 0 -21.5 9t-8.5 21v20q0 12 8.5 21t21.5 9h19q13 0 21.5 -9t8.5 -21v-20
q0 -12 -8.5 -21t-21.5 -9h-19zM710 540q0 12 -9 21t-21 9h-360q-13 0 -21.5 -9t-8.5 -21v-450q0 -13 8.5 -21.5t21.5 -8.5h360q12 0 21 8.5t9 21.5v450zM680 630q38 0 64 -26t26 -64v-450q0 -38 -26 -64t-64 -26h-360q-38 0 -64 26t-26 64v450q0 38 26 64t64 26h360z" />
    <glyph glyph-name="left_bold" unicode="&#xe4ad;" 
d="M350 280h300q0 -62 -44 -106t-106 -44t-106 44t-44 106zM581 380q-13 0 -21.5 9t-8.5 21v20q0 12 8.5 21t21.5 9h19q13 0 21.5 -9t8.5 -21v-20q0 -12 -8.5 -21t-21.5 -9h-19zM401 380q-13 0 -21.5 9t-8.5 21v20q0 12 8.5 21t21.5 9h19q13 0 21.5 -9t8.5 -21v-20
q0 -12 -8.5 -21t-21.5 -9h-19zM710 540q0 12 -9 21t-21 9h-360q-13 0 -21.5 -9t-8.5 -21v-450q0 -13 8.5 -21.5t21.5 -8.5h360q12 0 21 8.5t9 21.5v450zM680 630q38 0 64 -26t26 -64v-450q0 -38 -26 -64t-64 -26h-360q-38 0 -64 26t-26 64v450q0 38 26 64t64 26h360z" />
    <glyph glyph-name="right_bold" unicode="&#xe4ae;" 
d="M350 280h300q0 -62 -44 -106t-106 -44t-106 44t-44 106zM581 380q-13 0 -21.5 9t-8.5 21v20q0 12 8.5 21t21.5 9h19q13 0 21.5 -9t8.5 -21v-20q0 -12 -8.5 -21t-21.5 -9h-19zM401 380q-13 0 -21.5 9t-8.5 21v20q0 12 8.5 21t21.5 9h19q13 0 21.5 -9t8.5 -21v-20
q0 -12 -8.5 -21t-21.5 -9h-19zM710 540q0 12 -9 21t-21 9h-360q-13 0 -21.5 -9t-8.5 -21v-450q0 -13 8.5 -21.5t21.5 -8.5h360q12 0 21 8.5t9 21.5v450zM680 630q38 0 64 -26t26 -64v-450q0 -38 -26 -64t-64 -26h-360q-38 0 -64 26t-26 64v450q0 38 26 64t64 26h360z" />
    <glyph glyph-name="up_bold" unicode="&#xe4af;" 
d="M350 280h300q0 -62 -44 -106t-106 -44t-106 44t-44 106zM581 380q-13 0 -21.5 9t-8.5 21v20q0 12 8.5 21t21.5 9h19q13 0 21.5 -9t8.5 -21v-20q0 -12 -8.5 -21t-21.5 -9h-19zM401 380q-13 0 -21.5 9t-8.5 21v20q0 12 8.5 21t21.5 9h19q13 0 21.5 -9t8.5 -21v-20
q0 -12 -8.5 -21t-21.5 -9h-19zM710 540q0 12 -9 21t-21 9h-360q-13 0 -21.5 -9t-8.5 -21v-450q0 -13 8.5 -21.5t21.5 -8.5h360q12 0 21 8.5t9 21.5v450zM680 630q38 0 64 -26t26 -64v-450q0 -38 -26 -64t-64 -26h-360q-38 0 -64 26t-26 64v450q0 38 26 64t64 26h360z" />
    <glyph glyph-name="down_bold" unicode="&#xe4b0;" 
d="M350 280h300q0 -62 -44 -106t-106 -44t-106 44t-44 106zM581 380q-13 0 -21.5 9t-8.5 21v20q0 12 8.5 21t21.5 9h19q13 0 21.5 -9t8.5 -21v-20q0 -12 -8.5 -21t-21.5 -9h-19zM401 380q-13 0 -21.5 9t-8.5 21v20q0 12 8.5 21t21.5 9h19q13 0 21.5 -9t8.5 -21v-20
q0 -12 -8.5 -21t-21.5 -9h-19zM710 540q0 12 -9 21t-21 9h-360q-13 0 -21.5 -9t-8.5 -21v-450q0 -13 8.5 -21.5t21.5 -8.5h360q12 0 21 8.5t9 21.5v450zM680 630q38 0 64 -26t26 -64v-450q0 -38 -26 -64t-64 -26h-360q-38 0 -64 26t-26 64v450q0 38 26 64t64 26h360z" />
    <glyph glyph-name="add_user" unicode="&#xe700;" 
d="M350 280h300q0 -62 -44 -106t-106 -44t-106 44t-44 106zM581 380q-13 0 -21.5 9t-8.5 21v20q0 12 8.5 21t21.5 9h19q13 0 21.5 -9t8.5 -21v-20q0 -12 -8.5 -21t-21.5 -9h-19zM401 380q-13 0 -21.5 9t-8.5 21v20q0 12 8.5 21t21.5 9h19q13 0 21.5 -9t8.5 -21v-20
q0 -12 -8.5 -21t-21.5 -9h-19zM710 540q0 12 -9 21t-21 9h-360q-13 0 -21.5 -9t-8.5 -21v-450q0 -13 8.5 -21.5t21.5 -8.5h360q12 0 21 8.5t9 21.5v450zM680 630q38 0 64 -26t26 -64v-450q0 -38 -26 -64t-64 -26h-360q-38 0 -64 26t-26 64v450q0 38 26 64t64 26h360z" />
    <glyph glyph-name="circled_help" unicode="&#xe704;" 
d="M350 280h300q0 -62 -44 -106t-106 -44t-106 44t-44 106zM581 380q-13 0 -21.5 9t-8.5 21v20q0 12 8.5 21t21.5 9h19q13 0 21.5 -9t8.5 -21v-20q0 -12 -8.5 -21t-21.5 -9h-19zM401 380q-13 0 -21.5 9t-8.5 21v20q0 12 8.5 21t21.5 9h19q13 0 21.5 -9t8.5 -21v-20
q0 -12 -8.5 -21t-21.5 -9h-19zM710 540q0 12 -9 21t-21 9h-360q-13 0 -21.5 -9t-8.5 -21v-450q0 -13 8.5 -21.5t21.5 -8.5h360q12 0 21 8.5t9 21.5v450zM680 630q38 0 64 -26t26 -64v-450q0 -38 -26 -64t-64 -26h-360q-38 0 -64 26t-26 64v450q0 38 26 64t64 26h360z" />
    <glyph glyph-name="circled_info" unicode="&#xe705;" 
d="M350 280h300q0 -62 -44 -106t-106 -44t-106 44t-44 106zM581 380q-13 0 -21.5 9t-8.5 21v20q0 12 8.5 21t21.5 9h19q13 0 21.5 -9t8.5 -21v-20q0 -12 -8.5 -21t-21.5 -9h-19zM401 380q-13 0 -21.5 9t-8.5 21v20q0 12 8.5 21t21.5 9h19q13 0 21.5 -9t8.5 -21v-20
q0 -12 -8.5 -21t-21.5 -9h-19zM710 540q0 12 -9 21t-21 9h-360q-13 0 -21.5 -9t-8.5 -21v-450q0 -13 8.5 -21.5t21.5 -8.5h360q12 0 21 8.5t9 21.5v450zM680 630q38 0 64 -26t26 -64v-450q0 -38 -26 -64t-64 -26h-360q-38 0 -64 26t-26 64v450q0 38 26 64t64 26h360z" />
    <glyph glyph-name="eye" unicode="&#xe70a;" 
d="M350 280h300q0 -62 -44 -106t-106 -44t-106 44t-44 106zM581 380q-13 0 -21.5 9t-8.5 21v20q0 12 8.5 21t21.5 9h19q13 0 21.5 -9t8.5 -21v-20q0 -12 -8.5 -21t-21.5 -9h-19zM401 380q-13 0 -21.5 9t-8.5 21v20q0 12 8.5 21t21.5 9h19q13 0 21.5 -9t8.5 -21v-20
q0 -12 -8.5 -21t-21.5 -9h-19zM710 540q0 12 -9 21t-21 9h-360q-13 0 -21.5 -9t-8.5 -21v-450q0 -13 8.5 -21.5t21.5 -8.5h360q12 0 21 8.5t9 21.5v450zM680 630q38 0 64 -26t26 -64v-450q0 -38 -26 -64t-64 -26h-360q-38 0 -64 26t-26 64v450q0 38 26 64t64 26h360z" />
    <glyph glyph-name="tag" unicode="&#xe70c;" 
d="M350 280h300q0 -62 -44 -106t-106 -44t-106 44t-44 106zM581 380q-13 0 -21.5 9t-8.5 21v20q0 12 8.5 21t21.5 9h19q13 0 21.5 -9t8.5 -21v-20q0 -12 -8.5 -21t-21.5 -9h-19zM401 380q-13 0 -21.5 9t-8.5 21v20q0 12 8.5 21t21.5 9h19q13 0 21.5 -9t8.5 -21v-20
q0 -12 -8.5 -21t-21.5 -9h-19zM710 540q0 12 -9 21t-21 9h-360q-13 0 -21.5 -9t-8.5 -21v-450q0 -13 8.5 -21.5t21.5 -8.5h360q12 0 21 8.5t9 21.5v450zM680 630q38 0 64 -26t26 -64v-450q0 -38 -26 -64t-64 -26h-360q-38 0 -64 26t-26 64v450q0 38 26 64t64 26h360z" />
    <glyph glyph-name="upload_cloud" unicode="&#xe711;" 
d="M350 280h300q0 -62 -44 -106t-106 -44t-106 44t-44 106zM581 380q-13 0 -21.5 9t-8.5 21v20q0 12 8.5 21t21.5 9h19q13 0 21.5 -9t8.5 -21v-20q0 -12 -8.5 -21t-21.5 -9h-19zM401 380q-13 0 -21.5 9t-8.5 21v20q0 12 8.5 21t21.5 9h19q13 0 21.5 -9t8.5 -21v-20
q0 -12 -8.5 -21t-21.5 -9h-19zM710 540q0 12 -9 21t-21 9h-360q-13 0 -21.5 -9t-8.5 -21v-450q0 -13 8.5 -21.5t21.5 -8.5h360q12 0 21 8.5t9 21.5v450zM680 630q38 0 64 -26t26 -64v-450q0 -38 -26 -64t-64 -26h-360q-38 0 -64 26t-26 64v450q0 38 26 64t64 26h360z" />
    <glyph glyph-name="reply" unicode="&#xe712;" 
d="M350 280h300q0 -62 -44 -106t-106 -44t-106 44t-44 106zM581 380q-13 0 -21.5 9t-8.5 21v20q0 12 8.5 21t21.5 9h19q13 0 21.5 -9t8.5 -21v-20q0 -12 -8.5 -21t-21.5 -9h-19zM401 380q-13 0 -21.5 9t-8.5 21v20q0 12 8.5 21t21.5 9h19q13 0 21.5 -9t8.5 -21v-20
q0 -12 -8.5 -21t-21.5 -9h-19zM710 540q0 12 -9 21t-21 9h-360q-13 0 -21.5 -9t-8.5 -21v-450q0 -13 8.5 -21.5t21.5 -8.5h360q12 0 21 8.5t9 21.5v450zM680 630q38 0 64 -26t26 -64v-450q0 -38 -26 -64t-64 -26h-360q-38 0 -64 26t-26 64v450q0 38 26 64t64 26h360z" />
    <glyph glyph-name="reply_all" unicode="&#xe713;" 
d="M350 280h300q0 -62 -44 -106t-106 -44t-106 44t-44 106zM581 380q-13 0 -21.5 9t-8.5 21v20q0 12 8.5 21t21.5 9h19q13 0 21.5 -9t8.5 -21v-20q0 -12 -8.5 -21t-21.5 -9h-19zM401 380q-13 0 -21.5 9t-8.5 21v20q0 12 8.5 21t21.5 9h19q13 0 21.5 -9t8.5 -21v-20
q0 -12 -8.5 -21t-21.5 -9h-19zM710 540q0 12 -9 21t-21 9h-360q-13 0 -21.5 -9t-8.5 -21v-450q0 -13 8.5 -21.5t21.5 -8.5h360q12 0 21 8.5t9 21.5v450zM680 630q38 0 64 -26t26 -64v-450q0 -38 -26 -64t-64 -26h-360q-38 0 -64 26t-26 64v450q0 38 26 64t64 26h360z" />
    <glyph glyph-name="code" unicode="&#xe714;" 
d="M350 280h300q0 -62 -44 -106t-106 -44t-106 44t-44 106zM581 380q-13 0 -21.5 9t-8.5 21v20q0 12 8.5 21t21.5 9h19q13 0 21.5 -9t8.5 -21v-20q0 -12 -8.5 -21t-21.5 -9h-19zM401 380q-13 0 -21.5 9t-8.5 21v20q0 12 8.5 21t21.5 9h19q13 0 21.5 -9t8.5 -21v-20
q0 -12 -8.5 -21t-21.5 -9h-19zM710 540q0 12 -9 21t-21 9h-360q-13 0 -21.5 -9t-8.5 -21v-450q0 -13 8.5 -21.5t21.5 -8.5h360q12 0 21 8.5t9 21.5v450zM680 630q38 0 64 -26t26 -64v-450q0 -38 -26 -64t-64 -26h-360q-38 0 -64 26t-26 64v450q0 38 26 64t64 26h360z" />
    <glyph glyph-name="export" unicode="&#xe715;" 
d="M350 280h300q0 -62 -44 -106t-106 -44t-106 44t-44 106zM581 380q-13 0 -21.5 9t-8.5 21v20q0 12 8.5 21t21.5 9h19q13 0 21.5 -9t8.5 -21v-20q0 -12 -8.5 -21t-21.5 -9h-19zM401 380q-13 0 -21.5 9t-8.5 21v20q0 12 8.5 21t21.5 9h19q13 0 21.5 -9t8.5 -21v-20
q0 -12 -8.5 -21t-21.5 -9h-19zM710 540q0 12 -9 21t-21 9h-360q-13 0 -21.5 -9t-8.5 -21v-450q0 -13 8.5 -21.5t21.5 -8.5h360q12 0 21 8.5t9 21.5v450zM680 630q38 0 64 -26t26 -64v-450q0 -38 -26 -64t-64 -26h-360q-38 0 -64 26t-26 64v450q0 38 26 64t64 26h360z" />
    <glyph glyph-name="print" unicode="&#xe716;" 
d="M350 280h300q0 -62 -44 -106t-106 -44t-106 44t-44 106zM581 380q-13 0 -21.5 9t-8.5 21v20q0 12 8.5 21t21.5 9h19q13 0 21.5 -9t8.5 -21v-20q0 -12 -8.5 -21t-21.5 -9h-19zM401 380q-13 0 -21.5 9t-8.5 21v20q0 12 8.5 21t21.5 9h19q13 0 21.5 -9t8.5 -21v-20
q0 -12 -8.5 -21t-21.5 -9h-19zM710 540q0 12 -9 21t-21 9h-360q-13 0 -21.5 -9t-8.5 -21v-450q0 -13 8.5 -21.5t21.5 -8.5h360q12 0 21 8.5t9 21.5v450zM680 630q38 0 64 -26t26 -64v-450q0 -38 -26 -64t-64 -26h-360q-38 0 -64 26t-26 64v450q0 38 26 64t64 26h360z" />
    <glyph glyph-name="retweet" unicode="&#xe717;" 
d="M350 280h300q0 -62 -44 -106t-106 -44t-106 44t-44 106zM581 380q-13 0 -21.5 9t-8.5 21v20q0 12 8.5 21t21.5 9h19q13 0 21.5 -9t8.5 -21v-20q0 -12 -8.5 -21t-21.5 -9h-19zM401 380q-13 0 -21.5 9t-8.5 21v20q0 12 8.5 21t21.5 9h19q13 0 21.5 -9t8.5 -21v-20
q0 -12 -8.5 -21t-21.5 -9h-19zM710 540q0 12 -9 21t-21 9h-360q-13 0 -21.5 -9t-8.5 -21v-450q0 -13 8.5 -21.5t21.5 -8.5h360q12 0 21 8.5t9 21.5v450zM680 630q38 0 64 -26t26 -64v-450q0 -38 -26 -64t-64 -26h-360q-38 0 -64 26t-26 64v450q0 38 26 64t64 26h360z" />
    <glyph glyph-name="comment" unicode="&#xe718;" 
d="M350 280h300q0 -62 -44 -106t-106 -44t-106 44t-44 106zM581 380q-13 0 -21.5 9t-8.5 21v20q0 12 8.5 21t21.5 9h19q13 0 21.5 -9t8.5 -21v-20q0 -12 -8.5 -21t-21.5 -9h-19zM401 380q-13 0 -21.5 9t-8.5 21v20q0 12 8.5 21t21.5 9h19q13 0 21.5 -9t8.5 -21v-20
q0 -12 -8.5 -21t-21.5 -9h-19zM710 540q0 12 -9 21t-21 9h-360q-13 0 -21.5 -9t-8.5 -21v-450q0 -13 8.5 -21.5t21.5 -8.5h360q12 0 21 8.5t9 21.5v450zM680 630q38 0 64 -26t26 -64v-450q0 -38 -26 -64t-64 -26h-360q-38 0 -64 26t-26 64v450q0 38 26 64t64 26h360z" />
    <glyph glyph-name="chat" unicode="&#xe720;" 
d="M350 280h300q0 -62 -44 -106t-106 -44t-106 44t-44 106zM581 380q-13 0 -21.5 9t-8.5 21v20q0 12 8.5 21t21.5 9h19q13 0 21.5 -9t8.5 -21v-20q0 -12 -8.5 -21t-21.5 -9h-19zM401 380q-13 0 -21.5 9t-8.5 21v20q0 12 8.5 21t21.5 9h19q13 0 21.5 -9t8.5 -21v-20
q0 -12 -8.5 -21t-21.5 -9h-19zM710 540q0 12 -9 21t-21 9h-360q-13 0 -21.5 -9t-8.5 -21v-450q0 -13 8.5 -21.5t21.5 -8.5h360q12 0 21 8.5t9 21.5v450zM680 630q38 0 64 -26t26 -64v-450q0 -38 -26 -64t-64 -26h-360q-38 0 -64 26t-26 64v450q0 38 26 64t64 26h360z" />
    <glyph glyph-name="vcard" unicode="&#xe722;" 
d="M350 280h300q0 -62 -44 -106t-106 -44t-106 44t-44 106zM581 380q-13 0 -21.5 9t-8.5 21v20q0 12 8.5 21t21.5 9h19q13 0 21.5 -9t8.5 -21v-20q0 -12 -8.5 -21t-21.5 -9h-19zM401 380q-13 0 -21.5 9t-8.5 21v20q0 12 8.5 21t21.5 9h19q13 0 21.5 -9t8.5 -21v-20
q0 -12 -8.5 -21t-21.5 -9h-19zM710 540q0 12 -9 21t-21 9h-360q-13 0 -21.5 -9t-8.5 -21v-450q0 -13 8.5 -21.5t21.5 -8.5h360q12 0 21 8.5t9 21.5v450zM680 630q38 0 64 -26t26 -64v-450q0 -38 -26 -64t-64 -26h-360q-38 0 -64 26t-26 64v450q0 38 26 64t64 26h360z" />
    <glyph glyph-name="address" unicode="&#xe723;" 
d="M350 280h300q0 -62 -44 -106t-106 -44t-106 44t-44 106zM581 380q-13 0 -21.5 9t-8.5 21v20q0 12 8.5 21t21.5 9h19q13 0 21.5 -9t8.5 -21v-20q0 -12 -8.5 -21t-21.5 -9h-19zM401 380q-13 0 -21.5 9t-8.5 21v20q0 12 8.5 21t21.5 9h19q13 0 21.5 -9t8.5 -21v-20
q0 -12 -8.5 -21t-21.5 -9h-19zM710 540q0 12 -9 21t-21 9h-360q-13 0 -21.5 -9t-8.5 -21v-450q0 -13 8.5 -21.5t21.5 -8.5h360q12 0 21 8.5t9 21.5v450zM680 630q38 0 64 -26t26 -64v-450q0 -38 -26 -64t-64 -26h-360q-38 0 -64 26t-26 64v450q0 38 26 64t64 26h360z" />
    <glyph glyph-name="location" unicode="&#xe724;" 
d="M350 280h300q0 -62 -44 -106t-106 -44t-106 44t-44 106zM581 380q-13 0 -21.5 9t-8.5 21v20q0 12 8.5 21t21.5 9h19q13 0 21.5 -9t8.5 -21v-20q0 -12 -8.5 -21t-21.5 -9h-19zM401 380q-13 0 -21.5 9t-8.5 21v20q0 12 8.5 21t21.5 9h19q13 0 21.5 -9t8.5 -21v-20
q0 -12 -8.5 -21t-21.5 -9h-19zM710 540q0 12 -9 21t-21 9h-360q-13 0 -21.5 -9t-8.5 -21v-450q0 -13 8.5 -21.5t21.5 -8.5h360q12 0 21 8.5t9 21.5v450zM680 630q38 0 64 -26t26 -64v-450q0 -38 -26 -64t-64 -26h-360q-38 0 -64 26t-26 64v450q0 38 26 64t64 26h360z" />
    <glyph glyph-name="map" unicode="&#xe727;" 
d="M350 280h300q0 -62 -44 -106t-106 -44t-106 44t-44 106zM581 380q-13 0 -21.5 9t-8.5 21v20q0 12 8.5 21t21.5 9h19q13 0 21.5 -9t8.5 -21v-20q0 -12 -8.5 -21t-21.5 -9h-19zM401 380q-13 0 -21.5 9t-8.5 21v20q0 12 8.5 21t21.5 9h19q13 0 21.5 -9t8.5 -21v-20
q0 -12 -8.5 -21t-21.5 -9h-19zM710 540q0 12 -9 21t-21 9h-360q-13 0 -21.5 -9t-8.5 -21v-450q0 -13 8.5 -21.5t21.5 -8.5h360q12 0 21 8.5t9 21.5v450zM680 630q38 0 64 -26t26 -64v-450q0 -38 -26 -64t-64 -26h-360q-38 0 -64 26t-26 64v450q0 38 26 64t64 26h360z" />
    <glyph glyph-name="compass" unicode="&#xe728;" 
d="M350 280h300q0 -62 -44 -106t-106 -44t-106 44t-44 106zM581 380q-13 0 -21.5 9t-8.5 21v20q0 12 8.5 21t21.5 9h19q13 0 21.5 -9t8.5 -21v-20q0 -12 -8.5 -21t-21.5 -9h-19zM401 380q-13 0 -21.5 9t-8.5 21v20q0 12 8.5 21t21.5 9h19q13 0 21.5 -9t8.5 -21v-20
q0 -12 -8.5 -21t-21.5 -9h-19zM710 540q0 12 -9 21t-21 9h-360q-13 0 -21.5 -9t-8.5 -21v-450q0 -13 8.5 -21.5t21.5 -8.5h360q12 0 21 8.5t9 21.5v450zM680 630q38 0 64 -26t26 -64v-450q0 -38 -26 -64t-64 -26h-360q-38 0 -64 26t-26 64v450q0 38 26 64t64 26h360z" />
    <glyph glyph-name="trash" unicode="&#xe729;" 
d="M350 280h300q0 -62 -44 -106t-106 -44t-106 44t-44 106zM581 380q-13 0 -21.5 9t-8.5 21v20q0 12 8.5 21t21.5 9h19q13 0 21.5 -9t8.5 -21v-20q0 -12 -8.5 -21t-21.5 -9h-19zM401 380q-13 0 -21.5 9t-8.5 21v20q0 12 8.5 21t21.5 9h19q13 0 21.5 -9t8.5 -21v-20
q0 -12 -8.5 -21t-21.5 -9h-19zM710 540q0 12 -9 21t-21 9h-360q-13 0 -21.5 -9t-8.5 -21v-450q0 -13 8.5 -21.5t21.5 -8.5h360q12 0 21 8.5t9 21.5v450zM680 630q38 0 64 -26t26 -64v-450q0 -38 -26 -64t-64 -26h-360q-38 0 -64 26t-26 64v450q0 38 26 64t64 26h360z" />
    <glyph glyph-name="doc" unicode="&#xe730;" 
d="M350 280h300q0 -62 -44 -106t-106 -44t-106 44t-44 106zM581 380q-13 0 -21.5 9t-8.5 21v20q0 12 8.5 21t21.5 9h19q13 0 21.5 -9t8.5 -21v-20q0 -12 -8.5 -21t-21.5 -9h-19zM401 380q-13 0 -21.5 9t-8.5 21v20q0 12 8.5 21t21.5 9h19q13 0 21.5 -9t8.5 -21v-20
q0 -12 -8.5 -21t-21.5 -9h-19zM710 540q0 12 -9 21t-21 9h-360q-13 0 -21.5 -9t-8.5 -21v-450q0 -13 8.5 -21.5t21.5 -8.5h360q12 0 21 8.5t9 21.5v450zM680 630q38 0 64 -26t26 -64v-450q0 -38 -26 -64t-64 -26h-360q-38 0 -64 26t-26 64v450q0 38 26 64t64 26h360z" />
    <glyph glyph-name="text_doc_inverted" unicode="&#xe731;" 
d="M350 280h300q0 -62 -44 -106t-106 -44t-106 44t-44 106zM581 380q-13 0 -21.5 9t-8.5 21v20q0 12 8.5 21t21.5 9h19q13 0 21.5 -9t8.5 -21v-20q0 -12 -8.5 -21t-21.5 -9h-19zM401 380q-13 0 -21.5 9t-8.5 21v20q0 12 8.5 21t21.5 9h19q13 0 21.5 -9t8.5 -21v-20
q0 -12 -8.5 -21t-21.5 -9h-19zM710 540q0 12 -9 21t-21 9h-360q-13 0 -21.5 -9t-8.5 -21v-450q0 -13 8.5 -21.5t21.5 -8.5h360q12 0 21 8.5t9 21.5v450zM680 630q38 0 64 -26t26 -64v-450q0 -38 -26 -64t-64 -26h-360q-38 0 -64 26t-26 64v450q0 38 26 64t64 26h360z" />
    <glyph glyph-name="docs" unicode="&#xe736;" 
d="M350 280h300q0 -62 -44 -106t-106 -44t-106 44t-44 106zM581 380q-13 0 -21.5 9t-8.5 21v20q0 12 8.5 21t21.5 9h19q13 0 21.5 -9t8.5 -21v-20q0 -12 -8.5 -21t-21.5 -9h-19zM401 380q-13 0 -21.5 9t-8.5 21v20q0 12 8.5 21t21.5 9h19q13 0 21.5 -9t8.5 -21v-20
q0 -12 -8.5 -21t-21.5 -9h-19zM710 540q0 12 -9 21t-21 9h-360q-13 0 -21.5 -9t-8.5 -21v-450q0 -13 8.5 -21.5t21.5 -8.5h360q12 0 21 8.5t9 21.5v450zM680 630q38 0 64 -26t26 -64v-450q0 -38 -26 -64t-64 -26h-360q-38 0 -64 26t-26 64v450q0 38 26 64t64 26h360z" />
    <glyph glyph-name="landscape_doc" unicode="&#xe737;" 
d="M350 280h300q0 -62 -44 -106t-106 -44t-106 44t-44 106zM581 380q-13 0 -21.5 9t-8.5 21v20q0 12 8.5 21t21.5 9h19q13 0 21.5 -9t8.5 -21v-20q0 -12 -8.5 -21t-21.5 -9h-19zM401 380q-13 0 -21.5 9t-8.5 21v20q0 12 8.5 21t21.5 9h19q13 0 21.5 -9t8.5 -21v-20
q0 -12 -8.5 -21t-21.5 -9h-19zM710 540q0 12 -9 21t-21 9h-360q-13 0 -21.5 -9t-8.5 -21v-450q0 -13 8.5 -21.5t21.5 -8.5h360q12 0 21 8.5t9 21.5v450zM680 630q38 0 64 -26t26 -64v-450q0 -38 -26 -64t-64 -26h-360q-38 0 -64 26t-26 64v450q0 38 26 64t64 26h360z" />
    <glyph glyph-name="rss" unicode="&#xe73a;" 
d="M350 280h300q0 -62 -44 -106t-106 -44t-106 44t-44 106zM581 380q-13 0 -21.5 9t-8.5 21v20q0 12 8.5 21t21.5 9h19q13 0 21.5 -9t8.5 -21v-20q0 -12 -8.5 -21t-21.5 -9h-19zM401 380q-13 0 -21.5 9t-8.5 21v20q0 12 8.5 21t21.5 9h19q13 0 21.5 -9t8.5 -21v-20
q0 -12 -8.5 -21t-21.5 -9h-19zM710 540q0 12 -9 21t-21 9h-360q-13 0 -21.5 -9t-8.5 -21v-450q0 -13 8.5 -21.5t21.5 -8.5h360q12 0 21 8.5t9 21.5v450zM680 630q38 0 64 -26t26 -64v-450q0 -38 -26 -64t-64 -26h-360q-38 0 -64 26t-26 64v450q0 38 26 64t64 26h360z" />
    <glyph glyph-name="share" unicode="&#xe73c;" 
d="M350 280h300q0 -62 -44 -106t-106 -44t-106 44t-44 106zM581 380q-13 0 -21.5 9t-8.5 21v20q0 12 8.5 21t21.5 9h19q13 0 21.5 -9t8.5 -21v-20q0 -12 -8.5 -21t-21.5 -9h-19zM401 380q-13 0 -21.5 9t-8.5 21v20q0 12 8.5 21t21.5 9h19q13 0 21.5 -9t8.5 -21v-20
q0 -12 -8.5 -21t-21.5 -9h-19zM710 540q0 12 -9 21t-21 9h-360q-13 0 -21.5 -9t-8.5 -21v-450q0 -13 8.5 -21.5t21.5 -8.5h360q12 0 21 8.5t9 21.5v450zM680 630q38 0 64 -26t26 -64v-450q0 -38 -26 -64t-64 -26h-360q-38 0 -64 26t-26 64v450q0 38 26 64t64 26h360z" />
    <glyph glyph-name="cart" unicode="&#xe73d;" 
d="M350 280h300q0 -62 -44 -106t-106 -44t-106 44t-44 106zM581 380q-13 0 -21.5 9t-8.5 21v20q0 12 8.5 21t21.5 9h19q13 0 21.5 -9t8.5 -21v-20q0 -12 -8.5 -21t-21.5 -9h-19zM401 380q-13 0 -21.5 9t-8.5 21v20q0 12 8.5 21t21.5 9h19q13 0 21.5 -9t8.5 -21v-20
q0 -12 -8.5 -21t-21.5 -9h-19zM710 540q0 12 -9 21t-21 9h-360q-13 0 -21.5 -9t-8.5 -21v-450q0 -13 8.5 -21.5t21.5 -8.5h360q12 0 21 8.5t9 21.5v450zM680 630q38 0 64 -26t26 -64v-450q0 -38 -26 -64t-64 -26h-360q-38 0 -64 26t-26 64v450q0 38 26 64t64 26h360z" />
    <glyph glyph-name="shareable" unicode="&#xe73e;" 
d="M350 280h300q0 -62 -44 -106t-106 -44t-106 44t-44 106zM581 380q-13 0 -21.5 9t-8.5 21v20q0 12 8.5 21t21.5 9h19q13 0 21.5 -9t8.5 -21v-20q0 -12 -8.5 -21t-21.5 -9h-19zM401 380q-13 0 -21.5 9t-8.5 21v20q0 12 8.5 21t21.5 9h19q13 0 21.5 -9t8.5 -21v-20
q0 -12 -8.5 -21t-21.5 -9h-19zM710 540q0 12 -9 21t-21 9h-360q-13 0 -21.5 -9t-8.5 -21v-450q0 -13 8.5 -21.5t21.5 -8.5h360q12 0 21 8.5t9 21.5v450zM680 630q38 0 64 -26t26 -64v-450q0 -38 -26 -64t-64 -26h-360q-38 0 -64 26t-26 64v450q0 38 26 64t64 26h360z" />
    <glyph glyph-name="login" unicode="&#xe740;" 
d="M350 280h300q0 -62 -44 -106t-106 -44t-106 44t-44 106zM581 380q-13 0 -21.5 9t-8.5 21v20q0 12 8.5 21t21.5 9h19q13 0 21.5 -9t8.5 -21v-20q0 -12 -8.5 -21t-21.5 -9h-19zM401 380q-13 0 -21.5 9t-8.5 21v20q0 12 8.5 21t21.5 9h19q13 0 21.5 -9t8.5 -21v-20
q0 -12 -8.5 -21t-21.5 -9h-19zM710 540q0 12 -9 21t-21 9h-360q-13 0 -21.5 -9t-8.5 -21v-450q0 -13 8.5 -21.5t21.5 -8.5h360q12 0 21 8.5t9 21.5v450zM680 630q38 0 64 -26t26 -64v-450q0 -38 -26 -64t-64 -26h-360q-38 0 -64 26t-26 64v450q0 38 26 64t64 26h360z" />
    <glyph glyph-name="logout" unicode="&#xe741;" 
d="M350 280h300q0 -62 -44 -106t-106 -44t-106 44t-44 106zM581 380q-13 0 -21.5 9t-8.5 21v20q0 12 8.5 21t21.5 9h19q13 0 21.5 -9t8.5 -21v-20q0 -12 -8.5 -21t-21.5 -9h-19zM401 380q-13 0 -21.5 9t-8.5 21v20q0 12 8.5 21t21.5 9h19q13 0 21.5 -9t8.5 -21v-20
q0 -12 -8.5 -21t-21.5 -9h-19zM710 540q0 12 -9 21t-21 9h-360q-13 0 -21.5 -9t-8.5 -21v-450q0 -13 8.5 -21.5t21.5 -8.5h360q12 0 21 8.5t9 21.5v450zM680 630q38 0 64 -26t26 -64v-450q0 -38 -26 -64t-64 -26h-360q-38 0 -64 26t-26 64v450q0 38 26 64t64 26h360z" />
    <glyph glyph-name="resize_full" unicode="&#xe744;" 
d="M350 280h300q0 -62 -44 -106t-106 -44t-106 44t-44 106zM581 380q-13 0 -21.5 9t-8.5 21v20q0 12 8.5 21t21.5 9h19q13 0 21.5 -9t8.5 -21v-20q0 -12 -8.5 -21t-21.5 -9h-19zM401 380q-13 0 -21.5 9t-8.5 21v20q0 12 8.5 21t21.5 9h19q13 0 21.5 -9t8.5 -21v-20
q0 -12 -8.5 -21t-21.5 -9h-19zM710 540q0 12 -9 21t-21 9h-360q-13 0 -21.5 -9t-8.5 -21v-450q0 -13 8.5 -21.5t21.5 -8.5h360q12 0 21 8.5t9 21.5v450zM680 630q38 0 64 -26t26 -64v-450q0 -38 -26 -64t-64 -26h-360q-38 0 -64 26t-26 64v450q0 38 26 64t64 26h360z" />
    <glyph glyph-name="resize_small" unicode="&#xe746;" 
d="M350 280h300q0 -62 -44 -106t-106 -44t-106 44t-44 106zM581 380q-13 0 -21.5 9t-8.5 21v20q0 12 8.5 21t21.5 9h19q13 0 21.5 -9t8.5 -21v-20q0 -12 -8.5 -21t-21.5 -9h-19zM401 380q-13 0 -21.5 9t-8.5 21v20q0 12 8.5 21t21.5 9h19q13 0 21.5 -9t8.5 -21v-20
q0 -12 -8.5 -21t-21.5 -9h-19zM710 540q0 12 -9 21t-21 9h-360q-13 0 -21.5 -9t-8.5 -21v-450q0 -13 8.5 -21.5t21.5 -8.5h360q12 0 21 8.5t9 21.5v450zM680 630q38 0 64 -26t26 -64v-450q0 -38 -26 -64t-64 -26h-360q-38 0 -64 26t-26 64v450q0 38 26 64t64 26h360z" />
    <glyph glyph-name="popup" unicode="&#xe74c;" 
d="M350 280h300q0 -62 -44 -106t-106 -44t-106 44t-44 106zM581 380q-13 0 -21.5 9t-8.5 21v20q0 12 8.5 21t21.5 9h19q13 0 21.5 -9t8.5 -21v-20q0 -12 -8.5 -21t-21.5 -9h-19zM401 380q-13 0 -21.5 9t-8.5 21v20q0 12 8.5 21t21.5 9h19q13 0 21.5 -9t8.5 -21v-20
q0 -12 -8.5 -21t-21.5 -9h-19zM710 540q0 12 -9 21t-21 9h-360q-13 0 -21.5 -9t-8.5 -21v-450q0 -13 8.5 -21.5t21.5 -8.5h360q12 0 21 8.5t9 21.5v450zM680 630q38 0 64 -26t26 -64v-450q0 -38 -26 -64t-64 -26h-360q-38 0 -64 26t-26 64v450q0 38 26 64t64 26h360z" />
    <glyph glyph-name="publish" unicode="&#xe74d;" 
d="M350 280h300q0 -62 -44 -106t-106 -44t-106 44t-44 106zM581 380q-13 0 -21.5 9t-8.5 21v20q0 12 8.5 21t21.5 9h19q13 0 21.5 -9t8.5 -21v-20q0 -12 -8.5 -21t-21.5 -9h-19zM401 380q-13 0 -21.5 9t-8.5 21v20q0 12 8.5 21t21.5 9h19q13 0 21.5 -9t8.5 -21v-20
q0 -12 -8.5 -21t-21.5 -9h-19zM710 540q0 12 -9 21t-21 9h-360q-13 0 -21.5 -9t-8.5 -21v-450q0 -13 8.5 -21.5t21.5 -8.5h360q12 0 21 8.5t9 21.5v450zM680 630q38 0 64 -26t26 -64v-450q0 -38 -26 -64t-64 -26h-360q-38 0 -64 26t-26 64v450q0 38 26 64t64 26h360z" />
    <glyph glyph-name="browser" unicode="&#xe74e;" 
d="M350 280h300q0 -62 -44 -106t-106 -44t-106 44t-44 106zM581 380q-13 0 -21.5 9t-8.5 21v20q0 12 8.5 21t21.5 9h19q13 0 21.5 -9t8.5 -21v-20q0 -12 -8.5 -21t-21.5 -9h-19zM401 380q-13 0 -21.5 9t-8.5 21v20q0 12 8.5 21t21.5 9h19q13 0 21.5 -9t8.5 -21v-20
q0 -12 -8.5 -21t-21.5 -9h-19zM710 540q0 12 -9 21t-21 9h-360q-13 0 -21.5 -9t-8.5 -21v-450q0 -13 8.5 -21.5t21.5 -8.5h360q12 0 21 8.5t9 21.5v450zM680 630q38 0 64 -26t26 -64v-450q0 -38 -26 -64t-64 -26h-360q-38 0 -64 26t-26 64v450q0 38 26 64t64 26h360z" />
    <glyph glyph-name="arrow_combo" unicode="&#xe74f;" 
d="M350 280h300q0 -62 -44 -106t-106 -44t-106 44t-44 106zM581 380q-13 0 -21.5 9t-8.5 21v20q0 12 8.5 21t21.5 9h19q13 0 21.5 -9t8.5 -21v-20q0 -12 -8.5 -21t-21.5 -9h-19zM401 380q-13 0 -21.5 9t-8.5 21v20q0 12 8.5 21t21.5 9h19q13 0 21.5 -9t8.5 -21v-20
q0 -12 -8.5 -21t-21.5 -9h-19zM710 540q0 12 -9 21t-21 9h-360q-13 0 -21.5 -9t-8.5 -21v-450q0 -13 8.5 -21.5t21.5 -8.5h360q12 0 21 8.5t9 21.5v450zM680 630q38 0 64 -26t26 -64v-450q0 -38 -26 -64t-64 -26h-360q-38 0 -64 26t-26 64v450q0 38 26 64t64 26h360z" />
    <glyph glyph-name="circled_down" unicode="&#xe758;" 
d="M350 280h300q0 -62 -44 -106t-106 -44t-106 44t-44 106zM581 380q-13 0 -21.5 9t-8.5 21v20q0 12 8.5 21t21.5 9h19q13 0 21.5 -9t8.5 -21v-20q0 -12 -8.5 -21t-21.5 -9h-19zM401 380q-13 0 -21.5 9t-8.5 21v20q0 12 8.5 21t21.5 9h19q13 0 21.5 -9t8.5 -21v-20
q0 -12 -8.5 -21t-21.5 -9h-19zM710 540q0 12 -9 21t-21 9h-360q-13 0 -21.5 -9t-8.5 -21v-450q0 -13 8.5 -21.5t21.5 -8.5h360q12 0 21 8.5t9 21.5v450zM680 630q38 0 64 -26t26 -64v-450q0 -38 -26 -64t-64 -26h-360q-38 0 -64 26t-26 64v450q0 38 26 64t64 26h360z" />
    <glyph glyph-name="circled_left" unicode="&#xe759;" 
d="M350 280h300q0 -62 -44 -106t-106 -44t-106 44t-44 106zM581 380q-13 0 -21.5 9t-8.5 21v20q0 12 8.5 21t21.5 9h19q13 0 21.5 -9t8.5 -21v-20q0 -12 -8.5 -21t-21.5 -9h-19zM401 380q-13 0 -21.5 9t-8.5 21v20q0 12 8.5 21t21.5 9h19q13 0 21.5 -9t8.5 -21v-20
q0 -12 -8.5 -21t-21.5 -9h-19zM710 540q0 12 -9 21t-21 9h-360q-13 0 -21.5 -9t-8.5 -21v-450q0 -13 8.5 -21.5t21.5 -8.5h360q12 0 21 8.5t9 21.5v450zM680 630q38 0 64 -26t26 -64v-450q0 -38 -26 -64t-64 -26h-360q-38 0 -64 26t-26 64v450q0 38 26 64t64 26h360z" />
    <glyph glyph-name="circled_right" unicode="&#xe75a;" 
d="M350 280h300q0 -62 -44 -106t-106 -44t-106 44t-44 106zM581 380q-13 0 -21.5 9t-8.5 21v20q0 12 8.5 21t21.5 9h19q13 0 21.5 -9t8.5 -21v-20q0 -12 -8.5 -21t-21.5 -9h-19zM401 380q-13 0 -21.5 9t-8.5 21v20q0 12 8.5 21t21.5 9h19q13 0 21.5 -9t8.5 -21v-20
q0 -12 -8.5 -21t-21.5 -9h-19zM710 540q0 12 -9 21t-21 9h-360q-13 0 -21.5 -9t-8.5 -21v-450q0 -13 8.5 -21.5t21.5 -8.5h360q12 0 21 8.5t9 21.5v450zM680 630q38 0 64 -26t26 -64v-450q0 -38 -26 -64t-64 -26h-360q-38 0 -64 26t-26 64v450q0 38 26 64t64 26h360z" />
    <glyph glyph-name="circled_up" unicode="&#xe75b;" 
d="M350 280h300q0 -62 -44 -106t-106 -44t-106 44t-44 106zM581 380q-13 0 -21.5 9t-8.5 21v20q0 12 8.5 21t21.5 9h19q13 0 21.5 -9t8.5 -21v-20q0 -12 -8.5 -21t-21.5 -9h-19zM401 380q-13 0 -21.5 9t-8.5 21v20q0 12 8.5 21t21.5 9h19q13 0 21.5 -9t8.5 -21v-20
q0 -12 -8.5 -21t-21.5 -9h-19zM710 540q0 12 -9 21t-21 9h-360q-13 0 -21.5 -9t-8.5 -21v-450q0 -13 8.5 -21.5t21.5 -8.5h360q12 0 21 8.5t9 21.5v450zM680 630q38 0 64 -26t26 -64v-450q0 -38 -26 -64t-64 -26h-360q-38 0 -64 26t-26 64v450q0 38 26 64t64 26h360z" />
    <glyph glyph-name="chevron_down" unicode="&#xe75c;" 
d="M350 280h300q0 -62 -44 -106t-106 -44t-106 44t-44 106zM581 380q-13 0 -21.5 9t-8.5 21v20q0 12 8.5 21t21.5 9h19q13 0 21.5 -9t8.5 -21v-20q0 -12 -8.5 -21t-21.5 -9h-19zM401 380q-13 0 -21.5 9t-8.5 21v20q0 12 8.5 21t21.5 9h19q13 0 21.5 -9t8.5 -21v-20
q0 -12 -8.5 -21t-21.5 -9h-19zM710 540q0 12 -9 21t-21 9h-360q-13 0 -21.5 -9t-8.5 -21v-450q0 -13 8.5 -21.5t21.5 -8.5h360q12 0 21 8.5t9 21.5v450zM680 630q38 0 64 -26t26 -64v-450q0 -38 -26 -64t-64 -26h-360q-38 0 -64 26t-26 64v450q0 38 26 64t64 26h360z" />
    <glyph glyph-name="chevron_left" unicode="&#xe75d;" 
d="M350 280h300q0 -62 -44 -106t-106 -44t-106 44t-44 106zM581 380q-13 0 -21.5 9t-8.5 21v20q0 12 8.5 21t21.5 9h19q13 0 21.5 -9t8.5 -21v-20q0 -12 -8.5 -21t-21.5 -9h-19zM401 380q-13 0 -21.5 9t-8.5 21v20q0 12 8.5 21t21.5 9h19q13 0 21.5 -9t8.5 -21v-20
q0 -12 -8.5 -21t-21.5 -9h-19zM710 540q0 12 -9 21t-21 9h-360q-13 0 -21.5 -9t-8.5 -21v-450q0 -13 8.5 -21.5t21.5 -8.5h360q12 0 21 8.5t9 21.5v450zM680 630q38 0 64 -26t26 -64v-450q0 -38 -26 -64t-64 -26h-360q-38 0 -64 26t-26 64v450q0 38 26 64t64 26h360z" />
    <glyph glyph-name="chevron_right" unicode="&#xe75e;" 
d="M350 280h300q0 -62 -44 -106t-106 -44t-106 44t-44 106zM581 380q-13 0 -21.5 9t-8.5 21v20q0 12 8.5 21t21.5 9h19q13 0 21.5 -9t8.5 -21v-20q0 -12 -8.5 -21t-21.5 -9h-19zM401 380q-13 0 -21.5 9t-8.5 21v20q0 12 8.5 21t21.5 9h19q13 0 21.5 -9t8.5 -21v-20
q0 -12 -8.5 -21t-21.5 -9h-19zM710 540q0 12 -9 21t-21 9h-360q-13 0 -21.5 -9t-8.5 -21v-450q0 -13 8.5 -21.5t21.5 -8.5h360q12 0 21 8.5t9 21.5v450zM680 630q38 0 64 -26t26 -64v-450q0 -38 -26 -64t-64 -26h-360q-38 0 -64 26t-26 64v450q0 38 26 64t64 26h360z" />
    <glyph glyph-name="chevron_up" unicode="&#xe75f;" 
d="M350 280h300q0 -62 -44 -106t-106 -44t-106 44t-44 106zM581 380q-13 0 -21.5 9t-8.5 21v20q0 12 8.5 21t21.5 9h19q13 0 21.5 -9t8.5 -21v-20q0 -12 -8.5 -21t-21.5 -9h-19zM401 380q-13 0 -21.5 9t-8.5 21v20q0 12 8.5 21t21.5 9h19q13 0 21.5 -9t8.5 -21v-20
q0 -12 -8.5 -21t-21.5 -9h-19zM710 540q0 12 -9 21t-21 9h-360q-13 0 -21.5 -9t-8.5 -21v-450q0 -13 8.5 -21.5t21.5 -8.5h360q12 0 21 8.5t9 21.5v450zM680 630q38 0 64 -26t26 -64v-450q0 -38 -26 -64t-64 -26h-360q-38 0 -64 26t-26 64v450q0 38 26 64t64 26h360z" />
    <glyph glyph-name="chevron_small_down" unicode="&#xe760;" 
d="M350 280h300q0 -62 -44 -106t-106 -44t-106 44t-44 106zM581 380q-13 0 -21.5 9t-8.5 21v20q0 12 8.5 21t21.5 9h19q13 0 21.5 -9t8.5 -21v-20q0 -12 -8.5 -21t-21.5 -9h-19zM401 380q-13 0 -21.5 9t-8.5 21v20q0 12 8.5 21t21.5 9h19q13 0 21.5 -9t8.5 -21v-20
q0 -12 -8.5 -21t-21.5 -9h-19zM710 540q0 12 -9 21t-21 9h-360q-13 0 -21.5 -9t-8.5 -21v-450q0 -13 8.5 -21.5t21.5 -8.5h360q12 0 21 8.5t9 21.5v450zM680 630q38 0 64 -26t26 -64v-450q0 -38 -26 -64t-64 -26h-360q-38 0 -64 26t-26 64v450q0 38 26 64t64 26h360z" />
    <glyph glyph-name="chevron_small_left" unicode="&#xe761;" 
d="M350 280h300q0 -62 -44 -106t-106 -44t-106 44t-44 106zM581 380q-13 0 -21.5 9t-8.5 21v20q0 12 8.5 21t21.5 9h19q13 0 21.5 -9t8.5 -21v-20q0 -12 -8.5 -21t-21.5 -9h-19zM401 380q-13 0 -21.5 9t-8.5 21v20q0 12 8.5 21t21.5 9h19q13 0 21.5 -9t8.5 -21v-20
q0 -12 -8.5 -21t-21.5 -9h-19zM710 540q0 12 -9 21t-21 9h-360q-13 0 -21.5 -9t-8.5 -21v-450q0 -13 8.5 -21.5t21.5 -8.5h360q12 0 21 8.5t9 21.5v450zM680 630q38 0 64 -26t26 -64v-450q0 -38 -26 -64t-64 -26h-360q-38 0 -64 26t-26 64v450q0 38 26 64t64 26h360z" />
    <glyph glyph-name="chevron_small_right" unicode="&#xe762;" 
d="M350 280h300q0 -62 -44 -106t-106 -44t-106 44t-44 106zM581 380q-13 0 -21.5 9t-8.5 21v20q0 12 8.5 21t21.5 9h19q13 0 21.5 -9t8.5 -21v-20q0 -12 -8.5 -21t-21.5 -9h-19zM401 380q-13 0 -21.5 9t-8.5 21v20q0 12 8.5 21t21.5 9h19q13 0 21.5 -9t8.5 -21v-20
q0 -12 -8.5 -21t-21.5 -9h-19zM710 540q0 12 -9 21t-21 9h-360q-13 0 -21.5 -9t-8.5 -21v-450q0 -13 8.5 -21.5t21.5 -8.5h360q12 0 21 8.5t9 21.5v450zM680 630q38 0 64 -26t26 -64v-450q0 -38 -26 -64t-64 -26h-360q-38 0 -64 26t-26 64v450q0 38 26 64t64 26h360z" />
    <glyph glyph-name="chevron_small_up" unicode="&#xe763;" 
d="M350 280h300q0 -62 -44 -106t-106 -44t-106 44t-44 106zM581 380q-13 0 -21.5 9t-8.5 21v20q0 12 8.5 21t21.5 9h19q13 0 21.5 -9t8.5 -21v-20q0 -12 -8.5 -21t-21.5 -9h-19zM401 380q-13 0 -21.5 9t-8.5 21v20q0 12 8.5 21t21.5 9h19q13 0 21.5 -9t8.5 -21v-20
q0 -12 -8.5 -21t-21.5 -9h-19zM710 540q0 12 -9 21t-21 9h-360q-13 0 -21.5 -9t-8.5 -21v-450q0 -13 8.5 -21.5t21.5 -8.5h360q12 0 21 8.5t9 21.5v450zM680 630q38 0 64 -26t26 -64v-450q0 -38 -26 -64t-64 -26h-360q-38 0 -64 26t-26 64v450q0 38 26 64t64 26h360z" />
    <glyph glyph-name="chevron_thin_down" unicode="&#xe764;" 
d="M350 280h300q0 -62 -44 -106t-106 -44t-106 44t-44 106zM581 380q-13 0 -21.5 9t-8.5 21v20q0 12 8.5 21t21.5 9h19q13 0 21.5 -9t8.5 -21v-20q0 -12 -8.5 -21t-21.5 -9h-19zM401 380q-13 0 -21.5 9t-8.5 21v20q0 12 8.5 21t21.5 9h19q13 0 21.5 -9t8.5 -21v-20
q0 -12 -8.5 -21t-21.5 -9h-19zM710 540q0 12 -9 21t-21 9h-360q-13 0 -21.5 -9t-8.5 -21v-450q0 -13 8.5 -21.5t21.5 -8.5h360q12 0 21 8.5t9 21.5v450zM680 630q38 0 64 -26t26 -64v-450q0 -38 -26 -64t-64 -26h-360q-38 0 -64 26t-26 64v450q0 38 26 64t64 26h360z" />
    <glyph glyph-name="chevron_thin_left" unicode="&#xe765;" 
d="M350 280h300q0 -62 -44 -106t-106 -44t-106 44t-44 106zM581 380q-13 0 -21.5 9t-8.5 21v20q0 12 8.5 21t21.5 9h19q13 0 21.5 -9t8.5 -21v-20q0 -12 -8.5 -21t-21.5 -9h-19zM401 380q-13 0 -21.5 9t-8.5 21v20q0 12 8.5 21t21.5 9h19q13 0 21.5 -9t8.5 -21v-20
q0 -12 -8.5 -21t-21.5 -9h-19zM710 540q0 12 -9 21t-21 9h-360q-13 0 -21.5 -9t-8.5 -21v-450q0 -13 8.5 -21.5t21.5 -8.5h360q12 0 21 8.5t9 21.5v450zM680 630q38 0 64 -26t26 -64v-450q0 -38 -26 -64t-64 -26h-360q-38 0 -64 26t-26 64v450q0 38 26 64t64 26h360z" />
    <glyph glyph-name="chevron_thin_right" unicode="&#xe766;" 
d="M350 280h300q0 -62 -44 -106t-106 -44t-106 44t-44 106zM581 380q-13 0 -21.5 9t-8.5 21v20q0 12 8.5 21t21.5 9h19q13 0 21.5 -9t8.5 -21v-20q0 -12 -8.5 -21t-21.5 -9h-19zM401 380q-13 0 -21.5 9t-8.5 21v20q0 12 8.5 21t21.5 9h19q13 0 21.5 -9t8.5 -21v-20
q0 -12 -8.5 -21t-21.5 -9h-19zM710 540q0 12 -9 21t-21 9h-360q-13 0 -21.5 -9t-8.5 -21v-450q0 -13 8.5 -21.5t21.5 -8.5h360q12 0 21 8.5t9 21.5v450zM680 630q38 0 64 -26t26 -64v-450q0 -38 -26 -64t-64 -26h-360q-38 0 -64 26t-26 64v450q0 38 26 64t64 26h360z" />
    <glyph glyph-name="chevron_thin_up" unicode="&#xe767;" 
d="M350 280h300q0 -62 -44 -106t-106 -44t-106 44t-44 106zM581 380q-13 0 -21.5 9t-8.5 21v20q0 12 8.5 21t21.5 9h19q13 0 21.5 -9t8.5 -21v-20q0 -12 -8.5 -21t-21.5 -9h-19zM401 380q-13 0 -21.5 9t-8.5 21v20q0 12 8.5 21t21.5 9h19q13 0 21.5 -9t8.5 -21v-20
q0 -12 -8.5 -21t-21.5 -9h-19zM710 540q0 12 -9 21t-21 9h-360q-13 0 -21.5 -9t-8.5 -21v-450q0 -13 8.5 -21.5t21.5 -8.5h360q12 0 21 8.5t9 21.5v450zM680 630q38 0 64 -26t26 -64v-450q0 -38 -26 -64t-64 -26h-360q-38 0 -64 26t-26 64v450q0 38 26 64t64 26h360z" />
    <glyph glyph-name="progress_0" unicode="&#xe768;" 
d="M350 280h300q0 -62 -44 -106t-106 -44t-106 44t-44 106zM581 380q-13 0 -21.5 9t-8.5 21v20q0 12 8.5 21t21.5 9h19q13 0 21.5 -9t8.5 -21v-20q0 -12 -8.5 -21t-21.5 -9h-19zM401 380q-13 0 -21.5 9t-8.5 21v20q0 12 8.5 21t21.5 9h19q13 0 21.5 -9t8.5 -21v-20
q0 -12 -8.5 -21t-21.5 -9h-19zM710 540q0 12 -9 21t-21 9h-360q-13 0 -21.5 -9t-8.5 -21v-450q0 -13 8.5 -21.5t21.5 -8.5h360q12 0 21 8.5t9 21.5v450zM680 630q38 0 64 -26t26 -64v-450q0 -38 -26 -64t-64 -26h-360q-38 0 -64 26t-26 64v450q0 38 26 64t64 26h360z" />
    <glyph glyph-name="progress_1" unicode="&#xe769;" 
d="M350 280h300q0 -62 -44 -106t-106 -44t-106 44t-44 106zM581 380q-13 0 -21.5 9t-8.5 21v20q0 12 8.5 21t21.5 9h19q13 0 21.5 -9t8.5 -21v-20q0 -12 -8.5 -21t-21.5 -9h-19zM401 380q-13 0 -21.5 9t-8.5 21v20q0 12 8.5 21t21.5 9h19q13 0 21.5 -9t8.5 -21v-20
q0 -12 -8.5 -21t-21.5 -9h-19zM710 540q0 12 -9 21t-21 9h-360q-13 0 -21.5 -9t-8.5 -21v-450q0 -13 8.5 -21.5t21.5 -8.5h360q12 0 21 8.5t9 21.5v450zM680 630q38 0 64 -26t26 -64v-450q0 -38 -26 -64t-64 -26h-360q-38 0 -64 26t-26 64v450q0 38 26 64t64 26h360z" />
    <glyph glyph-name="progress_2" unicode="&#xe76a;" 
d="M350 280h300q0 -62 -44 -106t-106 -44t-106 44t-44 106zM581 380q-13 0 -21.5 9t-8.5 21v20q0 12 8.5 21t21.5 9h19q13 0 21.5 -9t8.5 -21v-20q0 -12 -8.5 -21t-21.5 -9h-19zM401 380q-13 0 -21.5 9t-8.5 21v20q0 12 8.5 21t21.5 9h19q13 0 21.5 -9t8.5 -21v-20
q0 -12 -8.5 -21t-21.5 -9h-19zM710 540q0 12 -9 21t-21 9h-360q-13 0 -21.5 -9t-8.5 -21v-450q0 -13 8.5 -21.5t21.5 -8.5h360q12 0 21 8.5t9 21.5v450zM680 630q38 0 64 -26t26 -64v-450q0 -38 -26 -64t-64 -26h-360q-38 0 -64 26t-26 64v450q0 38 26 64t64 26h360z" />
    <glyph glyph-name="progress_3" unicode="&#xe76b;" 
d="M350 280h300q0 -62 -44 -106t-106 -44t-106 44t-44 106zM581 380q-13 0 -21.5 9t-8.5 21v20q0 12 8.5 21t21.5 9h19q13 0 21.5 -9t8.5 -21v-20q0 -12 -8.5 -21t-21.5 -9h-19zM401 380q-13 0 -21.5 9t-8.5 21v20q0 12 8.5 21t21.5 9h19q13 0 21.5 -9t8.5 -21v-20
q0 -12 -8.5 -21t-21.5 -9h-19zM710 540q0 12 -9 21t-21 9h-360q-13 0 -21.5 -9t-8.5 -21v-450q0 -13 8.5 -21.5t21.5 -8.5h360q12 0 21 8.5t9 21.5v450zM680 630q38 0 64 -26t26 -64v-450q0 -38 -26 -64t-64 -26h-360q-38 0 -64 26t-26 64v450q0 38 26 64t64 26h360z" />
    <glyph glyph-name="back_in_time" unicode="&#xe771;" 
d="M350 280h300q0 -62 -44 -106t-106 -44t-106 44t-44 106zM581 380q-13 0 -21.5 9t-8.5 21v20q0 12 8.5 21t21.5 9h19q13 0 21.5 -9t8.5 -21v-20q0 -12 -8.5 -21t-21.5 -9h-19zM401 380q-13 0 -21.5 9t-8.5 21v20q0 12 8.5 21t21.5 9h19q13 0 21.5 -9t8.5 -21v-20
q0 -12 -8.5 -21t-21.5 -9h-19zM710 540q0 12 -9 21t-21 9h-360q-13 0 -21.5 -9t-8.5 -21v-450q0 -13 8.5 -21.5t21.5 -8.5h360q12 0 21 8.5t9 21.5v450zM680 630q38 0 64 -26t26 -64v-450q0 -38 -26 -64t-64 -26h-360q-38 0 -64 26t-26 64v450q0 38 26 64t64 26h360z" />
    <glyph glyph-name="network" unicode="&#xe776;" 
d="M350 280h300q0 -62 -44 -106t-106 -44t-106 44t-44 106zM581 380q-13 0 -21.5 9t-8.5 21v20q0 12 8.5 21t21.5 9h19q13 0 21.5 -9t8.5 -21v-20q0 -12 -8.5 -21t-21.5 -9h-19zM401 380q-13 0 -21.5 9t-8.5 21v20q0 12 8.5 21t21.5 9h19q13 0 21.5 -9t8.5 -21v-20
q0 -12 -8.5 -21t-21.5 -9h-19zM710 540q0 12 -9 21t-21 9h-360q-13 0 -21.5 -9t-8.5 -21v-450q0 -13 8.5 -21.5t21.5 -8.5h360q12 0 21 8.5t9 21.5v450zM680 630q38 0 64 -26t26 -64v-450q0 -38 -26 -64t-64 -26h-360q-38 0 -64 26t-26 64v450q0 38 26 64t64 26h360z" />
    <glyph glyph-name="inbox" unicode="&#xe777;" 
d="M350 280h300q0 -62 -44 -106t-106 -44t-106 44t-44 106zM581 380q-13 0 -21.5 9t-8.5 21v20q0 12 8.5 21t21.5 9h19q13 0 21.5 -9t8.5 -21v-20q0 -12 -8.5 -21t-21.5 -9h-19zM401 380q-13 0 -21.5 9t-8.5 21v20q0 12 8.5 21t21.5 9h19q13 0 21.5 -9t8.5 -21v-20
q0 -12 -8.5 -21t-21.5 -9h-19zM710 540q0 12 -9 21t-21 9h-360q-13 0 -21.5 -9t-8.5 -21v-450q0 -13 8.5 -21.5t21.5 -8.5h360q12 0 21 8.5t9 21.5v450zM680 630q38 0 64 -26t26 -64v-450q0 -38 -26 -64t-64 -26h-360q-38 0 -64 26t-26 64v450q0 38 26 64t64 26h360z" />
    <glyph glyph-name="install" unicode="&#xe778;" 
d="M350 280h300q0 -62 -44 -106t-106 -44t-106 44t-44 106zM581 380q-13 0 -21.5 9t-8.5 21v20q0 12 8.5 21t21.5 9h19q13 0 21.5 -9t8.5 -21v-20q0 -12 -8.5 -21t-21.5 -9h-19zM401 380q-13 0 -21.5 9t-8.5 21v20q0 12 8.5 21t21.5 9h19q13 0 21.5 -9t8.5 -21v-20
q0 -12 -8.5 -21t-21.5 -9h-19zM710 540q0 12 -9 21t-21 9h-360q-13 0 -21.5 -9t-8.5 -21v-450q0 -13 8.5 -21.5t21.5 -8.5h360q12 0 21 8.5t9 21.5v450zM680 630q38 0 64 -26t26 -64v-450q0 -38 -26 -64t-64 -26h-360q-38 0 -64 26t-26 64v450q0 38 26 64t64 26h360z" />
    <glyph glyph-name="lifebuoy" unicode="&#xe788;" 
d="M350 280h300q0 -62 -44 -106t-106 -44t-106 44t-44 106zM581 380q-13 0 -21.5 9t-8.5 21v20q0 12 8.5 21t21.5 9h19q13 0 21.5 -9t8.5 -21v-20q0 -12 -8.5 -21t-21.5 -9h-19zM401 380q-13 0 -21.5 9t-8.5 21v20q0 12 8.5 21t21.5 9h19q13 0 21.5 -9t8.5 -21v-20
q0 -12 -8.5 -21t-21.5 -9h-19zM710 540q0 12 -9 21t-21 9h-360q-13 0 -21.5 -9t-8.5 -21v-450q0 -13 8.5 -21.5t21.5 -8.5h360q12 0 21 8.5t9 21.5v450zM680 630q38 0 64 -26t26 -64v-450q0 -38 -26 -64t-64 -26h-360q-38 0 -64 26t-26 64v450q0 38 26 64t64 26h360z" />
    <glyph glyph-name="mouse" unicode="&#xe789;" 
d="M350 280h300q0 -62 -44 -106t-106 -44t-106 44t-44 106zM581 380q-13 0 -21.5 9t-8.5 21v20q0 12 8.5 21t21.5 9h19q13 0 21.5 -9t8.5 -21v-20q0 -12 -8.5 -21t-21.5 -9h-19zM401 380q-13 0 -21.5 9t-8.5 21v20q0 12 8.5 21t21.5 9h19q13 0 21.5 -9t8.5 -21v-20
q0 -12 -8.5 -21t-21.5 -9h-19zM710 540q0 12 -9 21t-21 9h-360q-13 0 -21.5 -9t-8.5 -21v-450q0 -13 8.5 -21.5t21.5 -8.5h360q12 0 21 8.5t9 21.5v450zM680 630q38 0 64 -26t26 -64v-450q0 -38 -26 -64t-64 -26h-360q-38 0 -64 26t-26 64v450q0 38 26 64t64 26h360z" />
    <glyph glyph-name="brush" unicode="&#xe79a;" 
d="M350 280h300q0 -62 -44 -106t-106 -44t-106 44t-44 106zM581 380q-13 0 -21.5 9t-8.5 21v20q0 12 8.5 21t21.5 9h19q13 0 21.5 -9t8.5 -21v-20q0 -12 -8.5 -21t-21.5 -9h-19zM401 380q-13 0 -21.5 9t-8.5 21v20q0 12 8.5 21t21.5 9h19q13 0 21.5 -9t8.5 -21v-20
q0 -12 -8.5 -21t-21.5 -9h-19zM710 540q0 12 -9 21t-21 9h-360q-13 0 -21.5 -9t-8.5 -21v-450q0 -13 8.5 -21.5t21.5 -8.5h360q12 0 21 8.5t9 21.5v450zM680 630q38 0 64 -26t26 -64v-450q0 -38 -26 -64t-64 -26h-360q-38 0 -64 26t-26 64v450q0 38 26 64t64 26h360z" />
    <glyph glyph-name="magnet" unicode="&#xe7a1;" 
d="M350 280h300q0 -62 -44 -106t-106 -44t-106 44t-44 106zM581 380q-13 0 -21.5 9t-8.5 21v20q0 12 8.5 21t21.5 9h19q13 0 21.5 -9t8.5 -21v-20q0 -12 -8.5 -21t-21.5 -9h-19zM401 380q-13 0 -21.5 9t-8.5 21v20q0 12 8.5 21t21.5 9h19q13 0 21.5 -9t8.5 -21v-20
q0 -12 -8.5 -21t-21.5 -9h-19zM710 540q0 12 -9 21t-21 9h-360q-13 0 -21.5 -9t-8.5 -21v-450q0 -13 8.5 -21.5t21.5 -8.5h360q12 0 21 8.5t9 21.5v450zM680 630q38 0 64 -26t26 -64v-450q0 -38 -26 -64t-64 -26h-360q-38 0 -64 26t-26 64v450q0 38 26 64t64 26h360z" />
    <glyph glyph-name="archive" unicode="&#xe800;" 
d="M350 280h300q0 -62 -44 -106t-106 -44t-106 44t-44 106zM581 380q-13 0 -21.5 9t-8.5 21v20q0 12 8.5 21t21.5 9h19q13 0 21.5 -9t8.5 -21v-20q0 -12 -8.5 -21t-21.5 -9h-19zM401 380q-13 0 -21.5 9t-8.5 21v20q0 12 8.5 21t21.5 9h19q13 0 21.5 -9t8.5 -21v-20
q0 -12 -8.5 -21t-21.5 -9h-19zM710 540q0 12 -9 21t-21 9h-360q-13 0 -21.5 -9t-8.5 -21v-450q0 -13 8.5 -21.5t21.5 -8.5h360q12 0 21 8.5t9 21.5v450zM680 630q38 0 64 -26t26 -64v-450q0 -38 -26 -64t-64 -26h-360q-38 0 -64 26t-26 64v450q0 38 26 64t64 26h360z" />
    <glyph glyph-name="space.001" unicode="&#xf020;" 
d="M350 280h300q0 -62 -44 -106t-106 -44t-106 44t-44 106zM581 380q-13 0 -21.5 9t-8.5 21v20q0 12 8.5 21t21.5 9h19q13 0 21.5 -9t8.5 -21v-20q0 -12 -8.5 -21t-21.5 -9h-19zM401 380q-13 0 -21.5 9t-8.5 21v20q0 12 8.5 21t21.5 9h19q13 0 21.5 -9t8.5 -21v-20
q0 -12 -8.5 -21t-21.5 -9h-19zM710 540q0 12 -9 21t-21 9h-360q-13 0 -21.5 -9t-8.5 -21v-450q0 -13 8.5 -21.5t21.5 -8.5h360q12 0 21 8.5t9 21.5v450zM680 630q38 0 64 -26t26 -64v-450q0 -38 -26 -64t-64 -26h-360q-38 0 -64 26t-26 64v450q0 38 26 64t64 26h360z" />
    <glyph glyph-name="sweden" unicode="&#xf601;" 
d="M350 280h300q0 -62 -44 -106t-106 -44t-106 44t-44 106zM581 380q-13 0 -21.5 9t-8.5 21v20q0 12 8.5 21t21.5 9h19q13 0 21.5 -9t8.5 -21v-20q0 -12 -8.5 -21t-21.5 -9h-19zM401 380q-13 0 -21.5 9t-8.5 21v20q0 12 8.5 21t21.5 9h19q13 0 21.5 -9t8.5 -21v-20
q0 -12 -8.5 -21t-21.5 -9h-19zM710 540q0 12 -9 21t-21 9h-360q-13 0 -21.5 -9t-8.5 -21v-450q0 -13 8.5 -21.5t21.5 -8.5h360q12 0 21 8.5t9 21.5v450zM680 630q38 0 64 -26t26 -64v-450q0 -38 -26 -64t-64 -26h-360q-38 0 -64 26t-26 64v450q0 38 26 64t64 26h360z" />
    <glyph glyph-name="uniF8FF" unicode="&#xf8ff;" horiz-adv-x="2050" 
d="M256 640q0 -157 60 -297t166 -245.5t246 -165.5t296 -60q244 0 445 142l-1071 1071q-142 -201 -142 -445zM1792 640q0 156 -60 296t-166 246t-246 166t-296 60q-243 0 -445 -142l1071 -1071q142 201 142 445zM1024 1664q141 0 272 -36.5t244.5 -103.5t207 -160.5
t160.5 -207t103.5 -244.5t36.5 -272t-36.5 -272t-103.5 -244.5t-160.5 -207t-207 -160.5t-244.5 -103.5t-272 -36.5t-272 36.5t-244.5 103.5t-207 160.5t-160.5 207t-103.5 244.5t-36.5 272t36.5 272t103.5 244.5t160.5 207t207 160.5t244.5 103.5t272 36.5z" />
    <glyph glyph-name="fi" unicode="&#xfb01;" horiz-adv-x="2050" 
d="M896 242v352q0 14 9.5 23t23.5 9h190q14 0 23.5 -9t9.5 -23v-352h306q21 0 29.5 -19.5t-6.5 -34.5l-434 -435q-10 -9 -23 -9t-23 9l-434 435q-15 13 -6.5 33.5t29.5 20.5h306zM2048 1024v-256h-2048v256h2048zM2048 1536v-256h-2048v256h2048z" />
    <glyph glyph-name="fl" unicode="&#xfb02;" horiz-adv-x="2050" 
d="M896 512v-214q0 -12 -13 -27t-28 -15t-27 10l-434 343q-10 12 -10 28.5t10 26.5l437 348q12 12 30.5 12t26.5 -19.5t8 -25.5v-211h256l256 254l196 -186l-324 -324h-384zM1862 556q0 250 -62 400t-182 278q-128 120 -237 165q-188 79 -439.5 79t-508.5 -244
q-118 -124 -165 -235q-79 -190 -79 -443.5t244 -506.5q253 -244 505 -244t404 63t276 181q244 257 244 507zM2048 640q0 -278 -137.5 -513.5t-373 -373t-513.5 -137.5t-513.5 137.5t-373 373t-137.5 513.5t137.5 513.5t373 373t513.5 137.5t513.5 -137.5t373 -373
t137.5 -513.5z" />
    <glyph glyph-name="picture" unicode="&#x1f304;" 
d="M350 280h300q0 -62 -44 -106t-106 -44t-106 44t-44 106zM581 380q-13 0 -21.5 9t-8.5 21v20q0 12 8.5 21t21.5 9h19q13 0 21.5 -9t8.5 -21v-20q0 -12 -8.5 -21t-21.5 -9h-19zM401 380q-13 0 -21.5 9t-8.5 21v20q0 12 8.5 21t21.5 9h19q13 0 21.5 -9t8.5 -21v-20
q0 -12 -8.5 -21t-21.5 -9h-19zM710 540q0 12 -9 21t-21 9h-360q-13 0 -21.5 -9t-8.5 -21v-450q0 -13 8.5 -21.5t21.5 -8.5h360q12 0 21 8.5t9 21.5v450zM680 630q38 0 64 -26t26 -64v-450q0 -38 -26 -64t-64 -26h-360q-38 0 -64 26t-26 64v450q0 38 26 64t64 26h360z" />
    <glyph glyph-name="globe" unicode="&#x1f30e;" 
d="M350 280h300q0 -62 -44 -106t-106 -44t-106 44t-44 106zM581 380q-13 0 -21.5 9t-8.5 21v20q0 12 8.5 21t21.5 9h19q13 0 21.5 -9t8.5 -21v-20q0 -12 -8.5 -21t-21.5 -9h-19zM401 380q-13 0 -21.5 9t-8.5 21v20q0 12 8.5 21t21.5 9h19q13 0 21.5 -9t8.5 -21v-20
q0 -12 -8.5 -21t-21.5 -9h-19zM710 540q0 12 -9 21t-21 9h-360q-13 0 -21.5 -9t-8.5 -21v-450q0 -13 8.5 -21.5t21.5 -8.5h360q12 0 21 8.5t9 21.5v450zM680 630q38 0 64 -26t26 -64v-450q0 -38 -26 -64t-64 -26h-360q-38 0 -64 26t-26 64v450q0 38 26 64t64 26h360z" />
    <glyph glyph-name="leaf" unicode="&#x1f342;" 
d="M350 280h300q0 -62 -44 -106t-106 -44t-106 44t-44 106zM581 380q-13 0 -21.5 9t-8.5 21v20q0 12 8.5 21t21.5 9h19q13 0 21.5 -9t8.5 -21v-20q0 -12 -8.5 -21t-21.5 -9h-19zM401 380q-13 0 -21.5 9t-8.5 21v20q0 12 8.5 21t21.5 9h19q13 0 21.5 -9t8.5 -21v-20
q0 -12 -8.5 -21t-21.5 -9h-19zM710 540q0 12 -9 21t-21 9h-360q-13 0 -21.5 -9t-8.5 -21v-450q0 -13 8.5 -21.5t21.5 -8.5h360q12 0 21 8.5t9 21.5v450zM680 630q38 0 64 -26t26 -64v-450q0 -38 -26 -64t-64 -26h-360q-38 0 -64 26t-26 64v450q0 38 26 64t64 26h360z" />
    <glyph glyph-name="graduation_cap" unicode="&#x1f393;" 
d="M350 280h300q0 -62 -44 -106t-106 -44t-106 44t-44 106zM581 380q-13 0 -21.5 9t-8.5 21v20q0 12 8.5 21t21.5 9h19q13 0 21.5 -9t8.5 -21v-20q0 -12 -8.5 -21t-21.5 -9h-19zM401 380q-13 0 -21.5 9t-8.5 21v20q0 12 8.5 21t21.5 9h19q13 0 21.5 -9t8.5 -21v-20
q0 -12 -8.5 -21t-21.5 -9h-19zM710 540q0 12 -9 21t-21 9h-360q-13 0 -21.5 -9t-8.5 -21v-450q0 -13 8.5 -21.5t21.5 -8.5h360q12 0 21 8.5t9 21.5v450zM680 630q38 0 64 -26t26 -64v-450q0 -38 -26 -64t-64 -26h-360q-38 0 -64 26t-26 64v450q0 38 26 64t64 26h360z" />
    <glyph glyph-name="language" unicode="&#x1f394;" 
d="M350 280h300q0 -62 -44 -106t-106 -44t-106 44t-44 106zM581 380q-13 0 -21.5 9t-8.5 21v20q0 12 8.5 21t21.5 9h19q13 0 21.5 -9t8.5 -21v-20q0 -12 -8.5 -21t-21.5 -9h-19zM401 380q-13 0 -21.5 9t-8.5 21v20q0 12 8.5 21t21.5 9h19q13 0 21.5 -9t8.5 -21v-20
q0 -12 -8.5 -21t-21.5 -9h-19zM710 540q0 12 -9 21t-21 9h-360q-13 0 -21.5 -9t-8.5 -21v-450q0 -13 8.5 -21.5t21.5 -8.5h360q12 0 21 8.5t9 21.5v450zM680 630q38 0 64 -26t26 -64v-450q0 -38 -26 -64t-64 -26h-360q-38 0 -64 26t-26 64v450q0 38 26 64t64 26h360z" />
    <glyph glyph-name="mic" unicode="&#x1f3a4;" 
d="M350 280h300q0 -62 -44 -106t-106 -44t-106 44t-44 106zM581 380q-13 0 -21.5 9t-8.5 21v20q0 12 8.5 21t21.5 9h19q13 0 21.5 -9t8.5 -21v-20q0 -12 -8.5 -21t-21.5 -9h-19zM401 380q-13 0 -21.5 9t-8.5 21v20q0 12 8.5 21t21.5 9h19q13 0 21.5 -9t8.5 -21v-20
q0 -12 -8.5 -21t-21.5 -9h-19zM710 540q0 12 -9 21t-21 9h-360q-13 0 -21.5 -9t-8.5 -21v-450q0 -13 8.5 -21.5t21.5 -8.5h360q12 0 21 8.5t9 21.5v450zM680 630q38 0 64 -26t26 -64v-450q0 -38 -26 -64t-64 -26h-360q-38 0 -64 26t-26 64v450q0 38 26 64t64 26h360z" />
    <glyph glyph-name="palette" unicode="&#x1f3a8;" 
d="M350 280h300q0 -62 -44 -106t-106 -44t-106 44t-44 106zM581 380q-13 0 -21.5 9t-8.5 21v20q0 12 8.5 21t21.5 9h19q13 0 21.5 -9t8.5 -21v-20q0 -12 -8.5 -21t-21.5 -9h-19zM401 380q-13 0 -21.5 9t-8.5 21v20q0 12 8.5 21t21.5 9h19q13 0 21.5 -9t8.5 -21v-20
q0 -12 -8.5 -21t-21.5 -9h-19zM710 540q0 12 -9 21t-21 9h-360q-13 0 -21.5 -9t-8.5 -21v-450q0 -13 8.5 -21.5t21.5 -8.5h360q12 0 21 8.5t9 21.5v450zM680 630q38 0 64 -26t26 -64v-450q0 -38 -26 -64t-64 -26h-360q-38 0 -64 26t-26 64v450q0 38 26 64t64 26h360z" />
    <glyph glyph-name="ticket" unicode="&#x1f3ab;" 
d="M350 280h300q0 -62 -44 -106t-106 -44t-106 44t-44 106zM581 380q-13 0 -21.5 9t-8.5 21v20q0 12 8.5 21t21.5 9h19q13 0 21.5 -9t8.5 -21v-20q0 -12 -8.5 -21t-21.5 -9h-19zM401 380q-13 0 -21.5 9t-8.5 21v20q0 12 8.5 21t21.5 9h19q13 0 21.5 -9t8.5 -21v-20
q0 -12 -8.5 -21t-21.5 -9h-19zM710 540q0 12 -9 21t-21 9h-360q-13 0 -21.5 -9t-8.5 -21v-450q0 -13 8.5 -21.5t21.5 -8.5h360q12 0 21 8.5t9 21.5v450zM680 630q38 0 64 -26t26 -64v-450q0 -38 -26 -64t-64 -26h-360q-38 0 -64 26t-26 64v450q0 38 26 64t64 26h360z" />
    <glyph glyph-name="video" unicode="&#x1f3ac;" 
d="M350 280h300q0 -62 -44 -106t-106 -44t-106 44t-44 106zM581 380q-13 0 -21.5 9t-8.5 21v20q0 12 8.5 21t21.5 9h19q13 0 21.5 -9t8.5 -21v-20q0 -12 -8.5 -21t-21.5 -9h-19zM401 380q-13 0 -21.5 9t-8.5 21v20q0 12 8.5 21t21.5 9h19q13 0 21.5 -9t8.5 -21v-20
q0 -12 -8.5 -21t-21.5 -9h-19zM710 540q0 12 -9 21t-21 9h-360q-13 0 -21.5 -9t-8.5 -21v-450q0 -13 8.5 -21.5t21.5 -8.5h360q12 0 21 8.5t9 21.5v450zM680 630q38 0 64 -26t26 -64v-450q0 -38 -26 -64t-64 -26h-360q-38 0 -64 26t-26 64v450q0 38 26 64t64 26h360z" />
    <glyph glyph-name="hair_cross" unicode="&#x1f3af;" 
d="M350 280h300q0 -62 -44 -106t-106 -44t-106 44t-44 106zM581 380q-13 0 -21.5 9t-8.5 21v20q0 12 8.5 21t21.5 9h19q13 0 21.5 -9t8.5 -21v-20q0 -12 -8.5 -21t-21.5 -9h-19zM401 380q-13 0 -21.5 9t-8.5 21v20q0 12 8.5 21t21.5 9h19q13 0 21.5 -9t8.5 -21v-20
q0 -12 -8.5 -21t-21.5 -9h-19zM710 540q0 12 -9 21t-21 9h-360q-13 0 -21.5 -9t-8.5 -21v-450q0 -13 8.5 -21.5t21.5 -8.5h360q12 0 21 8.5t9 21.5v450zM680 630q38 0 64 -26t26 -64v-450q0 -38 -26 -64t-64 -26h-360q-38 0 -64 26t-26 64v450q0 38 26 64t64 26h360z" />
    <glyph glyph-name="music" unicode="&#x1f3b5;" 
d="M350 280h300q0 -62 -44 -106t-106 -44t-106 44t-44 106zM581 380q-13 0 -21.5 9t-8.5 21v20q0 12 8.5 21t21.5 9h19q13 0 21.5 -9t8.5 -21v-20q0 -12 -8.5 -21t-21.5 -9h-19zM401 380q-13 0 -21.5 9t-8.5 21v20q0 12 8.5 21t21.5 9h19q13 0 21.5 -9t8.5 -21v-20
q0 -12 -8.5 -21t-21.5 -9h-19zM710 540q0 12 -9 21t-21 9h-360q-13 0 -21.5 -9t-8.5 -21v-450q0 -13 8.5 -21.5t21.5 -8.5h360q12 0 21 8.5t9 21.5v450zM680 630q38 0 64 -26t26 -64v-450q0 -38 -26 -64t-64 -26h-360q-38 0 -64 26t-26 64v450q0 38 26 64t64 26h360z" />
    <glyph glyph-name="trophy" unicode="&#x1f3c6;" 
d="M350 280h300q0 -62 -44 -106t-106 -44t-106 44t-44 106zM581 380q-13 0 -21.5 9t-8.5 21v20q0 12 8.5 21t21.5 9h19q13 0 21.5 -9t8.5 -21v-20q0 -12 -8.5 -21t-21.5 -9h-19zM401 380q-13 0 -21.5 9t-8.5 21v20q0 12 8.5 21t21.5 9h19q13 0 21.5 -9t8.5 -21v-20
q0 -12 -8.5 -21t-21.5 -9h-19zM710 540q0 12 -9 21t-21 9h-360q-13 0 -21.5 -9t-8.5 -21v-450q0 -13 8.5 -21.5t21.5 -8.5h360q12 0 21 8.5t9 21.5v450zM680 630q38 0 64 -26t26 -64v-450q0 -38 -26 -64t-64 -26h-360q-38 0 -64 26t-26 64v450q0 38 26 64t64 26h360z" />
    <glyph glyph-name="thumbs_up" unicode="&#x1f44d;" 
d="M350 280h300q0 -62 -44 -106t-106 -44t-106 44t-44 106zM581 380q-13 0 -21.5 9t-8.5 21v20q0 12 8.5 21t21.5 9h19q13 0 21.5 -9t8.5 -21v-20q0 -12 -8.5 -21t-21.5 -9h-19zM401 380q-13 0 -21.5 9t-8.5 21v20q0 12 8.5 21t21.5 9h19q13 0 21.5 -9t8.5 -21v-20
q0 -12 -8.5 -21t-21.5 -9h-19zM710 540q0 12 -9 21t-21 9h-360q-13 0 -21.5 -9t-8.5 -21v-450q0 -13 8.5 -21.5t21.5 -8.5h360q12 0 21 8.5t9 21.5v450zM680 630q38 0 64 -26t26 -64v-450q0 -38 -26 -64t-64 -26h-360q-38 0 -64 26t-26 64v450q0 38 26 64t64 26h360z" />
    <glyph glyph-name="thumbs_down" unicode="&#x1f44e;" 
d="M350 280h300q0 -62 -44 -106t-106 -44t-106 44t-44 106zM581 380q-13 0 -21.5 9t-8.5 21v20q0 12 8.5 21t21.5 9h19q13 0 21.5 -9t8.5 -21v-20q0 -12 -8.5 -21t-21.5 -9h-19zM401 380q-13 0 -21.5 9t-8.5 21v20q0 12 8.5 21t21.5 9h19q13 0 21.5 -9t8.5 -21v-20
q0 -12 -8.5 -21t-21.5 -9h-19zM710 540q0 12 -9 21t-21 9h-360q-13 0 -21.5 -9t-8.5 -21v-450q0 -13 8.5 -21.5t21.5 -8.5h360q12 0 21 8.5t9 21.5v450zM680 630q38 0 64 -26t26 -64v-450q0 -38 -26 -64t-64 -26h-360q-38 0 -64 26t-26 64v450q0 38 26 64t64 26h360z" />
    <glyph glyph-name="bag" unicode="&#x1f45c;" 
d="M350 280h300q0 -62 -44 -106t-106 -44t-106 44t-44 106zM581 380q-13 0 -21.5 9t-8.5 21v20q0 12 8.5 21t21.5 9h19q13 0 21.5 -9t8.5 -21v-20q0 -12 -8.5 -21t-21.5 -9h-19zM401 380q-13 0 -21.5 9t-8.5 21v20q0 12 8.5 21t21.5 9h19q13 0 21.5 -9t8.5 -21v-20
q0 -12 -8.5 -21t-21.5 -9h-19zM710 540q0 12 -9 21t-21 9h-360q-13 0 -21.5 -9t-8.5 -21v-450q0 -13 8.5 -21.5t21.5 -8.5h360q12 0 21 8.5t9 21.5v450zM680 630q38 0 64 -26t26 -64v-450q0 -38 -26 -64t-64 -26h-360q-38 0 -64 26t-26 64v450q0 38 26 64t64 26h360z" />
    <glyph glyph-name="user" unicode="&#x1f464;" 
d="M350 280h300q0 -62 -44 -106t-106 -44t-106 44t-44 106zM581 380q-13 0 -21.5 9t-8.5 21v20q0 12 8.5 21t21.5 9h19q13 0 21.5 -9t8.5 -21v-20q0 -12 -8.5 -21t-21.5 -9h-19zM401 380q-13 0 -21.5 9t-8.5 21v20q0 12 8.5 21t21.5 9h19q13 0 21.5 -9t8.5 -21v-20
q0 -12 -8.5 -21t-21.5 -9h-19zM710 540q0 12 -9 21t-21 9h-360q-13 0 -21.5 -9t-8.5 -21v-450q0 -13 8.5 -21.5t21.5 -8.5h360q12 0 21 8.5t9 21.5v450zM680 630q38 0 64 -26t26 -64v-450q0 -38 -26 -64t-64 -26h-360q-38 0 -64 26t-26 64v450q0 38 26 64t64 26h360z" />
    <glyph glyph-name="users" unicode="&#x1f465;" 
d="M350 280h300q0 -62 -44 -106t-106 -44t-106 44t-44 106zM581 380q-13 0 -21.5 9t-8.5 21v20q0 12 8.5 21t21.5 9h19q13 0 21.5 -9t8.5 -21v-20q0 -12 -8.5 -21t-21.5 -9h-19zM401 380q-13 0 -21.5 9t-8.5 21v20q0 12 8.5 21t21.5 9h19q13 0 21.5 -9t8.5 -21v-20
q0 -12 -8.5 -21t-21.5 -9h-19zM710 540q0 12 -9 21t-21 9h-360q-13 0 -21.5 -9t-8.5 -21v-450q0 -13 8.5 -21.5t21.5 -8.5h360q12 0 21 8.5t9 21.5v450zM680 630q38 0 64 -26t26 -64v-450q0 -38 -26 -64t-64 -26h-360q-38 0 -64 26t-26 64v450q0 38 26 64t64 26h360z" />
    <glyph glyph-name="light_bulb" unicode="&#x1f4a1;" 
d="M350 280h300q0 -62 -44 -106t-106 -44t-106 44t-44 106zM581 380q-13 0 -21.5 9t-8.5 21v20q0 12 8.5 21t21.5 9h19q13 0 21.5 -9t8.5 -21v-20q0 -12 -8.5 -21t-21.5 -9h-19zM401 380q-13 0 -21.5 9t-8.5 21v20q0 12 8.5 21t21.5 9h19q13 0 21.5 -9t8.5 -21v-20
q0 -12 -8.5 -21t-21.5 -9h-19zM710 540q0 12 -9 21t-21 9h-360q-13 0 -21.5 -9t-8.5 -21v-450q0 -13 8.5 -21.5t21.5 -8.5h360q12 0 21 8.5t9 21.5v450zM680 630q38 0 64 -26t26 -64v-450q0 -38 -26 -64t-64 -26h-360q-38 0 -64 26t-26 64v450q0 38 26 64t64 26h360z" />
    <glyph glyph-name="new" unicode="&#x1f4a5;" 
d="M350 280h300q0 -62 -44 -106t-106 -44t-106 44t-44 106zM581 380q-13 0 -21.5 9t-8.5 21v20q0 12 8.5 21t21.5 9h19q13 0 21.5 -9t8.5 -21v-20q0 -12 -8.5 -21t-21.5 -9h-19zM401 380q-13 0 -21.5 9t-8.5 21v20q0 12 8.5 21t21.5 9h19q13 0 21.5 -9t8.5 -21v-20
q0 -12 -8.5 -21t-21.5 -9h-19zM710 540q0 12 -9 21t-21 9h-360q-13 0 -21.5 -9t-8.5 -21v-450q0 -13 8.5 -21.5t21.5 -8.5h360q12 0 21 8.5t9 21.5v450zM680 630q38 0 64 -26t26 -64v-450q0 -38 -26 -64t-64 -26h-360q-38 0 -64 26t-26 64v450q0 38 26 64t64 26h360z" />
    <glyph glyph-name="water" unicode="&#x1f4a6;" 
d="M350 280h300q0 -62 -44 -106t-106 -44t-106 44t-44 106zM581 380q-13 0 -21.5 9t-8.5 21v20q0 12 8.5 21t21.5 9h19q13 0 21.5 -9t8.5 -21v-20q0 -12 -8.5 -21t-21.5 -9h-19zM401 380q-13 0 -21.5 9t-8.5 21v20q0 12 8.5 21t21.5 9h19q13 0 21.5 -9t8.5 -21v-20
q0 -12 -8.5 -21t-21.5 -9h-19zM710 540q0 12 -9 21t-21 9h-360q-13 0 -21.5 -9t-8.5 -21v-450q0 -13 8.5 -21.5t21.5 -8.5h360q12 0 21 8.5t9 21.5v450zM680 630q38 0 64 -26t26 -64v-450q0 -38 -26 -64t-64 -26h-360q-38 0 -64 26t-26 64v450q0 38 26 64t64 26h360z" />
    <glyph glyph-name="droplet" unicode="&#x1f4a7;" 
d="M350 280h300q0 -62 -44 -106t-106 -44t-106 44t-44 106zM581 380q-13 0 -21.5 9t-8.5 21v20q0 12 8.5 21t21.5 9h19q13 0 21.5 -9t8.5 -21v-20q0 -12 -8.5 -21t-21.5 -9h-19zM401 380q-13 0 -21.5 9t-8.5 21v20q0 12 8.5 21t21.5 9h19q13 0 21.5 -9t8.5 -21v-20
q0 -12 -8.5 -21t-21.5 -9h-19zM710 540q0 12 -9 21t-21 9h-360q-13 0 -21.5 -9t-8.5 -21v-450q0 -13 8.5 -21.5t21.5 -8.5h360q12 0 21 8.5t9 21.5v450zM680 630q38 0 64 -26t26 -64v-450q0 -38 -26 -64t-64 -26h-360q-38 0 -64 26t-26 64v450q0 38 26 64t64 26h360z" />
    <glyph glyph-name="air" unicode="&#x1f4a8;" 
d="M350 280h300q0 -62 -44 -106t-106 -44t-106 44t-44 106zM581 380q-13 0 -21.5 9t-8.5 21v20q0 12 8.5 21t21.5 9h19q13 0 21.5 -9t8.5 -21v-20q0 -12 -8.5 -21t-21.5 -9h-19zM401 380q-13 0 -21.5 9t-8.5 21v20q0 12 8.5 21t21.5 9h19q13 0 21.5 -9t8.5 -21v-20
q0 -12 -8.5 -21t-21.5 -9h-19zM710 540q0 12 -9 21t-21 9h-360q-13 0 -21.5 -9t-8.5 -21v-450q0 -13 8.5 -21.5t21.5 -8.5h360q12 0 21 8.5t9 21.5v450zM680 630q38 0 64 -26t26 -64v-450q0 -38 -26 -64t-64 -26h-360q-38 0 -64 26t-26 64v450q0 38 26 64t64 26h360z" />
    </font>
</defs>
</svg>
