<?xml version="1.0" standalone="no"?>
<!DOCTYPE svg PUBLIC "-//W3C//DTD SVG 1.1//EN" "http://www.w3.org/Graphics/SVG/1.1/DTD/svg11.dtd">
<svg xmlns="http://www.w3.org/2000/svg">
<metadata>Generated by Fontastic.me</metadata>
<defs>
<font id="qlik-icons" horiz-adv-x="512">
<font-face font-family="qlik-icons" units-per-em="512" ascent="480" descent="-32"/>
<missing-glyph horiz-adv-x="512" />

<glyph glyph-name="qlik" unicode="&#57344;" d="M506 84l-66 56c23 37 36 80 36 127 0 131-106 238-238 238-131 0-238-107-238-238 0-132 107-238 238-238 51 0 99 16 137 43l71-60c0 0 11-8 20 2l42 50c0 0 9 11-2 20z m-121 183c0-81-66-147-147-147-81 0-146 66-146 147 0 81 65 146 146 146 81 0 147-65 147-146z m-241 0c0 52 42 94 94 94 52 0 94-42 94-94 0-52-42-94-94-94-52 0-94 42-94 94z"/>
<glyph glyph-name="edit-script" unicode="&#57345;" d="M443 412c7-7 7-18 0-25l-32-31-55 55 31 32c7 7 18 7 25 0z m-97-10l55-55-177-173-64-14 14 64z m38-146l32 32 0-201c0-13-10-23-23-23l-306 0c-13 0-23 10-23 23l0 306c0 13 10 23 23 23l201 0-32-32-149 0c-6 0-11-5-11-10l0-268c0 0 4-10 10-10l269 0c0 0 9 5 9 10z"/>
<glyph glyph-name="clear" unicode="&#57346;" d="M96 416l79 0 0-142 241 142 0-320-241 142 0-142-79 0z"/>
<glyph glyph-name="forward" unicode="&#57347;" d="M256 512c-141 0-255-114-255-255 0-141 114-255 255-255 141 0 255 114 255 255 0 141-114 255-255 255z m-64-116l91 0 139-139-139-139-91 0 105 106-207 0 0 67 206 0z"/>
<glyph glyph-name="back" unicode="&#57348;" d="M256 2c141 0 255 114 255 255 0 141-114 255-255 255-141 0-255-114-255-255 0-141 114-255 255-255z m64 116l-91 1-139 138 139 139 91 0-105-106 207 0 0-67-206 0z"/>
<glyph glyph-name="unlock" unicode="&#57349;" d="M368 480c-79 0-144-64-144-143l0-50-224 0 0-288 352 0 0 288-64 0 0 50c0 44 36 79 80 79 44 0 80-35 80-79l0-50 64 0 0 50c0 79-65 143-144 143m-167-417l-54 0 14 76c-8 4-14 13-14 23 0 15 12 27 27 27 15 0 27-12 27-27 0-10-6-19-14-23z"/>
<glyph glyph-name="lock" unicode="&#57350;" d="M320 288l0 45c0 78-65 142-144 142-79 0-144-64-144-142l0-45-32 0 0-288 352 0 0 288z m-122-224l-53 0 14 73c-8 5-14 13-14 23 0 15 12 27 27 27 14 0 26-12 26-27 0-10-5-18-13-23z m58 224l-160 0 0 45c0 42 37 78 80 78 43 0 80-36 80-78z"/>
<glyph glyph-name="table-viewer" unicode="&#57351;" d="M183 336c0 7-5 12-11 12l-161 0c-6 0-10-5-11-12l0 0 0-160c0-7 5-12 11-12l161 0c6 0 12 5 12 12l0 160z m-126-160l-46 0 0 37 46 0z m0 48l-46 0 0 38 46 0z m0 50l-46 0 0 37 46 0z m58-98l-46 0 0 37 46 0z m0 48l-46 0 0 38 46 0z m0 50l-46 0 0 37 46 0z m57-98l-46 0 0 37 46 0z m0 48l-46 0 0 38 46 0z m0 50l-46 0 0 37 46 0z m340 226c-1 7-5 12-11 12l-161 0c-6 0-11-5-11-12l-1 0 0-160c0-7 6-12 12-12l161 0c6 0 11 5 11 12l0 160z m-126-160l-46 0 0 37 46 0z m0 48l-46 0 0 38 46 0z m0 50l-46 0 0 37 46 0z m57-98l-46 0 0 37 46 0z m0 48l-46 0 0 38 46 0z m0 50l-46 0 0 37 46 0z m58-98l-46 0 0 37 46 0z m0 48l-46 0 0 38 46 0z m0 50l-46 0 0 37 46 0z m11-265c-1 6-5 11-11 11l-161 0c-6 0-11-5-11-11l-1 0 0-161c0-6 6-12 12-12l161 0c6 0 11 6 11 12l0 161z m-126-161l-46 0 0 37 46 0z m0 48l-46 0 0 38 46 0z m0 51l-46 0 0 36 46 0z m57-99l-46 0 0 37 46 0z m0 48l-46 0 0 38 46 0z m0 51l-46 0 0 36 46 0z m58-99l-46 0 0 37 46 0z m0 48l-46 0 0 38 46 0z m0 51l-46 0 0 36 46 0z m-321 120l159-159-11-11-159 159z m-10 37l159 159 10-11-159-159z"/>
<glyph glyph-name="webview" unicode="&#57352;" d="M133 81l-102 0 0 400 243 0 0-49 51 0 0-27c10 0 21-1 31-3l0 46-66 64-290 0 0-462 158 0c-9 10-18 20-25 31z m376 126c0 6-1 12-2 18-3 19-9 38-18 55-32 66-99 107-172 107-46 0-90-16-124-45-13-11-23-22-33-35-14-20-24-42-30-66-4-15-6-30-6-46 0-17 3-34 7-50 5-19 13-37 23-53 17-26 39-48 66-63 29-17 62-26 97-26 9 0 17 0 26 1 32 4 61 17 86 34 47 34 78 88 80 150 0 2 0 4 0 7 0 4 0 8 0 12z m-46 33c1 1 4 1 8-1 1 0 1-1 2-1 2-6 3-12 4-18 0-1 0-2 0-2-1 2-3 5-5 7l-5 6c-4 4-6 8-4 9z m16-51c-1-23-6-44-15-64-13-26-32-49-57-65-6-4-13-8-21-12l0 0c-5-2-10-4-15-6-8-3-15-5-23-6-2-1-5-1-7-2-8-1-16-1-24-1-34 0-66 10-92 28-21 15-39 34-51 57-4 6-7 13-9 21l-1 0c-6 17-10 36-10 56 0 9 1 17 3 26 0-1 0-2 0-3l6-19c2-4 7-9 12-10l28-4c5-1 10-5 11-9 1-1 1-1 1-1l2-9c2-5 0-11-4-14l-6-4c-4-3-9-10-10-15l-3-11-1-6c-1-5 1-11 6-14 4-2 12-5 17-6l0 0c5 0 11-4 14-8 0 0 0 0 0-1 3-4 6-9 8-13l9-18c2-4 8-8 12-8 5 0 8 4 7 9l-4 26c0 5 1 13 4 17l4 8c3 4 5 12 5 17l-1 12c0 5-4 11-9 13l-17 7c-5 2-10 8-12 13l-4 13c-1 3-2 7-2 11-1 3-1 5-1 7l0 0c0 5 3 13 6 16l2 3c2 1 3 2 5 2 2 0 3-1 4-3 2-5 5-8 7-7 3 1 5 6 7 11 1 4 5 10 10 13l1 1c4 2 9 8 10 13l8 29c1 5-1 12-5 15l-4 4c-4 4-10 9-14 13l-1 1c-1 0-1 1-1 1-4 3-10 6-15 6l-28 0c-2 0-6 0-9 0 11 9 22 16 35 23 0 0 0 0 0 0 22 10 45 15 70 15 54 0 102-27 132-68l-36 5c-3 1-6 0-9-2-3-1-5-2-6-4l-15-18-16-20-1 0c-3-4-6-12-6-17l-1-13c-1-5 2-6 6-3l5 5c4 4 11 7 16 7l4 0c5 0 10-5 11-10l2-4c1-5 0-12-1-15-2-3-8-6-13-5l-13 1c-5 0-12-2-16-6l-4-5c-1-1-2-2-2-3-3-4-4-9-3-13l2-13c0-1 0-2 1-4 1-4 4-8 7-11l7-4c4-3 7-10 7-15l0-30c-1-4 2-9 5-12 1 0 1-1 2-1 4-2 10-1 14 3l6 7c3 4 7 11 9 16 0 0 4 10 4 12 0 2 4 4 4 4 4 2 10 6 11 10 2 3 4 7 5 10 0 1 1 2 1 2 1 4 5 9 9 12l1 1c4 3 10 9 12 13l4 7c1 1 1 2 1 3 0 0 0 1 0 1-1 2-3 2-5 2l-1-1c-5-1-13 1-17 4l-4 3c-4 3-7 7-6 9 1 2 5 1 10-1l3-2c4-3 12-5 17-4l1 0 4 0c5 1 10 3 11 6 2 2 2 5 3 7 0-3 0-5 0-8 0-2 0-4 0-6z m-46-90c-1-4-3-8-5-11-2-2-6-4-8-5 0 0 0 0 0-1-3-1-5 0-5 1-1 1-1 3 0 5 0 1 3 6 6 10 2 3 5 5 7 6 1 1 1 1 2 1 2 0 3-3 3-6z"/>
<glyph glyph-name="edit-module" unicode="&#57353;" d="M419 453l0 11c0 5-4 9-9 9l-401 0c-5 0-9-4-9-9l0-401c0-5 4-9 9-9l401 0c5 0 9 4 9 9l0 207-50-50 0-116-319 0 0 319 319 0 0-20z m-171-196c-1-1-2-2-2-3l-10-67c0-2 1-4 2-5 1-1 2-2 4-2 0 0 0 1 1 1l66 9c2 0 3 1 4 2l151 151-66 65z m262 134c0 2-1 3-2 4l-57 57c-2 3-6 3-8 0l-27-27 65-65 27 27c1 1 2 2 2 4z m-136 16l0 21-330 0 0-76 274 0z"/>
<glyph glyph-name="reload" unicode="&#57354;" d="M247 81l-216 0 0 400 243 0 0-45 82 0 0 12-66 64-290 0 0-462 273 0z m254 114l-63 0c-11 0-20 8-20 17l0 195c0 9-9 16-20 16l-106 0c-11 0-21-7-21-16l0-1 0-140 0-54c0-9-9-17-20-17l-63 0c-11 0-14-5-7-12l150-177c8-7 19-7 27 0l150 177c7 7 4 12-7 12z"/>
<glyph glyph-name="add-sheet" unicode="&#57355;" d="M461 307l-183 0 0 88-160 0 0 1-44 0 0-1-74 0 0-393 512 0 0 305-51 0z m7-41l0-223-424 0 0 311 190 0 0-88z m-33 49l71 45-69 7 19 79-48-50-14 57-20-53-55 71 17-89-49 11c0 0 15-28 23-46l-79 6 72-42-21-21 33 6-23-83 70 59 18-46 18 37 60-63-30 84 66-7z"/>
<glyph glyph-name="demote-sheet" unicode="&#57356;" d="M461 307l-183 0 0 88-160 0 0 1-44 0 0-1-74 0 0-393 512 0 0 305-51 0z m7-41l0-223-424 0 0 311 190 0 0-88z m-240 201l-169-132c-6-7-6-17 0-23l169-133c7-7 13-4 13 6l0 56c0 9 7 17 15 17l52 1 134 0 1 0c8 0 16 8 16 18l0 93c0 10-8 18-16 18l-187 0c-8 0-15 8-15 18l0 55c0 10-6 13-13 6z"/>
<glyph glyph-name="promote-sheet" unicode="&#57357;" d="M461 307l-183 0 0 88-160 0 0 1-44 0 0-1-74 0 0-393 512 0 0 305-51 0z m7-41l0-223-424 0 0 311 190 0 0-88z m-196 195l0-55c0-10-7-18-16-18l-186 0c-9 0-16-8-16-18l0-93c0-10 7-18 16-18l0 0 135 0 51-1c9 0 16-8 16-17l0-56c0-10 6-13 12-6l170 133c6 6 6 16 0 23l-170 132c-6 7-12 4-12-6z"/>
<glyph glyph-name="new" unicode="&#57358;" d="M96 448l179 0 13-13 0-83 83 0 13-13 0-275-288 0z m-64 64l0-512 416 0 0 365-147 147z"/>
<glyph glyph-name="open" unicode="&#57359;" d="M475 247c0 6-5 9-14 9l-290 0c-7 0-15-2-23-6-8-4-15-8-19-14l-79-97c-3-4-4-7-4-10 0-6 4-10 14-10l290 0c7 0 15 2 23 6 8 4 14 9 19 14l78 97c3 4 5 8 5 11z m-304 43l204 0 0 43c0 7-2 13-7 18-5 5-11 7-18 7l-154 0c-7 0-13 3-18 8-5 5-7 11-7 18l0 17c0 7-3 13-8 18-5 5-11 8-18 8l-85 0c-7 0-13-3-18-8-5-5-8-11-8-18l0-227 68 84c8 9 19 17 31 23 13 6 26 9 38 9z m338-43c0-11-4-22-12-32l-79-97c-8-10-18-17-31-23-13-7-25-10-37-10l-290 0c-17 0-31 6-42 18-12 12-18 26-18 42l0 256c0 16 6 30 18 42 11 12 25 18 42 18l85 0c16 0 30-6 42-18 12-12 18-26 18-42l0-8 145 0c16 0 30-6 42-18 12-12 18-26 18-42l0-43 51 0c9 0 18-2 26-6 8-5 14-11 18-19 3-6 4-12 4-18z"/>
<glyph glyph-name="refresh" unicode="&#57360;" d="M141 148c0 0 60 60 60 60 0 0 0-150 0-150 0 0-142 9-142 9 0 0 45 44 45 44-39 41-59 91-58 148 1 57 21 107 62 148 34 34 75 53 122 59 0 0 2-52 2-52-34-6-63-21-88-45-30-30-45-67-46-109 0-43 14-80 43-112m170 307c0 0 142-9 142-9 0 0-45-44-45-44 39-41 59-91 58-148-1-57-21-107-62-148-32-33-73-53-122-60 0 0-1 53-1 53 33 6 62 21 87 45 30 30 45 67 46 109 0 43-14 80-43 112 0 0-59-60-59-60 0 0-1 150-1 150"/>
<glyph glyph-name="save" unicode="&#57361;" d="M161 94l191 0c6 0 10-4 10-10l0-84-212 0 0 84c0 6 5 10 11 10z m351-47l0 418c0 26-21 47-47 47l-418 0c-26 0-47-21-47-47l0-418c0-26 21-47 47-47l69 0 0 84c0 24 20 44 45 44l191 0c24 0 44-20 44-44l0-84 69 0c26 0 47 21 47 47z m-79 214c0-15-13-27-28-27l-298 0c-15 0-27 12-27 27l0 143c0 15 12 28 27 28l114 0 0 0 184 0c15 0 28-13 28-28z"/>
<glyph glyph-name="format-painter" unicode="&#57362;" d="M8 202c-11-11-11-28 0-39l14-14 33 13-12-34 70-70 54 32-28-58 24-23c10-11 28-11 38 0l127 126-193 194z m487 294l0 0c-13 13-30 18-49 15-38-7-78-48-107-111-8-17-19-27-35-29-29-6-66 16-88 38-5 5-12 5-17 0l-23-23 34-34c4-4 4-12 0-16-5-4-12-4-16 0l-34 34-9-9c-4-4-4-12 0-16l193-193c5-5 12-5 17 0l47 47c5 5 5 13 0 17-22 22-43 60-38 89 3 15 13 27 30 35 62 28 104 68 110 106 4 19-1 36-15 50z m-22-51c-8-8-21-8-29 0-8 8-8 21 0 29 8 8 21 8 29 0 9-8 9-21 0-29z"/>
<glyph glyph-name="debug" unicode="&#57363;" d="M436 56l0 388-81 68-355 0 0-489 436 0z m-38 343l0-343-360 0 0 423 298 0 0-51 62 0z m106-302c-2 1-4 3-6 4-9 15-17 31-26 47-3 5-4 12-8 15-34 17-28 44-25 71 13-39 70-55 68-102 8 20 7 39-8 56-4 4-8 10-8 15 2 27-19 42-42 54-12 7-28 9-48 14 42 23 55 56 62 92 0 0 0 0 0 0 4 7 7 13 8 20 0 2-4 4-6 2-5-3-11-7-16-10-1 0-2-1-2-1-12 24-24 48-37 72 0 0 0 0 0 0-1 1-2 2-3 3-6 7-16 10-25 13-5 2-7-5-2-6 0 0 0 0 0 0 1-1 1-1 2-1 0 0 0 0 0 0 0 0 1-1 1-1 1 0 1 0 1 0 1 0 2-1 3-1 4-2 6-6 5-10-1-4-1-8 1-11 0 0 0 0 0 0 1 0 1 0 1-1 1 0 1 0 2-1 5-2 9-6 13-9 14-15 15-33 20-52 6-29-19-42-22-71-14 23-25 41-36 58 4 1 7 1 11 2 10 1 21 0 30 2 9 2 17 10 8 17-1 1-4 1-5 0 0 0 0 0-1-1-5-3-10-6-15-10-1 0-1 0-1 0 0 0 0 0-1 0 0 0 0 0 0 0-5-1-10-1-15-1-5-1-10-1-15-1-2 0-3 1-5 2-5 3-9 8-11 14 0 0 0 0 0 0 0 1 0 1 0 1-1 4-7 2-7-1-1-2-2-3-3-5-4-3-8-7-12-11 0 0 0 0 0 0 0 0 0 0 0 0-4 4-9 8-13 11-1 2-1 3-2 5 0 3-6 5-7 1 0 0 0 0 0-1-1 0-1 0-1 0-2-6-5-11-10-14-2-1-4-2-5-2-5 0-10 0-15 1-5 0-10 0-15 1 0 0 0 0-1 0 0 0 0 0 0 0 0 0-1 0-1 0-5 4-10 7-16 10 0 1 0 1 0 1-2 1-4 1-6 0-8-7 0-15 9-17 9-2 20-1 29-2 4-1 8-1 12-2-11-17-22-35-37-58-2 29-28 42-21 71 4 19 6 37 19 52 4 3 9 7 13 9 1 1 2 1 3 1 0 1 0 1 0 1 0 0 0 0 0 0 3 3 3 7 2 11-1 4 1 8 5 10 1 0 2 1 3 1 0 0 0 0 0 0 1 0 1 1 2 1 0 0 0 0 0 0 0 0 1 0 1 1 1 0 1 0 1 0 4 1 3 8-2 6-9-3-20-6-26-13-1-1-2-2-2-3 0 0-1 0-1 0-12-24-24-48-36-72-1 0-1 1-2 1-5 3-11 7-16 10-3 2-6 0-6-2 0-7 4-13 7-20 0 0 0 0 0 0 8-36 21-69 63-92-20-5-36-7-48-14-24-12-44-26-43-54 1-5-4-11-7-15-16-17-16-36-8-56-3 47 54 63 67 102 3-27 10-54-24-71-4-3-6-10-8-15-9-16-18-32-26-47-2-1-4-3-6-4-8-6-4-12 3-16 7-18 15-36 24-53 1-2 2-4 4-5 5-10 12-19 21-23 4-1 11 1 10 5-1 7-10 11-16 15-8 13-17 27-25 41 42 17 6 53 32 76 13-60 38-109 118-109 1 0 3 0 4 0 1 0 2 0 3 0 81 0 106 49 119 109 26-23-10-59 32-76-9-14-17-28-26-41-6-4-15-8-15-15-1-4 6-6 9-5 10 4 17 13 22 23 1 1 2 3 3 5 10 17 17 35 25 53 7 4 10 10 3 16z"/>
</font>
</defs>
</svg>
